<svg id="bkg" xmlns="http://www.w3.org/2000/svg" viewBox="0 0 144 138.7"><style>.st0{fill:#f9fae8}.st1,.st2{fill:#fff}.st2{fill-rule:evenodd;clip-rule:evenodd}.st3{fill:#79bd1a}.st4{fill:#005329}.st5{fill:#f9fded}.st6{fill:#a6e000}.st7{fill:#231f20}.st8{fill:#e02125}.st9{fill:#f8f9fb}</style><path class="st0" d="M991-77H271c-11 0-20 9-20 20v534c0 11 9 20 20 20h720c11 0 20-9 20-20V-57c0-11-9-20-20-20z"/><path class="st1" d="M259.3-74.2c-2 0-3.6-1.6-3.6-3.6s1.6-3.6 3.6-3.6 3.6 1.6 3.6 3.6-1.6 3.6-3.6 3.6zM308.5-74.2c-2 0-3.6-1.6-3.6-3.6s1.6-3.6 3.6-3.6 3.6 1.6 3.6 3.6-1.6 3.6-3.6 3.6zM357.7-74.2c-2 0-3.6-1.6-3.6-3.6s1.6-3.6 3.6-3.6 3.6 1.6 3.6 3.6-1.6 3.6-3.6 3.6zM407-74.2c-2 0-3.6-1.6-3.6-3.6s1.6-3.6 3.6-3.6 3.6 1.6 3.6 3.6c-.1 2-1.7 3.6-3.6 3.6zM456.2-74.2c-2 0-3.6-1.6-3.6-3.6s1.6-3.6 3.6-3.6 3.6 1.6 3.6 3.6-1.6 3.6-3.6 3.6zM505.4-74.2c-2 0-3.6-1.6-3.6-3.6s1.6-3.6 3.6-3.6 3.6 1.6 3.6 3.6-1.6 3.6-3.6 3.6zM554.6-74.2c-2 0-3.6-1.6-3.6-3.6s1.6-3.6 3.6-3.6 3.6 1.6 3.6 3.6-1.6 3.6-3.6 3.6zM603.9-74.2c-2 0-3.6-1.6-3.6-3.6s1.6-3.6 3.6-3.6 3.6 1.6 3.6 3.6c-.1 2-1.7 3.6-3.6 3.6zM653.1-74.2c-2 0-3.6-1.6-3.6-3.6s1.6-3.6 3.6-3.6 3.6 1.6 3.6 3.6-1.6 3.6-3.6 3.6zM702.3-74.2c-2 0-3.6-1.6-3.6-3.6s1.6-3.6 3.6-3.6 3.6 1.6 3.6 3.6-1.6 3.6-3.6 3.6zM751.5-74.2c-2 0-3.6-1.6-3.6-3.6s1.6-3.6 3.6-3.6 3.6 1.6 3.6 3.6-1.6 3.6-3.6 3.6zM800.8-74.2c-2 0-3.6-1.6-3.6-3.6s1.6-3.6 3.6-3.6 3.6 1.6 3.6 3.6c-.1 2-1.7 3.6-3.6 3.6zM850-74.2c-2 0-3.6-1.6-3.6-3.6s1.6-3.6 3.6-3.6 3.6 1.6 3.6 3.6-1.6 3.6-3.6 3.6zM899.2-74.2c-2 0-3.6-1.6-3.6-3.6s1.6-3.6 3.6-3.6 3.6 1.6 3.6 3.6-1.6 3.6-3.6 3.6zM948.4-74.2c-2 0-3.6-1.6-3.6-3.6s1.6-3.6 3.6-3.6 3.6 1.6 3.6 3.6-1.6 3.6-3.6 3.6zM997.7-74.2c-2 0-3.6-1.6-3.6-3.6s1.6-3.6 3.6-3.6 3.6 1.6 3.6 3.6c-.1 2-1.7 3.6-3.6 3.6zM238-53.5c-2 0-3.6-1.6-3.6-3.6s1.6-3.6 3.6-3.6 3.6 1.6 3.6 3.6-1.6 3.6-3.6 3.6zM287.3-53.5c-2 0-3.6-1.6-3.6-3.6s1.6-3.6 3.6-3.6 3.6 1.6 3.6 3.6c-.1 2-1.7 3.6-3.6 3.6zM336.5-53.5c-2 0-3.6-1.6-3.6-3.6s1.6-3.6 3.6-3.6 3.6 1.6 3.6 3.6-1.6 3.6-3.6 3.6zM385.7-53.5c-2 0-3.6-1.6-3.6-3.6s1.6-3.6 3.6-3.6 3.6 1.6 3.6 3.6-1.6 3.6-3.6 3.6zM434.9-53.5c-2 0-3.6-1.6-3.6-3.6s1.6-3.6 3.6-3.6 3.6 1.6 3.6 3.6-1.6 3.6-3.6 3.6zM484.2-53.5c-2 0-3.6-1.6-3.6-3.6s1.6-3.6 3.6-3.6 3.6 1.6 3.6 3.6c-.1 2-1.7 3.6-3.6 3.6zM533.4-53.5c-2 0-3.6-1.6-3.6-3.6s1.6-3.6 3.6-3.6 3.6 1.6 3.6 3.6-1.6 3.6-3.6 3.6zM582.6-53.5c-2 0-3.6-1.6-3.6-3.6s1.6-3.6 3.6-3.6 3.6 1.6 3.6 3.6-1.6 3.6-3.6 3.6zM631.8-53.5c-2 0-3.6-1.6-3.6-3.6s1.6-3.6 3.6-3.6 3.6 1.6 3.6 3.6-1.6 3.6-3.6 3.6zM681.1-53.5c-2 0-3.6-1.6-3.6-3.6s1.6-3.6 3.6-3.6 3.6 1.6 3.6 3.6c-.1 2-1.7 3.6-3.6 3.6zM730.3-53.5c-2 0-3.6-1.6-3.6-3.6s1.6-3.6 3.6-3.6 3.6 1.6 3.6 3.6-1.6 3.6-3.6 3.6zM779.5-53.5c-2 0-3.6-1.6-3.6-3.6s1.6-3.6 3.6-3.6 3.6 1.6 3.6 3.6-1.6 3.6-3.6 3.6zM828.7-53.5c-2 0-3.6-1.6-3.6-3.6s1.6-3.6 3.6-3.6 3.6 1.6 3.6 3.6-1.6 3.6-3.6 3.6zM878-53.5c-2 0-3.6-1.6-3.6-3.6s1.6-3.6 3.6-3.6 3.6 1.6 3.6 3.6c-.1 2-1.7 3.6-3.6 3.6zM927.2-53.5c-2 0-3.6-1.6-3.6-3.6s1.6-3.6 3.6-3.6 3.6 1.6 3.6 3.6-1.6 3.6-3.6 3.6zM976.4-53.5c-2 0-3.6-1.6-3.6-3.6s1.6-3.6 3.6-3.6 3.6 1.6 3.6 3.6-1.6 3.6-3.6 3.6zM1025.4-53.6c-1.9-.1-3.3-1.7-3.3-3.6 0-1.9 1.5-3.4 3.3-3.6v7.2zM266-32.9c-2 0-3.6-1.6-3.6-3.6s1.6-3.6 3.6-3.6 3.6 1.6 3.6 3.6-1.6 3.6-3.6 3.6zM315.2-32.9c-2 0-3.6-1.6-3.6-3.6s1.6-3.6 3.6-3.6 3.6 1.6 3.6 3.6-1.6 3.6-3.6 3.6zM364.5-32.9c-2 0-3.6-1.6-3.6-3.6s1.6-3.6 3.6-3.6 3.6 1.6 3.6 3.6c-.1 2-1.7 3.6-3.6 3.6zM413.7-32.9c-2 0-3.6-1.6-3.6-3.6s1.6-3.6 3.6-3.6 3.6 1.6 3.6 3.6-1.6 3.6-3.6 3.6zM462.9-32.9c-2 0-3.6-1.6-3.6-3.6s1.6-3.6 3.6-3.6 3.6 1.6 3.6 3.6-1.6 3.6-3.6 3.6zM512.1-32.9c-2 0-3.6-1.6-3.6-3.6s1.6-3.6 3.6-3.6 3.6 1.6 3.6 3.6-1.6 3.6-3.6 3.6zM561.4-32.9c-2 0-3.6-1.6-3.6-3.6s1.6-3.6 3.6-3.6 3.6 1.6 3.6 3.6c-.1 2-1.7 3.6-3.6 3.6zM610.6-32.9c-2 0-3.6-1.6-3.6-3.6s1.6-3.6 3.6-3.6 3.6 1.6 3.6 3.6-1.6 3.6-3.6 3.6zM659.8-32.9c-2 0-3.6-1.6-3.6-3.6s1.6-3.6 3.6-3.6 3.6 1.6 3.6 3.6-1.6 3.6-3.6 3.6zM709-32.9c-2 0-3.6-1.6-3.6-3.6s1.6-3.6 3.6-3.6 3.6 1.6 3.6 3.6-1.6 3.6-3.6 3.6zM758.3-32.9c-2 0-3.6-1.6-3.6-3.6s1.6-3.6 3.6-3.6 3.6 1.6 3.6 3.6c-.1 2-1.7 3.6-3.6 3.6zM807.5-32.9c-2 0-3.6-1.6-3.6-3.6s1.6-3.6 3.6-3.6 3.6 1.6 3.6 3.6-1.6 3.6-3.6 3.6zM856.7-32.9c-2 0-3.6-1.6-3.6-3.6s1.6-3.6 3.6-3.6 3.6 1.6 3.6 3.6-1.6 3.6-3.6 3.6zM905.9-32.9c-2 0-3.6-1.6-3.6-3.6s1.6-3.6 3.6-3.6 3.6 1.6 3.6 3.6-1.6 3.6-3.6 3.6zM955.2-32.9c-2 0-3.6-1.6-3.6-3.6s1.6-3.6 3.6-3.6 3.6 1.6 3.6 3.6c-.1 2-1.7 3.6-3.6 3.6zM1004.4-32.9c-2 0-3.6-1.6-3.6-3.6s1.6-3.6 3.6-3.6 3.6 1.6 3.6 3.6-1.6 3.6-3.6 3.6zM244.8-12.3c-2 0-3.6-1.6-3.6-3.6s1.6-3.6 3.6-3.6 3.6 1.6 3.6 3.6c-.1 2-1.7 3.6-3.6 3.6zM294-12.3c-2 0-3.6-1.6-3.6-3.6s1.6-3.6 3.6-3.6 3.6 1.6 3.6 3.6-1.6 3.6-3.6 3.6zM343.2-12.3c-2 0-3.6-1.6-3.6-3.6s1.6-3.6 3.6-3.6 3.6 1.6 3.6 3.6-1.6 3.6-3.6 3.6zM392.4-12.3c-2 0-3.6-1.6-3.6-3.6s1.6-3.6 3.6-3.6 3.6 1.6 3.6 3.6-1.6 3.6-3.6 3.6zM441.7-12.3c-2 0-3.6-1.6-3.6-3.6s1.6-3.6 3.6-3.6 3.6 1.6 3.6 3.6c-.1 2-1.7 3.6-3.6 3.6zM490.9-12.3c-2 0-3.6-1.6-3.6-3.6s1.6-3.6 3.6-3.6 3.6 1.6 3.6 3.6-1.6 3.6-3.6 3.6zM540.1-12.3c-2 0-3.6-1.6-3.6-3.6s1.6-3.6 3.6-3.6 3.6 1.6 3.6 3.6-1.6 3.6-3.6 3.6zM589.3-12.3c-2 0-3.6-1.6-3.6-3.6s1.6-3.6 3.6-3.6 3.6 1.6 3.6 3.6-1.6 3.6-3.6 3.6zM638.6-12.3c-2 0-3.6-1.6-3.6-3.6s1.6-3.6 3.6-3.6 3.6 1.6 3.6 3.6c-.1 2-1.7 3.6-3.6 3.6zM687.8-12.3c-2 0-3.6-1.6-3.6-3.6s1.6-3.6 3.6-3.6 3.6 1.6 3.6 3.6-1.6 3.6-3.6 3.6zM737-12.3c-2 0-3.6-1.6-3.6-3.6s1.6-3.6 3.6-3.6 3.6 1.6 3.6 3.6-1.6 3.6-3.6 3.6zM786.2-12.3c-2 0-3.6-1.6-3.6-3.6s1.6-3.6 3.6-3.6 3.6 1.6 3.6 3.6-1.6 3.6-3.6 3.6zM835.5-12.3c-2 0-3.6-1.6-3.6-3.6s1.6-3.6 3.6-3.6 3.6 1.6 3.6 3.6c-.1 2-1.7 3.6-3.6 3.6zM884.7-12.3c-2 0-3.6-1.6-3.6-3.6s1.6-3.6 3.6-3.6 3.6 1.6 3.6 3.6-1.6 3.6-3.6 3.6zM933.9-12.3c-2 0-3.6-1.6-3.6-3.6s1.6-3.6 3.6-3.6 3.6 1.6 3.6 3.6-1.6 3.6-3.6 3.6zM983.1-12.3c-2 0-3.6-1.6-3.6-3.6s1.6-3.6 3.6-3.6 3.6 1.6 3.6 3.6-1.6 3.6-3.6 3.6zM1027.4-13.4v-5c-.4.8-.6 1.6-.6 2.5 0 .9.2 1.8.6 2.5zM272.7 8.3c-2 0-3.6-1.6-3.6-3.6s1.6-3.6 3.6-3.6 3.6 1.6 3.6 3.6-1.6 3.6-3.6 3.6zM322 8.3c-2 0-3.6-1.6-3.6-3.6s1.6-3.6 3.6-3.6 3.6 1.6 3.6 3.6c-.1 2-1.7 3.6-3.6 3.6zM371.2 8.3c-2 0-3.6-1.6-3.6-3.6s1.6-3.6 3.6-3.6 3.6 1.6 3.6 3.6-1.6 3.6-3.6 3.6zM420.4 8.3c-2 0-3.6-1.6-3.6-3.6s1.6-3.6 3.6-3.6 3.6 1.6 3.6 3.6-1.6 3.6-3.6 3.6zM469.6 8.3c-2 0-3.6-1.6-3.6-3.6s1.6-3.6 3.6-3.6 3.6 1.6 3.6 3.6-1.6 3.6-3.6 3.6zM518.9 8.3c-2 0-3.6-1.6-3.6-3.6s1.6-3.6 3.6-3.6 3.6 1.6 3.6 3.6c-.1 2-1.7 3.6-3.6 3.6zM568.1 8.3c-2 0-3.6-1.6-3.6-3.6s1.6-3.6 3.6-3.6 3.6 1.6 3.6 3.6-1.6 3.6-3.6 3.6zM617.3 8.3c-2 0-3.6-1.6-3.6-3.6s1.6-3.6 3.6-3.6 3.6 1.6 3.6 3.6-1.6 3.6-3.6 3.6zM666.5 8.3c-2 0-3.6-1.6-3.6-3.6s1.6-3.6 3.6-3.6 3.6 1.6 3.6 3.6-1.6 3.6-3.6 3.6zM715.8 8.3c-2 0-3.6-1.6-3.6-3.6s1.6-3.6 3.6-3.6 3.6 1.6 3.6 3.6c-.1 2-1.7 3.6-3.6 3.6zM765 8.3c-2 0-3.6-1.6-3.6-3.6s1.6-3.6 3.6-3.6 3.6 1.6 3.6 3.6-1.6 3.6-3.6 3.6zM814.2 8.3c-2 0-3.6-1.6-3.6-3.6s1.6-3.6 3.6-3.6 3.6 1.6 3.6 3.6-1.6 3.6-3.6 3.6zM863.4 8.3c-2 0-3.6-1.6-3.6-3.6s1.6-3.6 3.6-3.6 3.6 1.6 3.6 3.6-1.6 3.6-3.6 3.6zM912.7 8.3c-2 0-3.6-1.6-3.6-3.6s1.6-3.6 3.6-3.6 3.6 1.6 3.6 3.6c-.1 2-1.7 3.6-3.6 3.6zM961.9 8.3c-2 0-3.6-1.6-3.6-3.6s1.6-3.6 3.6-3.6 3.6 1.6 3.6 3.6-1.6 3.6-3.6 3.6zM1011.1 8.3c-2 0-3.6-1.6-3.6-3.6s1.6-3.6 3.6-3.6 3.6 1.6 3.6 3.6-1.6 3.6-3.6 3.6zM251.5 28.9c-2 0-3.6-1.6-3.6-3.6s1.6-3.6 3.6-3.6 3.6 1.6 3.6 3.6-1.6 3.6-3.6 3.6zM300.7 28.9c-2 0-3.6-1.6-3.6-3.6s1.6-3.6 3.6-3.6 3.6 1.6 3.6 3.6-1.6 3.6-3.6 3.6zM349.9 28.9c-2 0-3.6-1.6-3.6-3.6s1.6-3.6 3.6-3.6 3.6 1.6 3.6 3.6-1.6 3.6-3.6 3.6zM399.2 28.9c-2 0-3.6-1.6-3.6-3.6s1.6-3.6 3.6-3.6 3.6 1.6 3.6 3.6c-.1 2-1.7 3.6-3.6 3.6zM448.4 28.9c-2 0-3.6-1.6-3.6-3.6s1.6-3.6 3.6-3.6 3.6 1.6 3.6 3.6-1.6 3.6-3.6 3.6zM497.6 28.9c-2 0-3.6-1.6-3.6-3.6s1.6-3.6 3.6-3.6 3.6 1.6 3.6 3.6-1.6 3.6-3.6 3.6zM546.8 28.9c-2 0-3.6-1.6-3.6-3.6s1.6-3.6 3.6-3.6 3.6 1.6 3.6 3.6-1.6 3.6-3.6 3.6zM596.1 28.9c-2 0-3.6-1.6-3.6-3.6s1.6-3.6 3.6-3.6 3.6 1.6 3.6 3.6c-.1 2-1.7 3.6-3.6 3.6zM645.3 28.9c-2 0-3.6-1.6-3.6-3.6s1.6-3.6 3.6-3.6 3.6 1.6 3.6 3.6-1.6 3.6-3.6 3.6zM694.5 28.9c-2 0-3.6-1.6-3.6-3.6s1.6-3.6 3.6-3.6 3.6 1.6 3.6 3.6-1.6 3.6-3.6 3.6zM743.7 28.9c-2 0-3.6-1.6-3.6-3.6s1.6-3.6 3.6-3.6 3.6 1.6 3.6 3.6-1.6 3.6-3.6 3.6zM793 28.9c-2 0-3.6-1.6-3.6-3.6s1.6-3.6 3.6-3.6 3.6 1.6 3.6 3.6c-.1 2-1.7 3.6-3.6 3.6zM842.2 28.9c-2 0-3.6-1.6-3.6-3.6s1.6-3.6 3.6-3.6 3.6 1.6 3.6 3.6-1.6 3.6-3.6 3.6zM891.4 28.9c-2 0-3.6-1.6-3.6-3.6s1.6-3.6 3.6-3.6 3.6 1.6 3.6 3.6-1.6 3.6-3.6 3.6zM940.6 28.9c-2 0-3.6-1.6-3.6-3.6s1.6-3.6 3.6-3.6 3.6 1.6 3.6 3.6-1.6 3.6-3.6 3.6zM989.9 28.9c-2 0-3.6-1.6-3.6-3.6s1.6-3.6 3.6-3.6 3.6 1.6 3.6 3.6c-.1 2-1.7 3.6-3.6 3.6zM233.2 44c.4.6.6 1.3.6 2s-.2 1.4-.6 2v-4zM279.5 49.5c-2 0-3.6-1.6-3.6-3.6s1.6-3.6 3.6-3.6 3.6 1.6 3.6 3.6c-.1 2-1.7 3.6-3.6 3.6zM328.7 49.5c-2 0-3.6-1.6-3.6-3.6s1.6-3.6 3.6-3.6 3.6 1.6 3.6 3.6-1.7 3.6-3.6 3.6zM377.9 49.5c-2 0-3.6-1.6-3.6-3.6s1.6-3.6 3.6-3.6 3.6 1.6 3.6 3.6-1.6 3.6-3.6 3.6zM427.1 49.5c-2 0-3.6-1.6-3.6-3.6s1.6-3.6 3.6-3.6 3.6 1.6 3.6 3.6-1.6 3.6-3.6 3.6zM476.4 49.5c-2 0-3.6-1.6-3.6-3.6s1.6-3.6 3.6-3.6 3.6 1.6 3.6 3.6c-.1 2-1.7 3.6-3.6 3.6zM525.6 49.5c-2 0-3.6-1.6-3.6-3.6s1.6-3.6 3.6-3.6 3.6 1.6 3.6 3.6-1.6 3.6-3.6 3.6zM574.8 49.5c-2 0-3.6-1.6-3.6-3.6s1.6-3.6 3.6-3.6 3.6 1.6 3.6 3.6-1.6 3.6-3.6 3.6zM624 49.5c-2 0-3.6-1.6-3.6-3.6s1.6-3.6 3.6-3.6 3.6 1.6 3.6 3.6-1.6 3.6-3.6 3.6zM673.3 49.5c-2 0-3.6-1.6-3.6-3.6s1.6-3.6 3.6-3.6 3.6 1.6 3.6 3.6c-.1 2-1.7 3.6-3.6 3.6zM722.5 49.5c-2 0-3.6-1.6-3.6-3.6s1.6-3.6 3.6-3.6 3.6 1.6 3.6 3.6-1.6 3.6-3.6 3.6zM771.7 49.5c-2 0-3.6-1.6-3.6-3.6s1.6-3.6 3.6-3.6 3.6 1.6 3.6 3.6-1.6 3.6-3.6 3.6zM820.9 49.5c-2 0-3.6-1.6-3.6-3.6s1.6-3.6 3.6-3.6 3.6 1.6 3.6 3.6-1.6 3.6-3.6 3.6zM870.2 49.5c-2 0-3.6-1.6-3.6-3.6s1.6-3.6 3.6-3.6 3.6 1.6 3.6 3.6c-.1 2-1.7 3.6-3.6 3.6zM919.4 49.5c-2 0-3.6-1.6-3.6-3.6s1.6-3.6 3.6-3.6 3.6 1.6 3.6 3.6-1.6 3.6-3.6 3.6zM968.6 49.5c-2 0-3.6-1.6-3.6-3.6s1.6-3.6 3.6-3.6 3.6 1.6 3.6 3.6-1.6 3.6-3.6 3.6zM1017.8 49.5c-2 0-3.6-1.6-3.6-3.6s1.6-3.6 3.6-3.6 3.6 1.6 3.6 3.6-1.6 3.6-3.6 3.6zM258.2 70.2c-2 0-3.6-1.6-3.6-3.6s1.6-3.6 3.6-3.6 3.6 1.6 3.6 3.6-1.6 3.6-3.6 3.6zM307.4 70.2c-2 0-3.6-1.6-3.6-3.6s1.6-3.6 3.6-3.6 3.6 1.6 3.6 3.6-1.6 3.6-3.6 3.6zM356.7 70.2c-2 0-3.6-1.6-3.6-3.6s1.6-3.6 3.6-3.6 3.6 1.6 3.6 3.6c-.1 2-1.7 3.6-3.6 3.6zM405.9 70.2c-2 0-3.6-1.6-3.6-3.6s1.6-3.6 3.6-3.6 3.6 1.6 3.6 3.6-1.7 3.6-3.6 3.6zM455.1 70.2c-2 0-3.6-1.6-3.6-3.6s1.6-3.6 3.6-3.6 3.6 1.6 3.6 3.6-1.6 3.6-3.6 3.6zM504.3 70.2c-2 0-3.6-1.6-3.6-3.6s1.6-3.6 3.6-3.6 3.6 1.6 3.6 3.6-1.6 3.6-3.6 3.6zM553.6 70.2c-2 0-3.6-1.6-3.6-3.6s1.6-3.6 3.6-3.6 3.6 1.6 3.6 3.6c-.1 2-1.7 3.6-3.6 3.6zM602.8 70.2c-2 0-3.6-1.6-3.6-3.6s1.6-3.6 3.6-3.6 3.6 1.6 3.6 3.6-1.6 3.6-3.6 3.6zM652 70.2c-2 0-3.6-1.6-3.6-3.6S650 63 652 63s3.6 1.6 3.6 3.6-1.6 3.6-3.6 3.6zM701.2 70.2c-2 0-3.6-1.6-3.6-3.6s1.6-3.6 3.6-3.6 3.6 1.6 3.6 3.6-1.6 3.6-3.6 3.6zM750.5 70.2c-2 0-3.6-1.6-3.6-3.6s1.6-3.6 3.6-3.6 3.6 1.6 3.6 3.6c-.1 2-1.7 3.6-3.6 3.6zM799.7 70.2c-2 0-3.6-1.6-3.6-3.6s1.6-3.6 3.6-3.6 3.6 1.6 3.6 3.6-1.6 3.6-3.6 3.6zM848.9 70.2c-2 0-3.6-1.6-3.6-3.6s1.6-3.6 3.6-3.6 3.6 1.6 3.6 3.6-1.6 3.6-3.6 3.6zM898.1 70.2c-2 0-3.6-1.6-3.6-3.6s1.6-3.6 3.6-3.6 3.6 1.6 3.6 3.6-1.6 3.6-3.6 3.6zM947.4 70.2c-2 0-3.6-1.6-3.6-3.6s1.6-3.6 3.6-3.6 3.6 1.6 3.6 3.6c-.1 2-1.7 3.6-3.6 3.6zM996.6 70.2c-2 0-3.6-1.6-3.6-3.6s1.6-3.6 3.6-3.6 3.6 1.6 3.6 3.6-1.6 3.6-3.6 3.6zM237 90.8c-2 0-3.6-1.6-3.6-3.6s1.6-3.6 3.6-3.6 3.6 1.6 3.6 3.6c-.1 2-1.7 3.6-3.6 3.6zM286.2 90.8c-2 0-3.6-1.6-3.6-3.6s1.6-3.6 3.6-3.6 3.6 1.6 3.6 3.6c-.1 2-1.7 3.6-3.6 3.6zM335.4 90.8c-2 0-3.6-1.6-3.6-3.6s1.6-3.6 3.6-3.6 3.6 1.6 3.6 3.6-1.6 3.6-3.6 3.6zM384.6 90.8c-2 0-3.6-1.6-3.6-3.6s1.6-3.6 3.6-3.6 3.6 1.6 3.6 3.6-1.6 3.6-3.6 3.6zM433.9 90.8c-2 0-3.6-1.6-3.6-3.6s1.6-3.6 3.6-3.6 3.6 1.6 3.6 3.6c-.1 2-1.7 3.6-3.6 3.6zM483.1 90.8c-2 0-3.6-1.6-3.6-3.6s1.6-3.6 3.6-3.6 3.6 1.6 3.6 3.6c-.1 2-1.7 3.6-3.6 3.6zM532.3 90.8c-2 0-3.6-1.6-3.6-3.6s1.6-3.6 3.6-3.6 3.6 1.6 3.6 3.6-1.6 3.6-3.6 3.6zM581.5 90.8c-2 0-3.6-1.6-3.6-3.6s1.6-3.6 3.6-3.6 3.6 1.6 3.6 3.6-1.6 3.6-3.6 3.6zM630.8 90.8c-2 0-3.6-1.6-3.6-3.6s1.6-3.6 3.6-3.6 3.6 1.6 3.6 3.6c-.1 2-1.7 3.6-3.6 3.6zM680 90.8c-2 0-3.6-1.6-3.6-3.6s1.6-3.6 3.6-3.6 3.6 1.6 3.6 3.6-1.7 3.6-3.6 3.6zM729.2 90.8c-2 0-3.6-1.6-3.6-3.6s1.6-3.6 3.6-3.6 3.6 1.6 3.6 3.6-1.6 3.6-3.6 3.6zM778.4 90.8c-2 0-3.6-1.6-3.6-3.6s1.6-3.6 3.6-3.6 3.6 1.6 3.6 3.6-1.6 3.6-3.6 3.6zM827.7 90.8c-2 0-3.6-1.6-3.6-3.6s1.6-3.6 3.6-3.6 3.6 1.6 3.6 3.6c-.1 2-1.7 3.6-3.6 3.6zM876.9 90.8c-2 0-3.6-1.6-3.6-3.6s1.6-3.6 3.6-3.6 3.6 1.6 3.6 3.6-1.6 3.6-3.6 3.6zM926.1 90.8c-2 0-3.6-1.6-3.6-3.6s1.6-3.6 3.6-3.6 3.6 1.6 3.6 3.6-1.6 3.6-3.6 3.6zM975.3 90.8c-2 0-3.6-1.6-3.6-3.6s1.6-3.6 3.6-3.6 3.6 1.6 3.6 3.6-1.6 3.6-3.6 3.6zM1024.6 90.8c-2 0-3.6-1.6-3.6-3.6s1.6-3.6 3.6-3.6c.3 0 .6 0 .9.1v6.9c-.4.1-.7.2-.9.2zM264.9 111.4c-2 0-3.6-1.6-3.6-3.6s1.6-3.6 3.6-3.6 3.6 1.6 3.6 3.6-1.6 3.6-3.6 3.6zM314.1 111.4c-2 0-3.6-1.6-3.6-3.6s1.6-3.6 3.6-3.6 3.6 1.6 3.6 3.6-1.6 3.6-3.6 3.6zM363.4 111.4c-2 0-3.6-1.6-3.6-3.6s1.6-3.6 3.6-3.6 3.6 1.6 3.6 3.6c-.1 2-1.7 3.6-3.6 3.6zM412.6 111.4c-2 0-3.6-1.6-3.6-3.6s1.6-3.6 3.6-3.6 3.6 1.6 3.6 3.6-1.6 3.6-3.6 3.6zM461.8 111.4c-2 0-3.6-1.6-3.6-3.6s1.6-3.6 3.6-3.6 3.6 1.6 3.6 3.6-1.6 3.6-3.6 3.6zM511.1 111.4c-2 0-3.6-1.6-3.6-3.6s1.6-3.6 3.6-3.6 3.6 1.6 3.6 3.6c-.1 2-1.7 3.6-3.6 3.6zM560.3 111.4c-2 0-3.6-1.6-3.6-3.6s1.6-3.6 3.6-3.6 3.6 1.6 3.6 3.6c-.1 2-1.7 3.6-3.6 3.6zM609.5 111.4c-2 0-3.6-1.6-3.6-3.6s1.6-3.6 3.6-3.6 3.6 1.6 3.6 3.6-1.6 3.6-3.6 3.6zM658.7 111.4c-2 0-3.6-1.6-3.6-3.6s1.6-3.6 3.6-3.6 3.6 1.6 3.6 3.6-1.6 3.6-3.6 3.6zM707.9 111.4c-2 0-3.6-1.6-3.6-3.6s1.6-3.6 3.6-3.6 3.6 1.6 3.6 3.6-1.6 3.6-3.6 3.6zM757.2 111.4c-2 0-3.6-1.6-3.6-3.6s1.6-3.6 3.6-3.6 3.6 1.6 3.6 3.6-1.7 3.6-3.6 3.6zM806.4 111.4c-2 0-3.6-1.6-3.6-3.6s1.6-3.6 3.6-3.6 3.6 1.6 3.6 3.6-1.6 3.6-3.6 3.6zM855.6 111.4c-2 0-3.6-1.6-3.6-3.6s1.6-3.6 3.6-3.6 3.6 1.6 3.6 3.6-1.6 3.6-3.6 3.6zM904.9 111.4c-2 0-3.6-1.6-3.6-3.6s1.6-3.6 3.6-3.6 3.6 1.6 3.6 3.6c-.1 2-1.7 3.6-3.6 3.6zM954.1 111.4c-2 0-3.6-1.6-3.6-3.6s1.6-3.6 3.6-3.6 3.6 1.6 3.6 3.6-1.6 3.6-3.6 3.6zM1003.3 111.4c-2 0-3.6-1.6-3.6-3.6s1.6-3.6 3.6-3.6 3.6 1.6 3.6 3.6-1.6 3.6-3.6 3.6zM243.7 132c-2 0-3.6-1.6-3.6-3.6s1.6-3.6 3.6-3.6 3.6 1.6 3.6 3.6c-.1 2-1.7 3.6-3.6 3.6zM292.9 132c-2 0-3.6-1.6-3.6-3.6s1.6-3.6 3.6-3.6 3.6 1.6 3.6 3.6-1.6 3.6-3.6 3.6zM342.1 132c-2 0-3.6-1.6-3.6-3.6s1.6-3.6 3.6-3.6 3.6 1.6 3.6 3.6-1.6 3.6-3.6 3.6zM391.3 132c-2 0-3.6-1.6-3.6-3.6s1.6-3.6 3.6-3.6 3.6 1.6 3.6 3.6-1.6 3.6-3.6 3.6zM440.6 132c-2 0-3.6-1.6-3.6-3.6s1.6-3.6 3.6-3.6 3.6 1.6 3.6 3.6c-.1 2-1.7 3.6-3.6 3.6zM489.8 132c-2 0-3.6-1.6-3.6-3.6s1.6-3.6 3.6-3.6 3.6 1.6 3.6 3.6-1.6 3.6-3.6 3.6zM539 132c-2 0-3.6-1.6-3.6-3.6s1.6-3.6 3.6-3.6 3.6 1.6 3.6 3.6-1.6 3.6-3.6 3.6zM588.2 132c-2 0-3.6-1.6-3.6-3.6s1.6-3.6 3.6-3.6 3.6 1.6 3.6 3.6-1.6 3.6-3.6 3.6zM637.5 132c-2 0-3.6-1.6-3.6-3.6s1.6-3.6 3.6-3.6 3.6 1.6 3.6 3.6c-.1 2-1.7 3.6-3.6 3.6zM686.7 132c-2 0-3.6-1.6-3.6-3.6s1.6-3.6 3.6-3.6 3.6 1.6 3.6 3.6-1.6 3.6-3.6 3.6zM735.9 132c-2 0-3.6-1.6-3.6-3.6s1.6-3.6 3.6-3.6 3.6 1.6 3.6 3.6-1.6 3.6-3.6 3.6zM785.2 132c-2 0-3.6-1.6-3.6-3.6s1.6-3.6 3.6-3.6 3.6 1.6 3.6 3.6c-.1 2-1.7 3.6-3.6 3.6zM834.4 132c-2 0-3.6-1.6-3.6-3.6s1.6-3.6 3.6-3.6 3.6 1.6 3.6 3.6-1.7 3.6-3.6 3.6zM883.6 132c-2 0-3.6-1.6-3.6-3.6s1.6-3.6 3.6-3.6 3.6 1.6 3.6 3.6-1.6 3.6-3.6 3.6zM932.8 132c-2 0-3.6-1.6-3.6-3.6s1.6-3.6 3.6-3.6 3.6 1.6 3.6 3.6-1.6 3.6-3.6 3.6zM982.1 132c-2 0-3.6-1.6-3.6-3.6s1.6-3.6 3.6-3.6 3.6 1.6 3.6 3.6c-.1 2-1.7 3.6-3.6 3.6zM1025.7 128.4c0 1.6.7 3 1.7 4v-8c-1 1.1-1.7 2.5-1.7 4zM271.6 152.6c-2 0-3.6-1.6-3.6-3.6s1.6-3.6 3.6-3.6 3.6 1.6 3.6 3.6-1.6 3.6-3.6 3.6zM320.9 152.6c-2 0-3.6-1.6-3.6-3.6s1.6-3.6 3.6-3.6 3.6 1.6 3.6 3.6c-.1 2-1.7 3.6-3.6 3.6zM370.1 152.6c-2 0-3.6-1.6-3.6-3.6s1.6-3.6 3.6-3.6 3.6 1.6 3.6 3.6-1.6 3.6-3.6 3.6zM419.3 152.6c-2 0-3.6-1.6-3.6-3.6s1.6-3.6 3.6-3.6 3.6 1.6 3.6 3.6-1.6 3.6-3.6 3.6zM468.5 152.6c-2 0-3.6-1.6-3.6-3.6s1.6-3.6 3.6-3.6 3.6 1.6 3.6 3.6-1.6 3.6-3.6 3.6zM517.8 152.6c-2 0-3.6-1.6-3.6-3.6s1.6-3.6 3.6-3.6 3.6 1.6 3.6 3.6c-.1 2-1.7 3.6-3.6 3.6zM567 152.6c-2 0-3.6-1.6-3.6-3.6s1.6-3.6 3.6-3.6 3.6 1.6 3.6 3.6-1.6 3.6-3.6 3.6zM616.2 152.6c-2 0-3.6-1.6-3.6-3.6s1.6-3.6 3.6-3.6 3.6 1.6 3.6 3.6-1.6 3.6-3.6 3.6zM665.4 152.6c-2 0-3.6-1.6-3.6-3.6s1.6-3.6 3.6-3.6 3.6 1.6 3.6 3.6-1.6 3.6-3.6 3.6zM714.7 152.6c-2 0-3.6-1.6-3.6-3.6s1.6-3.6 3.6-3.6 3.6 1.6 3.6 3.6c-.1 2-1.7 3.6-3.6 3.6zM763.9 152.6c-2 0-3.6-1.6-3.6-3.6s1.6-3.6 3.6-3.6 3.6 1.6 3.6 3.6-1.6 3.6-3.6 3.6zM813.1 152.6c-2 0-3.6-1.6-3.6-3.6s1.6-3.6 3.6-3.6 3.6 1.6 3.6 3.6-1.6 3.6-3.6 3.6zM862.4 152.6c-2 0-3.6-1.6-3.6-3.6s1.6-3.6 3.6-3.6 3.6 1.6 3.6 3.6c-.1 2-1.7 3.6-3.6 3.6zM911.6 152.6c-2 0-3.6-1.6-3.6-3.6s1.6-3.6 3.6-3.6 3.6 1.6 3.6 3.6-1.7 3.6-3.6 3.6zM960.8 152.6c-2 0-3.6-1.6-3.6-3.6s1.6-3.6 3.6-3.6 3.6 1.6 3.6 3.6-1.6 3.6-3.6 3.6zM1010 152.6c-2 0-3.6-1.6-3.6-3.6s1.6-3.6 3.6-3.6 3.6 1.6 3.6 3.6-1.6 3.6-3.6 3.6zM250.4 173.2c-2 0-3.6-1.6-3.6-3.6s1.6-3.6 3.6-3.6 3.6 1.6 3.6 3.6-1.6 3.6-3.6 3.6zM299.6 173.2c-2 0-3.6-1.6-3.6-3.6s1.6-3.6 3.6-3.6 3.6 1.6 3.6 3.6-1.6 3.6-3.6 3.6zM348.8 173.2c-2 0-3.6-1.6-3.6-3.6s1.6-3.6 3.6-3.6 3.6 1.6 3.6 3.6-1.6 3.6-3.6 3.6zM398.1 173.2c-2 0-3.6-1.6-3.6-3.6s1.6-3.6 3.6-3.6 3.6 1.6 3.6 3.6c-.1 2-1.7 3.6-3.6 3.6zM447.3 173.2c-2 0-3.6-1.6-3.6-3.6s1.6-3.6 3.6-3.6 3.6 1.6 3.6 3.6-1.6 3.6-3.6 3.6zM496.5 173.2c-2 0-3.6-1.6-3.6-3.6s1.6-3.6 3.6-3.6 3.6 1.6 3.6 3.6-1.6 3.6-3.6 3.6zM545.7 173.2c-2 0-3.6-1.6-3.6-3.6s1.6-3.6 3.6-3.6 3.6 1.6 3.6 3.6-1.6 3.6-3.6 3.6zM595 173.2c-2 0-3.6-1.6-3.6-3.6s1.6-3.6 3.6-3.6 3.6 1.6 3.6 3.6c-.1 2-1.7 3.6-3.6 3.6zM644.2 173.2c-2 0-3.6-1.6-3.6-3.6s1.6-3.6 3.6-3.6 3.6 1.6 3.6 3.6-1.6 3.6-3.6 3.6zM693.4 173.2c-2 0-3.6-1.6-3.6-3.6s1.6-3.6 3.6-3.6 3.6 1.6 3.6 3.6-1.6 3.6-3.6 3.6zM742.7 173.2c-2 0-3.6-1.6-3.6-3.6s1.6-3.6 3.6-3.6 3.6 1.6 3.6 3.6c-.1 2-1.7 3.6-3.6 3.6zM791.9 173.2c-2 0-3.6-1.6-3.6-3.6s1.6-3.6 3.6-3.6 3.6 1.6 3.6 3.6c-.1 2-1.7 3.6-3.6 3.6zM841.1 173.2c-2 0-3.6-1.6-3.6-3.6s1.6-3.6 3.6-3.6 3.6 1.6 3.6 3.6-1.6 3.6-3.6 3.6zM890.3 173.2c-2 0-3.6-1.6-3.6-3.6s1.6-3.6 3.6-3.6 3.6 1.6 3.6 3.6-1.6 3.6-3.6 3.6zM939.6 173.2c-2 0-3.6-1.6-3.6-3.6s1.6-3.6 3.6-3.6 3.6 1.6 3.6 3.6c-.1 2-1.7 3.6-3.6 3.6zM988.8 173.2c-2 0-3.6-1.6-3.6-3.6s1.6-3.6 3.6-3.6 3.6 1.6 3.6 3.6c-.1 2-1.7 3.6-3.6 3.6zM234.7 190.3c0-2.4-1.5-4.4-3.5-5.2v10.3c2-.8 3.5-2.8 3.5-5.1zM278.4 193.9c-2 0-3.6-1.6-3.6-3.6s1.6-3.6 3.6-3.6 3.6 1.6 3.6 3.6c-.1 2-1.7 3.6-3.6 3.6zM327.6 193.9c-2 0-3.6-1.6-3.6-3.6s1.6-3.6 3.6-3.6 3.6 1.6 3.6 3.6-1.6 3.6-3.6 3.6zM376.8 193.9c-2 0-3.6-1.6-3.6-3.6s1.6-3.6 3.6-3.6 3.6 1.6 3.6 3.6-1.6 3.6-3.6 3.6zM426 193.9c-2 0-3.6-1.6-3.6-3.6s1.6-3.6 3.6-3.6 3.6 1.6 3.6 3.6-1.6 3.6-3.6 3.6zM475.3 193.9c-2 0-3.6-1.6-3.6-3.6s1.6-3.6 3.6-3.6 3.6 1.6 3.6 3.6c-.1 2-1.7 3.6-3.6 3.6zM524.5 193.9c-2 0-3.6-1.6-3.6-3.6s1.6-3.6 3.6-3.6 3.6 1.6 3.6 3.6-1.6 3.6-3.6 3.6zM573.7 193.9c-2 0-3.6-1.6-3.6-3.6s1.6-3.6 3.6-3.6 3.6 1.6 3.6 3.6-1.6 3.6-3.6 3.6zM622.9 193.9c-2 0-3.6-1.6-3.6-3.6s1.6-3.6 3.6-3.6 3.6 1.6 3.6 3.6-1.6 3.6-3.6 3.6zM672.2 193.9c-2 0-3.6-1.6-3.6-3.6s1.6-3.6 3.6-3.6 3.6 1.6 3.6 3.6c-.1 2-1.7 3.6-3.6 3.6zM721.4 193.9c-2 0-3.6-1.6-3.6-3.6s1.6-3.6 3.6-3.6 3.6 1.6 3.6 3.6-1.6 3.6-3.6 3.6zM770.6 193.9c-2 0-3.6-1.6-3.6-3.6s1.6-3.6 3.6-3.6 3.6 1.6 3.6 3.6-1.6 3.6-3.6 3.6zM819.8 193.9c-2 0-3.6-1.6-3.6-3.6s1.6-3.6 3.6-3.6 3.6 1.6 3.6 3.6-1.6 3.6-3.6 3.6zM869.1 193.9c-2 0-3.6-1.6-3.6-3.6s1.6-3.6 3.6-3.6 3.6 1.6 3.6 3.6c-.1 2-1.7 3.6-3.6 3.6zM918.3 193.9c-2 0-3.6-1.6-3.6-3.6s1.6-3.6 3.6-3.6 3.6 1.6 3.6 3.6-1.6 3.6-3.6 3.6zM967.5 193.9c-2 0-3.6-1.6-3.6-3.6s1.6-3.6 3.6-3.6 3.6 1.6 3.6 3.6-1.6 3.6-3.6 3.6zM1016.7 193.9c-2 0-3.6-1.6-3.6-3.6s1.6-3.6 3.6-3.6 3.6 1.6 3.6 3.6-1.6 3.6-3.6 3.6zM257.1 214.5c-2 0-3.6-1.6-3.6-3.6s1.6-3.6 3.6-3.6 3.6 1.6 3.6 3.6-1.6 3.6-3.6 3.6zM306.3 214.5c-2 0-3.6-1.6-3.6-3.6s1.6-3.6 3.6-3.6 3.6 1.6 3.6 3.6-1.6 3.6-3.6 3.6zM355.6 214.5c-2 0-3.6-1.6-3.6-3.6s1.6-3.6 3.6-3.6 3.6 1.6 3.6 3.6c-.1 2-1.7 3.6-3.6 3.6zM404.8 214.5c-2 0-3.6-1.6-3.6-3.6s1.6-3.6 3.6-3.6 3.6 1.6 3.6 3.6-1.6 3.6-3.6 3.6zM454 214.5c-2 0-3.6-1.6-3.6-3.6s1.6-3.6 3.6-3.6 3.6 1.6 3.6 3.6-1.6 3.6-3.6 3.6zM503.2 214.5c-2 0-3.6-1.6-3.6-3.6s1.6-3.6 3.6-3.6 3.6 1.6 3.6 3.6-1.6 3.6-3.6 3.6zM552.5 214.5c-2 0-3.6-1.6-3.6-3.6s1.6-3.6 3.6-3.6 3.6 1.6 3.6 3.6c-.1 2-1.7 3.6-3.6 3.6zM601.7 214.5c-2 0-3.6-1.6-3.6-3.6s1.6-3.6 3.6-3.6 3.6 1.6 3.6 3.6-1.6 3.6-3.6 3.6zM650.9 214.5c-2 0-3.6-1.6-3.6-3.6s1.6-3.6 3.6-3.6 3.6 1.6 3.6 3.6-1.6 3.6-3.6 3.6zM700.1 214.5c-2 0-3.6-1.6-3.6-3.6s1.6-3.6 3.6-3.6 3.6 1.6 3.6 3.6-1.6 3.6-3.6 3.6zM749.4 214.5c-2 0-3.6-1.6-3.6-3.6s1.6-3.6 3.6-3.6 3.6 1.6 3.6 3.6c-.1 2-1.7 3.6-3.6 3.6zM798.6 214.5c-2 0-3.6-1.6-3.6-3.6s1.6-3.6 3.6-3.6 3.6 1.6 3.6 3.6-1.6 3.6-3.6 3.6zM847.8 214.5c-2 0-3.6-1.6-3.6-3.6s1.6-3.6 3.6-3.6 3.6 1.6 3.6 3.6-1.6 3.6-3.6 3.6zM897 214.5c-2 0-3.6-1.6-3.6-3.6s1.6-3.6 3.6-3.6 3.6 1.6 3.6 3.6-1.6 3.6-3.6 3.6zM946.3 214.5c-2 0-3.6-1.6-3.6-3.6s1.6-3.6 3.6-3.6 3.6 1.6 3.6 3.6c-.1 2-1.7 3.6-3.6 3.6zM995.5 214.5c-2 0-3.6-1.6-3.6-3.6s1.6-3.6 3.6-3.6 3.6 1.6 3.6 3.6-1.6 3.6-3.6 3.6zM235.9 235.1c-1 0-2-.4-2.7-1.2v-4.7c.7-.8 1.6-1.2 2.7-1.2 2 0 3.6 1.6 3.6 3.6-.1 1.9-1.7 3.5-3.6 3.5zM285.1 235.1c-2 0-3.6-1.6-3.6-3.6s1.6-3.6 3.6-3.6 3.6 1.6 3.6 3.6-1.6 3.6-3.6 3.6zM334.3 235.1c-2 0-3.6-1.6-3.6-3.6s1.6-3.6 3.6-3.6 3.6 1.6 3.6 3.6-1.6 3.6-3.6 3.6zM383.5 235.1c-2 0-3.6-1.6-3.6-3.6s1.6-3.6 3.6-3.6 3.6 1.6 3.6 3.6-1.6 3.6-3.6 3.6zM432.8 235.1c-2 0-3.6-1.6-3.6-3.6s1.6-3.6 3.6-3.6 3.6 1.6 3.6 3.6c-.1 2-1.7 3.6-3.6 3.6zM482 235.1c-2 0-3.6-1.6-3.6-3.6s1.6-3.6 3.6-3.6 3.6 1.6 3.6 3.6-1.6 3.6-3.6 3.6zM531.2 235.1c-2 0-3.6-1.6-3.6-3.6s1.6-3.6 3.6-3.6 3.6 1.6 3.6 3.6-1.6 3.6-3.6 3.6zM580.4 235.1c-2 0-3.6-1.6-3.6-3.6s1.6-3.6 3.6-3.6 3.6 1.6 3.6 3.6-1.6 3.6-3.6 3.6zM629.7 235.1c-2 0-3.6-1.6-3.6-3.6s1.6-3.6 3.6-3.6 3.6 1.6 3.6 3.6c-.1 2-1.7 3.6-3.6 3.6zM678.9 235.1c-2 0-3.6-1.6-3.6-3.6s1.6-3.6 3.6-3.6 3.6 1.6 3.6 3.6-1.6 3.6-3.6 3.6zM728.1 235.1c-2 0-3.6-1.6-3.6-3.6s1.6-3.6 3.6-3.6 3.6 1.6 3.6 3.6-1.6 3.6-3.6 3.6zM777.3 235.1c-2 0-3.6-1.6-3.6-3.6s1.6-3.6 3.6-3.6 3.6 1.6 3.6 3.6-1.6 3.6-3.6 3.6zM826.6 235.1c-2 0-3.6-1.6-3.6-3.6s1.6-3.6 3.6-3.6 3.6 1.6 3.6 3.6c-.1 2-1.7 3.6-3.6 3.6zM875.8 235.1c-2 0-3.6-1.6-3.6-3.6s1.6-3.6 3.6-3.6 3.6 1.6 3.6 3.6-1.6 3.6-3.6 3.6zM925 235.1c-2 0-3.6-1.6-3.6-3.6s1.6-3.6 3.6-3.6 3.6 1.6 3.6 3.6-1.6 3.6-3.6 3.6zM974.2 235.1c-2 0-3.6-1.6-3.6-3.6s1.6-3.6 3.6-3.6 3.6 1.6 3.6 3.6-1.6 3.6-3.6 3.6zM1023.5 235.1c-2 0-3.6-1.6-3.6-3.6s1.6-3.6 3.6-3.6c.7 0 1.4.2 1.9.6v6c-.6.4-1.2.6-1.9.6zM263.8 255.7c-2 0-3.6-1.6-3.6-3.6s1.6-3.6 3.6-3.6 3.6 1.6 3.6 3.6-1.6 3.6-3.6 3.6zM313.1 255.7c-2 0-3.6-1.6-3.6-3.6s1.6-3.6 3.6-3.6 3.6 1.6 3.6 3.6c-.1 2-1.7 3.6-3.6 3.6zM362.3 255.7c-2 0-3.6-1.6-3.6-3.6s1.6-3.6 3.6-3.6 3.6 1.6 3.6 3.6-1.6 3.6-3.6 3.6zM411.5 255.7c-2 0-3.6-1.6-3.6-3.6s1.6-3.6 3.6-3.6 3.6 1.6 3.6 3.6-1.6 3.6-3.6 3.6zM460.7 255.7c-2 0-3.6-1.6-3.6-3.6s1.6-3.6 3.6-3.6 3.6 1.6 3.6 3.6-1.6 3.6-3.6 3.6zM510 255.7c-2 0-3.6-1.6-3.6-3.6s1.6-3.6 3.6-3.6 3.6 1.6 3.6 3.6c-.1 2-1.7 3.6-3.6 3.6zM559.2 255.7c-2 0-3.6-1.6-3.6-3.6s1.6-3.6 3.6-3.6 3.6 1.6 3.6 3.6-1.6 3.6-3.6 3.6zM608.4 255.7c-2 0-3.6-1.6-3.6-3.6s1.6-3.6 3.6-3.6 3.6 1.6 3.6 3.6-1.6 3.6-3.6 3.6zM657.6 255.7c-2 0-3.6-1.6-3.6-3.6s1.6-3.6 3.6-3.6 3.6 1.6 3.6 3.6-1.6 3.6-3.6 3.6zM706.9 255.7c-2 0-3.6-1.6-3.6-3.6s1.6-3.6 3.6-3.6 3.6 1.6 3.6 3.6c-.1 2-1.7 3.6-3.6 3.6zM756.1 255.7c-2 0-3.6-1.6-3.6-3.6s1.6-3.6 3.6-3.6 3.6 1.6 3.6 3.6-1.6 3.6-3.6 3.6zM805.3 255.7c-2 0-3.6-1.6-3.6-3.6s1.6-3.6 3.6-3.6 3.6 1.6 3.6 3.6-1.6 3.6-3.6 3.6zM854.5 255.7c-2 0-3.6-1.6-3.6-3.6s1.6-3.6 3.6-3.6 3.6 1.6 3.6 3.6-1.6 3.6-3.6 3.6zM903.8 255.7c-2 0-3.6-1.6-3.6-3.6s1.6-3.6 3.6-3.6 3.6 1.6 3.6 3.6c-.1 2-1.7 3.6-3.6 3.6zM953 255.7c-2 0-3.6-1.6-3.6-3.6s1.6-3.6 3.6-3.6 3.6 1.6 3.6 3.6-1.6 3.6-3.6 3.6zM1002.2 255.7c-2 0-3.6-1.6-3.6-3.6s1.6-3.6 3.6-3.6 3.6 1.6 3.6 3.6-1.6 3.6-3.6 3.6zM242.6 276.3c-2 0-3.6-1.6-3.6-3.6s1.6-3.6 3.6-3.6 3.6 1.6 3.6 3.6-1.6 3.6-3.6 3.6zM291.8 276.3c-2 0-3.6-1.6-3.6-3.6s1.6-3.6 3.6-3.6 3.6 1.6 3.6 3.6-1.6 3.6-3.6 3.6zM341 276.3c-2 0-3.6-1.6-3.6-3.6s1.6-3.6 3.6-3.6 3.6 1.6 3.6 3.6-1.6 3.6-3.6 3.6zM390.3 276.3c-2 0-3.6-1.6-3.6-3.6s1.6-3.6 3.6-3.6 3.6 1.6 3.6 3.6c-.1 2-1.7 3.6-3.6 3.6zM439.5 276.3c-2 0-3.6-1.6-3.6-3.6s1.6-3.6 3.6-3.6 3.6 1.6 3.6 3.6-1.6 3.6-3.6 3.6zM488.7 276.3c-2 0-3.6-1.6-3.6-3.6s1.6-3.6 3.6-3.6 3.6 1.6 3.6 3.6-1.6 3.6-3.6 3.6zM537.9 276.3c-2 0-3.6-1.6-3.6-3.6s1.6-3.6 3.6-3.6 3.6 1.6 3.6 3.6-1.6 3.6-3.6 3.6zM587.2 276.3c-2 0-3.6-1.6-3.6-3.6s1.6-3.6 3.6-3.6 3.6 1.6 3.6 3.6c-.1 2-1.7 3.6-3.6 3.6zM636.4 276.3c-2 0-3.6-1.6-3.6-3.6s1.6-3.6 3.6-3.6 3.6 1.6 3.6 3.6-1.6 3.6-3.6 3.6zM685.6 276.3c-2 0-3.6-1.6-3.6-3.6s1.6-3.6 3.6-3.6 3.6 1.6 3.6 3.6-1.6 3.6-3.6 3.6zM734.8 276.3c-2 0-3.6-1.6-3.6-3.6s1.6-3.6 3.6-3.6 3.6 1.6 3.6 3.6-1.6 3.6-3.6 3.6zM784.1 276.3c-2 0-3.6-1.6-3.6-3.6s1.6-3.6 3.6-3.6 3.6 1.6 3.6 3.6c-.1 2-1.7 3.6-3.6 3.6zM833.3 276.3c-2 0-3.6-1.6-3.6-3.6s1.6-3.6 3.6-3.6 3.6 1.6 3.6 3.6-1.6 3.6-3.6 3.6zM882.5 276.3c-2 0-3.6-1.6-3.6-3.6s1.6-3.6 3.6-3.6 3.6 1.6 3.6 3.6-1.6 3.6-3.6 3.6zM931.7 276.3c-2 0-3.6-1.6-3.6-3.6s1.6-3.6 3.6-3.6 3.6 1.6 3.6 3.6-1.6 3.6-3.6 3.6zM981 276.3c-2 0-3.6-1.6-3.6-3.6s1.6-3.6 3.6-3.6 3.6 1.6 3.6 3.6c-.1 2-1.7 3.6-3.6 3.6zM1024.6 272.8c0 2.1 1.1 3.8 2.8 4.8V268c-1.6.9-2.8 2.7-2.8 4.8zM270.6 296.9c-2 0-3.6-1.6-3.6-3.6s1.6-3.6 3.6-3.6 3.6 1.6 3.6 3.6c-.1 2-1.7 3.6-3.6 3.6zM319.8 296.9c-2 0-3.6-1.6-3.6-3.6s1.6-3.6 3.6-3.6 3.6 1.6 3.6 3.6-1.6 3.6-3.6 3.6zM369 296.9c-2 0-3.6-1.6-3.6-3.6s1.6-3.6 3.6-3.6 3.6 1.6 3.6 3.6-1.6 3.6-3.6 3.6zM418.2 296.9c-2 0-3.6-1.6-3.6-3.6s1.6-3.6 3.6-3.6 3.6 1.6 3.6 3.6-1.6 3.6-3.6 3.6zM467.5 296.9c-2 0-3.6-1.6-3.6-3.6s1.6-3.6 3.6-3.6 3.6 1.6 3.6 3.6c-.1 2-1.7 3.6-3.6 3.6zM516.7 296.9c-2 0-3.6-1.6-3.6-3.6s1.6-3.6 3.6-3.6 3.6 1.6 3.6 3.6-1.6 3.6-3.6 3.6zM565.9 296.9c-2 0-3.6-1.6-3.6-3.6s1.6-3.6 3.6-3.6 3.6 1.6 3.6 3.6-1.6 3.6-3.6 3.6zM615.1 296.9c-2 0-3.6-1.6-3.6-3.6s1.6-3.6 3.6-3.6 3.6 1.6 3.6 3.6-1.6 3.6-3.6 3.6zM664.4 296.9c-2 0-3.6-1.6-3.6-3.6s1.6-3.6 3.6-3.6 3.6 1.6 3.6 3.6c-.1 2-1.7 3.6-3.6 3.6zM713.6 296.9c-2 0-3.6-1.6-3.6-3.6s1.6-3.6 3.6-3.6 3.6 1.6 3.6 3.6-1.6 3.6-3.6 3.6zM762.8 296.9c-2 0-3.6-1.6-3.6-3.6s1.6-3.6 3.6-3.6 3.6 1.6 3.6 3.6-1.6 3.6-3.6 3.6zM812 296.9c-2 0-3.6-1.6-3.6-3.6s1.6-3.6 3.6-3.6 3.6 1.6 3.6 3.6-1.6 3.6-3.6 3.6zM861.3 296.9c-2 0-3.6-1.6-3.6-3.6s1.6-3.6 3.6-3.6 3.6 1.6 3.6 3.6c-.1 2-1.7 3.6-3.6 3.6zM910.5 296.9c-2 0-3.6-1.6-3.6-3.6s1.6-3.6 3.6-3.6 3.6 1.6 3.6 3.6-1.6 3.6-3.6 3.6zM959.7 296.9c-2 0-3.6-1.6-3.6-3.6s1.6-3.6 3.6-3.6 3.6 1.6 3.6 3.6-1.6 3.6-3.6 3.6zM1008.9 296.9c-2 0-3.6-1.6-3.6-3.6s1.6-3.6 3.6-3.6 3.6 1.6 3.6 3.6-1.6 3.6-3.6 3.6zM249.3 317.6c-2 0-3.6-1.6-3.6-3.6s1.6-3.6 3.6-3.6 3.6 1.6 3.6 3.6-1.6 3.6-3.6 3.6zM298.5 317.6c-2 0-3.6-1.6-3.6-3.6s1.6-3.6 3.6-3.6 3.6 1.6 3.6 3.6-1.6 3.6-3.6 3.6zM347.8 317.6c-2 0-3.6-1.6-3.6-3.6s1.6-3.6 3.6-3.6 3.6 1.6 3.6 3.6c-.1 2-1.7 3.6-3.6 3.6zM397 317.6c-2 0-3.6-1.6-3.6-3.6s1.6-3.6 3.6-3.6 3.6 1.6 3.6 3.6c-.1 2-1.7 3.6-3.6 3.6zM446.2 317.6c-2 0-3.6-1.6-3.6-3.6s1.6-3.6 3.6-3.6 3.6 1.6 3.6 3.6-1.6 3.6-3.6 3.6zM495.4 317.6c-2 0-3.6-1.6-3.6-3.6s1.6-3.6 3.6-3.6 3.6 1.6 3.6 3.6-1.6 3.6-3.6 3.6zM544.7 317.6c-2 0-3.6-1.6-3.6-3.6s1.6-3.6 3.6-3.6 3.6 1.6 3.6 3.6c-.1 2-1.7 3.6-3.6 3.6zM593.9 317.6c-2 0-3.6-1.6-3.6-3.6s1.6-3.6 3.6-3.6 3.6 1.6 3.6 3.6-1.7 3.6-3.6 3.6zM643.1 317.6c-2 0-3.6-1.6-3.6-3.6s1.6-3.6 3.6-3.6 3.6 1.6 3.6 3.6-1.6 3.6-3.6 3.6zM692.3 317.6c-2 0-3.6-1.6-3.6-3.6s1.6-3.6 3.6-3.6 3.6 1.6 3.6 3.6-1.6 3.6-3.6 3.6zM741.6 317.6c-2 0-3.6-1.6-3.6-3.6s1.6-3.6 3.6-3.6 3.6 1.6 3.6 3.6c-.1 2-1.7 3.6-3.6 3.6zM790.8 317.6c-2 0-3.6-1.6-3.6-3.6s1.6-3.6 3.6-3.6 3.6 1.6 3.6 3.6-1.6 3.6-3.6 3.6zM840 317.6c-2 0-3.6-1.6-3.6-3.6s1.6-3.6 3.6-3.6 3.6 1.6 3.6 3.6-1.6 3.6-3.6 3.6zM889.2 317.6c-2 0-3.6-1.6-3.6-3.6s1.6-3.6 3.6-3.6 3.6 1.6 3.6 3.6-1.6 3.6-3.6 3.6zM938.5 317.6c-2 0-3.6-1.6-3.6-3.6s1.6-3.6 3.6-3.6 3.6 1.6 3.6 3.6c-.1 2-1.7 3.6-3.6 3.6zM987.7 317.6c-2 0-3.6-1.6-3.6-3.6s1.6-3.6 3.6-3.6 3.6 1.6 3.6 3.6-1.6 3.6-3.6 3.6zM233.6 334.6c0-1.9-1-3.6-2.4-4.6v9.2c1.5-1 2.4-2.7 2.4-4.6zM277.3 338.2c-2 0-3.6-1.6-3.6-3.6s1.6-3.6 3.6-3.6 3.6 1.6 3.6 3.6c-.1 2-1.7 3.6-3.6 3.6zM326.5 338.2c-2 0-3.6-1.6-3.6-3.6s1.6-3.6 3.6-3.6 3.6 1.6 3.6 3.6-1.6 3.6-3.6 3.6zM375.7 338.2c-2 0-3.6-1.6-3.6-3.6s1.6-3.6 3.6-3.6 3.6 1.6 3.6 3.6-1.6 3.6-3.6 3.6zM425 338.2c-2 0-3.6-1.6-3.6-3.6s1.6-3.6 3.6-3.6 3.6 1.6 3.6 3.6c-.1 2-1.7 3.6-3.6 3.6zM474.2 338.2c-2 0-3.6-1.6-3.6-3.6s1.6-3.6 3.6-3.6 3.6 1.6 3.6 3.6c-.1 2-1.7 3.6-3.6 3.6zM523.4 338.2c-2 0-3.6-1.6-3.6-3.6s1.6-3.6 3.6-3.6 3.6 1.6 3.6 3.6-1.6 3.6-3.6 3.6zM572.6 338.2c-2 0-3.6-1.6-3.6-3.6s1.6-3.6 3.6-3.6 3.6 1.6 3.6 3.6-1.6 3.6-3.6 3.6zM621.9 338.2c-2 0-3.6-1.6-3.6-3.6s1.6-3.6 3.6-3.6 3.6 1.6 3.6 3.6c-.1 2-1.7 3.6-3.6 3.6zM671.1 338.2c-2 0-3.6-1.6-3.6-3.6s1.6-3.6 3.6-3.6 3.6 1.6 3.6 3.6c-.1 2-1.7 3.6-3.6 3.6zM720.3 338.2c-2 0-3.6-1.6-3.6-3.6s1.6-3.6 3.6-3.6 3.6 1.6 3.6 3.6-1.6 3.6-3.6 3.6zM769.5 338.2c-2 0-3.6-1.6-3.6-3.6s1.6-3.6 3.6-3.6 3.6 1.6 3.6 3.6-1.6 3.6-3.6 3.6zM818.8 338.2c-2 0-3.6-1.6-3.6-3.6s1.6-3.6 3.6-3.6 3.6 1.6 3.6 3.6c-.1 2-1.7 3.6-3.6 3.6zM868 338.2c-2 0-3.6-1.6-3.6-3.6s1.6-3.6 3.6-3.6 3.6 1.6 3.6 3.6-1.6 3.6-3.6 3.6zM917.2 338.2c-2 0-3.6-1.6-3.6-3.6s1.6-3.6 3.6-3.6 3.6 1.6 3.6 3.6-1.6 3.6-3.6 3.6zM966.4 338.2c-2 0-3.6-1.6-3.6-3.6s1.6-3.6 3.6-3.6 3.6 1.6 3.6 3.6-1.6 3.6-3.6 3.6zM1015.7 338.2c-2 0-3.6-1.6-3.6-3.6s1.6-3.6 3.6-3.6 3.6 1.6 3.6 3.6c-.1 2-1.7 3.6-3.6 3.6zM256 358.8c-2 0-3.6-1.6-3.6-3.6s1.6-3.6 3.6-3.6 3.6 1.6 3.6 3.6-1.6 3.6-3.6 3.6zM305.2 358.8c-2 0-3.6-1.6-3.6-3.6s1.6-3.6 3.6-3.6 3.6 1.6 3.6 3.6-1.6 3.6-3.6 3.6zM354.5 358.8c-2 0-3.6-1.6-3.6-3.6s1.6-3.6 3.6-3.6 3.6 1.6 3.6 3.6c-.1 2-1.7 3.6-3.6 3.6zM403.7 358.8c-2 0-3.6-1.6-3.6-3.6s1.6-3.6 3.6-3.6 3.6 1.6 3.6 3.6-1.6 3.6-3.6 3.6zM452.9 358.8c-2 0-3.6-1.6-3.6-3.6s1.6-3.6 3.6-3.6 3.6 1.6 3.6 3.6-1.6 3.6-3.6 3.6zM502.2 358.8c-2 0-3.6-1.6-3.6-3.6s1.6-3.6 3.6-3.6 3.6 1.6 3.6 3.6c-.1 2-1.7 3.6-3.6 3.6zM551.4 358.8c-2 0-3.6-1.6-3.6-3.6s1.6-3.6 3.6-3.6 3.6 1.6 3.6 3.6c-.1 2-1.7 3.6-3.6 3.6zM600.6 358.8c-2 0-3.6-1.6-3.6-3.6s1.6-3.6 3.6-3.6 3.6 1.6 3.6 3.6-1.6 3.6-3.6 3.6zM649.8 358.8c-2 0-3.6-1.6-3.6-3.6s1.6-3.6 3.6-3.6 3.6 1.6 3.6 3.6-1.6 3.6-3.6 3.6zM699.1 358.8c-2 0-3.6-1.6-3.6-3.6s1.6-3.6 3.6-3.6 3.6 1.6 3.6 3.6c-.1 2-1.7 3.6-3.6 3.6zM748.3 358.8c-2 0-3.6-1.6-3.6-3.6s1.6-3.6 3.6-3.6 3.6 1.6 3.6 3.6c-.1 2-1.7 3.6-3.6 3.6zM797.5 358.8c-2 0-3.6-1.6-3.6-3.6s1.6-3.6 3.6-3.6 3.6 1.6 3.6 3.6-1.6 3.6-3.6 3.6zM846.7 358.8c-2 0-3.6-1.6-3.6-3.6s1.6-3.6 3.6-3.6 3.6 1.6 3.6 3.6-1.6 3.6-3.6 3.6zM896 358.8c-2 0-3.6-1.6-3.6-3.6s1.6-3.6 3.6-3.6 3.6 1.6 3.6 3.6c-.1 2-1.7 3.6-3.6 3.6zM945.2 358.8c-2 0-3.6-1.6-3.6-3.6s1.6-3.6 3.6-3.6 3.6 1.6 3.6 3.6-1.6 3.6-3.6 3.6zM994.4 358.8c-2 0-3.6-1.6-3.6-3.6s1.6-3.6 3.6-3.6 3.6 1.6 3.6 3.6-1.6 3.6-3.6 3.6zM234.8 379.4c-.6 0-1.2-.2-1.6-.4v-6.4c.4-.2 1-.4 1.6-.4 2 0 3.6 1.6 3.6 3.6-.1 2-1.7 3.6-3.6 3.6zM284 379.4c-2 0-3.6-1.6-3.6-3.6s1.6-3.6 3.6-3.6 3.6 1.6 3.6 3.6-1.6 3.6-3.6 3.6zM333.2 379.4c-2 0-3.6-1.6-3.6-3.6s1.6-3.6 3.6-3.6 3.6 1.6 3.6 3.6-1.6 3.6-3.6 3.6zM382.4 379.4c-2 0-3.6-1.6-3.6-3.6s1.6-3.6 3.6-3.6 3.6 1.6 3.6 3.6-1.6 3.6-3.6 3.6zM431.7 379.4c-2 0-3.6-1.6-3.6-3.6s1.6-3.6 3.6-3.6 3.6 1.6 3.6 3.6c-.1 2-1.7 3.6-3.6 3.6zM480.9 379.4c-2 0-3.6-1.6-3.6-3.6s1.6-3.6 3.6-3.6 3.6 1.6 3.6 3.6-1.6 3.6-3.6 3.6zM530.1 379.4c-2 0-3.6-1.6-3.6-3.6s1.6-3.6 3.6-3.6 3.6 1.6 3.6 3.6-1.6 3.6-3.6 3.6zM579.3 379.4c-2 0-3.6-1.6-3.6-3.6s1.6-3.6 3.6-3.6 3.6 1.6 3.6 3.6-1.6 3.6-3.6 3.6zM628.6 379.4c-2 0-3.6-1.6-3.6-3.6s1.6-3.6 3.6-3.6 3.6 1.6 3.6 3.6c-.1 2-1.7 3.6-3.6 3.6zM677.8 379.4c-2 0-3.6-1.6-3.6-3.6s1.6-3.6 3.6-3.6 3.6 1.6 3.6 3.6-1.6 3.6-3.6 3.6zM727 379.4c-2 0-3.6-1.6-3.6-3.6s1.6-3.6 3.6-3.6 3.6 1.6 3.6 3.6-1.6 3.6-3.6 3.6zM776.2 379.4c-2 0-3.6-1.6-3.6-3.6s1.6-3.6 3.6-3.6 3.6 1.6 3.6 3.6-1.6 3.6-3.6 3.6zM825.5 379.4c-2 0-3.6-1.6-3.6-3.6s1.6-3.6 3.6-3.6 3.6 1.6 3.6 3.6-1.7 3.6-3.6 3.6zM874.7 379.4c-2 0-3.6-1.6-3.6-3.6s1.6-3.6 3.6-3.6 3.6 1.6 3.6 3.6-1.6 3.6-3.6 3.6zM923.9 379.4c-2 0-3.6-1.6-3.6-3.6s1.6-3.6 3.6-3.6 3.6 1.6 3.6 3.6-1.6 3.6-3.6 3.6zM973.2 379.4c-2 0-3.6-1.6-3.6-3.6s1.6-3.6 3.6-3.6 3.6 1.6 3.6 3.6c-.1 2-1.7 3.6-3.6 3.6zM1022.4 379.4c-2 0-3.6-1.6-3.6-3.6s1.6-3.6 3.6-3.6c1.3 0 2.4.6 3 1.7v3.7c-.6 1.2-1.8 1.8-3 1.8zM262.7 400c-2 0-3.6-1.6-3.6-3.6s1.6-3.6 3.6-3.6 3.6 1.6 3.6 3.6-1.6 3.6-3.6 3.6zM312 400c-2 0-3.6-1.6-3.6-3.6s1.6-3.6 3.6-3.6 3.6 1.6 3.6 3.6c-.1 2-1.7 3.6-3.6 3.6zM361.2 400c-2 0-3.6-1.6-3.6-3.6s1.6-3.6 3.6-3.6 3.6 1.6 3.6 3.6-1.6 3.6-3.6 3.6zM410.4 400c-2 0-3.6-1.6-3.6-3.6s1.6-3.6 3.6-3.6 3.6 1.6 3.6 3.6-1.6 3.6-3.6 3.6zM459.6 400c-2 0-3.6-1.6-3.6-3.6s1.6-3.6 3.6-3.6 3.6 1.6 3.6 3.6-1.6 3.6-3.6 3.6zM508.9 400c-2 0-3.6-1.6-3.6-3.6s1.6-3.6 3.6-3.6 3.6 1.6 3.6 3.6c-.1 2-1.7 3.6-3.6 3.6zM558.1 400c-2 0-3.6-1.6-3.6-3.6s1.6-3.6 3.6-3.6 3.6 1.6 3.6 3.6-1.6 3.6-3.6 3.6zM607.3 400c-2 0-3.6-1.6-3.6-3.6s1.6-3.6 3.6-3.6 3.6 1.6 3.6 3.6-1.6 3.6-3.6 3.6zM656.5 400c-2 0-3.6-1.6-3.6-3.6s1.6-3.6 3.6-3.6 3.6 1.6 3.6 3.6-1.6 3.6-3.6 3.6zM705.8 400c-2 0-3.6-1.6-3.6-3.6s1.6-3.6 3.6-3.6 3.6 1.6 3.6 3.6c-.1 2-1.7 3.6-3.6 3.6zM755 400c-2 0-3.6-1.6-3.6-3.6s1.6-3.6 3.6-3.6 3.6 1.6 3.6 3.6-1.6 3.6-3.6 3.6zM804.2 400c-2 0-3.6-1.6-3.6-3.6s1.6-3.6 3.6-3.6 3.6 1.6 3.6 3.6-1.6 3.6-3.6 3.6zM853.5 400c-2 0-3.6-1.6-3.6-3.6s1.6-3.6 3.6-3.6 3.6 1.6 3.6 3.6c-.1 2-1.7 3.6-3.6 3.6zM902.7 400c-2 0-3.6-1.6-3.6-3.6s1.6-3.6 3.6-3.6 3.6 1.6 3.6 3.6c-.1 2-1.7 3.6-3.6 3.6zM951.9 400c-2 0-3.6-1.6-3.6-3.6s1.6-3.6 3.6-3.6 3.6 1.6 3.6 3.6-1.6 3.6-3.6 3.6zM1001.1 400c-2 0-3.6-1.6-3.6-3.6s1.6-3.6 3.6-3.6 3.6 1.6 3.6 3.6-1.6 3.6-3.6 3.6zM241.5 420.6c-2 0-3.6-1.6-3.6-3.6s1.6-3.6 3.6-3.6 3.6 1.6 3.6 3.6-1.6 3.6-3.6 3.6zM290.7 420.6c-2 0-3.6-1.6-3.6-3.6s1.6-3.6 3.6-3.6 3.6 1.6 3.6 3.6-1.6 3.6-3.6 3.6zM339.9 420.6c-2 0-3.6-1.6-3.6-3.6s1.6-3.6 3.6-3.6 3.6 1.6 3.6 3.6-1.6 3.6-3.6 3.6zM389.2 420.6c-2 0-3.6-1.6-3.6-3.6s1.6-3.6 3.6-3.6 3.6 1.6 3.6 3.6-1.7 3.6-3.6 3.6zM438.4 420.6c-2 0-3.6-1.6-3.6-3.6s1.6-3.6 3.6-3.6 3.6 1.6 3.6 3.6-1.6 3.6-3.6 3.6zM487.6 420.6c-2 0-3.6-1.6-3.6-3.6s1.6-3.6 3.6-3.6 3.6 1.6 3.6 3.6-1.6 3.6-3.6 3.6zM536.8 420.6c-2 0-3.6-1.6-3.6-3.6s1.6-3.6 3.6-3.6 3.6 1.6 3.6 3.6-1.6 3.6-3.6 3.6zM586.1 420.6c-2 0-3.6-1.6-3.6-3.6s1.6-3.6 3.6-3.6 3.6 1.6 3.6 3.6-1.7 3.6-3.6 3.6zM635.3 420.6c-2 0-3.6-1.6-3.6-3.6s1.6-3.6 3.6-3.6 3.6 1.6 3.6 3.6-1.6 3.6-3.6 3.6zM684.5 420.6c-2 0-3.6-1.6-3.6-3.6s1.6-3.6 3.6-3.6 3.6 1.6 3.6 3.6-1.6 3.6-3.6 3.6zM733.7 420.6c-2 0-3.6-1.6-3.6-3.6s1.6-3.6 3.6-3.6 3.6 1.6 3.6 3.6-1.6 3.6-3.6 3.6zM783 420.6c-2 0-3.6-1.6-3.6-3.6s1.6-3.6 3.6-3.6 3.6 1.6 3.6 3.6-1.7 3.6-3.6 3.6zM832.2 420.6c-2 0-3.6-1.6-3.6-3.6s1.6-3.6 3.6-3.6 3.6 1.6 3.6 3.6-1.6 3.6-3.6 3.6zM881.4 420.6c-2 0-3.6-1.6-3.6-3.6s1.6-3.6 3.6-3.6 3.6 1.6 3.6 3.6-1.6 3.6-3.6 3.6zM930.7 420.6c-2 0-3.6-1.6-3.6-3.6s1.6-3.6 3.6-3.6 3.6 1.6 3.6 3.6-1.7 3.6-3.6 3.6zM979.9 420.6c-2 0-3.6-1.6-3.6-3.6s1.6-3.6 3.6-3.6 3.6 1.6 3.6 3.6-1.7 3.6-3.6 3.6zM1023.5 417.1c0 2.5 1.6 4.6 3.9 5.3v-10.6c-2.2.7-3.9 2.8-3.9 5.3zM269.5 441.3c-2 0-3.6-1.6-3.6-3.6s1.6-3.6 3.6-3.6 3.6 1.6 3.6 3.6c-.1 2-1.7 3.6-3.6 3.6zM318.7 441.3c-2 0-3.6-1.6-3.6-3.6s1.6-3.6 3.6-3.6 3.6 1.6 3.6 3.6-1.6 3.6-3.6 3.6zM367.9 441.3c-2 0-3.6-1.6-3.6-3.6s1.6-3.6 3.6-3.6 3.6 1.6 3.6 3.6-1.6 3.6-3.6 3.6zM417.1 441.3c-2 0-3.6-1.6-3.6-3.6s1.6-3.6 3.6-3.6 3.6 1.6 3.6 3.6-1.6 3.6-3.6 3.6zM466.4 441.3c-2 0-3.6-1.6-3.6-3.6s1.6-3.6 3.6-3.6 3.6 1.6 3.6 3.6c-.1 2-1.7 3.6-3.6 3.6zM515.6 441.3c-2 0-3.6-1.6-3.6-3.6s1.6-3.6 3.6-3.6 3.6 1.6 3.6 3.6-1.6 3.6-3.6 3.6zM564.8 441.3c-2 0-3.6-1.6-3.6-3.6s1.6-3.6 3.6-3.6 3.6 1.6 3.6 3.6-1.6 3.6-3.6 3.6zM614 441.3c-2 0-3.6-1.6-3.6-3.6s1.6-3.6 3.6-3.6 3.6 1.6 3.6 3.6-1.6 3.6-3.6 3.6zM663.3 441.3c-2 0-3.6-1.6-3.6-3.6s1.6-3.6 3.6-3.6 3.6 1.6 3.6 3.6c-.1 2-1.7 3.6-3.6 3.6zM712.5 441.3c-2 0-3.6-1.6-3.6-3.6s1.6-3.6 3.6-3.6 3.6 1.6 3.6 3.6-1.6 3.6-3.6 3.6zM761.7 441.3c-2 0-3.6-1.6-3.6-3.6s1.6-3.6 3.6-3.6 3.6 1.6 3.6 3.6-1.6 3.6-3.6 3.6zM810.9 441.3c-2 0-3.6-1.6-3.6-3.6s1.6-3.6 3.6-3.6 3.6 1.6 3.6 3.6-1.6 3.6-3.6 3.6zM860.2 441.3c-2 0-3.6-1.6-3.6-3.6s1.6-3.6 3.6-3.6 3.6 1.6 3.6 3.6c-.1 2-1.7 3.6-3.6 3.6zM909.4 441.3c-2 0-3.6-1.6-3.6-3.6s1.6-3.6 3.6-3.6 3.6 1.6 3.6 3.6-1.6 3.6-3.6 3.6zM958.6 441.3c-2 0-3.6-1.6-3.6-3.6s1.6-3.6 3.6-3.6 3.6 1.6 3.6 3.6-1.6 3.6-3.6 3.6zM1007.8 441.3c-2 0-3.6-1.6-3.6-3.6s1.6-3.6 3.6-3.6 3.6 1.6 3.6 3.6-1.6 3.6-3.6 3.6zM248.2 461.9c-2 0-3.6-1.6-3.6-3.6s1.6-3.6 3.6-3.6 3.6 1.6 3.6 3.6-1.6 3.6-3.6 3.6zM297.4 461.9c-2 0-3.6-1.6-3.6-3.6s1.6-3.6 3.6-3.6 3.6 1.6 3.6 3.6-1.6 3.6-3.6 3.6zM346.7 461.9c-2 0-3.6-1.6-3.6-3.6s1.6-3.6 3.6-3.6 3.6 1.6 3.6 3.6c-.1 2-1.7 3.6-3.6 3.6zM395.9 461.9c-2 0-3.6-1.6-3.6-3.6s1.6-3.6 3.6-3.6 3.6 1.6 3.6 3.6-1.6 3.6-3.6 3.6zM445.1 461.9c-2 0-3.6-1.6-3.6-3.6s1.6-3.6 3.6-3.6 3.6 1.6 3.6 3.6-1.6 3.6-3.6 3.6zM494.3 461.9c-2 0-3.6-1.6-3.6-3.6s1.6-3.6 3.6-3.6 3.6 1.6 3.6 3.6-1.6 3.6-3.6 3.6zM543.6 461.9c-2 0-3.6-1.6-3.6-3.6s1.6-3.6 3.6-3.6 3.6 1.6 3.6 3.6c-.1 2-1.7 3.6-3.6 3.6zM592.8 461.9c-2 0-3.6-1.6-3.6-3.6s1.6-3.6 3.6-3.6 3.6 1.6 3.6 3.6-1.6 3.6-3.6 3.6zM642 461.9c-2 0-3.6-1.6-3.6-3.6s1.6-3.6 3.6-3.6 3.6 1.6 3.6 3.6-1.6 3.6-3.6 3.6zM691.2 461.9c-2 0-3.6-1.6-3.6-3.6s1.6-3.6 3.6-3.6 3.6 1.6 3.6 3.6-1.6 3.6-3.6 3.6zM740.5 461.9c-2 0-3.6-1.6-3.6-3.6s1.6-3.6 3.6-3.6 3.6 1.6 3.6 3.6c-.1 2-1.7 3.6-3.6 3.6zM789.7 461.9c-2 0-3.6-1.6-3.6-3.6s1.6-3.6 3.6-3.6 3.6 1.6 3.6 3.6-1.6 3.6-3.6 3.6zM838.9 461.9c-2 0-3.6-1.6-3.6-3.6s1.6-3.6 3.6-3.6 3.6 1.6 3.6 3.6-1.6 3.6-3.6 3.6zM888.1 461.9c-2 0-3.6-1.6-3.6-3.6s1.6-3.6 3.6-3.6 3.6 1.6 3.6 3.6-1.6 3.6-3.6 3.6zM937.4 461.9c-2 0-3.6-1.6-3.6-3.6s1.6-3.6 3.6-3.6 3.6 1.6 3.6 3.6c-.1 2-1.7 3.6-3.6 3.6zM986.6 461.9c-2 0-3.6-1.6-3.6-3.6s1.6-3.6 3.6-3.6 3.6 1.6 3.6 3.6-1.6 3.6-3.6 3.6zM276.2 482.5c-2 0-3.6-1.6-3.6-3.6s1.6-3.6 3.6-3.6 3.6 1.6 3.6 3.6-1.6 3.6-3.6 3.6zM325.4 482.5c-2 0-3.6-1.6-3.6-3.6s1.6-3.6 3.6-3.6 3.6 1.6 3.6 3.6-1.6 3.6-3.6 3.6zM374.6 482.5c-2 0-3.6-1.6-3.6-3.6s1.6-3.6 3.6-3.6 3.6 1.6 3.6 3.6-1.6 3.6-3.6 3.6zM423.9 482.5c-2 0-3.6-1.6-3.6-3.6s1.6-3.6 3.6-3.6 3.6 1.6 3.6 3.6c-.1 2-1.7 3.6-3.6 3.6zM473.1 482.5c-2 0-3.6-1.6-3.6-3.6s1.6-3.6 3.6-3.6 3.6 1.6 3.6 3.6-1.6 3.6-3.6 3.6zM522.3 482.5c-2 0-3.6-1.6-3.6-3.6s1.6-3.6 3.6-3.6 3.6 1.6 3.6 3.6-1.6 3.6-3.6 3.6zM571.5 482.5c-2 0-3.6-1.6-3.6-3.6s1.6-3.6 3.6-3.6 3.6 1.6 3.6 3.6-1.6 3.6-3.6 3.6zM620.8 482.5c-2 0-3.6-1.6-3.6-3.6s1.6-3.6 3.6-3.6 3.6 1.6 3.6 3.6c-.1 2-1.7 3.6-3.6 3.6zM670 482.5c-2 0-3.6-1.6-3.6-3.6s1.6-3.6 3.6-3.6 3.6 1.6 3.6 3.6-1.6 3.6-3.6 3.6zM719.2 482.5c-2 0-3.6-1.6-3.6-3.6s1.6-3.6 3.6-3.6 3.6 1.6 3.6 3.6-1.6 3.6-3.6 3.6zM768.4 482.5c-2 0-3.6-1.6-3.6-3.6s1.6-3.6 3.6-3.6 3.6 1.6 3.6 3.6-1.6 3.6-3.6 3.6zM817.7 482.5c-2 0-3.6-1.6-3.6-3.6s1.6-3.6 3.6-3.6 3.6 1.6 3.6 3.6c-.1 2-1.7 3.6-3.6 3.6zM866.9 482.5c-2 0-3.6-1.6-3.6-3.6s1.6-3.6 3.6-3.6 3.6 1.6 3.6 3.6-1.6 3.6-3.6 3.6zM916.1 482.5c-2 0-3.6-1.6-3.6-3.6s1.6-3.6 3.6-3.6 3.6 1.6 3.6 3.6-1.6 3.6-3.6 3.6zM965.3 482.5c-2 0-3.6-1.6-3.6-3.6s1.6-3.6 3.6-3.6 3.6 1.6 3.6 3.6-1.6 3.6-3.6 3.6zM1014.6 482.5c-2 0-3.6-1.6-3.6-3.6s1.6-3.6 3.6-3.6 3.6 1.6 3.6 3.6c-.1 2-1.7 3.6-3.6 3.6zM254.9 503.1c-2 0-3.6-1.6-3.6-3.6s1.6-3.6 3.6-3.6 3.6 1.6 3.6 3.6-1.6 3.6-3.6 3.6zM304.2 503.1c-2 0-3.6-1.6-3.6-3.6s1.6-3.6 3.6-3.6 3.6 1.6 3.6 3.6c-.1 2-1.7 3.6-3.6 3.6zM353.4 503.1c-2 0-3.6-1.6-3.6-3.6s1.6-3.6 3.6-3.6 3.6 1.6 3.6 3.6-1.6 3.6-3.6 3.6zM402.6 503.1c-2 0-3.6-1.6-3.6-3.6s1.6-3.6 3.6-3.6 3.6 1.6 3.6 3.6-1.6 3.6-3.6 3.6zM451.8 503.1c-2 0-3.6-1.6-3.6-3.6s1.6-3.6 3.6-3.6 3.6 1.6 3.6 3.6-1.6 3.6-3.6 3.6zM501.1 503.1c-2 0-3.6-1.6-3.6-3.6s1.6-3.6 3.6-3.6 3.6 1.6 3.6 3.6c-.1 2-1.7 3.6-3.6 3.6zM550.3 503.1c-2 0-3.6-1.6-3.6-3.6s1.6-3.6 3.6-3.6 3.6 1.6 3.6 3.6-1.6 3.6-3.6 3.6zM599.5 503.1c-2 0-3.6-1.6-3.6-3.6s1.6-3.6 3.6-3.6 3.6 1.6 3.6 3.6-1.6 3.6-3.6 3.6zM648.7 503.1c-2 0-3.6-1.6-3.6-3.6s1.6-3.6 3.6-3.6 3.6 1.6 3.6 3.6-1.6 3.6-3.6 3.6zM698 503.1c-2 0-3.6-1.6-3.6-3.6s1.6-3.6 3.6-3.6 3.6 1.6 3.6 3.6c-.1 2-1.7 3.6-3.6 3.6zM747.2 503.1c-2 0-3.6-1.6-3.6-3.6s1.6-3.6 3.6-3.6 3.6 1.6 3.6 3.6-1.6 3.6-3.6 3.6zM796.4 503.1c-2 0-3.6-1.6-3.6-3.6s1.6-3.6 3.6-3.6 3.6 1.6 3.6 3.6-1.6 3.6-3.6 3.6zM845.6 503.1c-2 0-3.6-1.6-3.6-3.6s1.6-3.6 3.6-3.6 3.6 1.6 3.6 3.6-1.6 3.6-3.6 3.6zM894.9 503.1c-2 0-3.6-1.6-3.6-3.6s1.6-3.6 3.6-3.6 3.6 1.6 3.6 3.6c-.1 2-1.7 3.6-3.6 3.6zM944.1 503.1c-2 0-3.6-1.6-3.6-3.6s1.6-3.6 3.6-3.6 3.6 1.6 3.6 3.6-1.6 3.6-3.6 3.6zM993.3 503.1c-2 0-3.6-1.6-3.6-3.6s1.6-3.6 3.6-3.6 3.6 1.6 3.6 3.6-1.6 3.6-3.6 3.6z"/><circle class="st2" cx="551.3" cy="140.1" r=".5"/><g><path class="st3" d="M573.2-10.2v-14.6c0-3-2.1-6.8-4.5-6.8s-4.5 3.8-4.5 6.8v14.6h9zM591.2-10.2v-14.6c0-3-2.1-6.8-4.5-6.8s-4.5 3.8-4.5 6.8v14.6h9zM609.2-10.2v-14.6c0-3-2.1-6.8-4.5-6.8s-4.5 3.8-4.5 6.8v14.6h9zM627.2-10.2v-14.6c0-3-2.1-6.8-4.5-6.8s-4.5 3.8-4.5 6.8v14.6h9zM645.1-10.2v-14.6c0-3-2.1-6.8-4.5-6.8s-4.5 3.8-4.5 6.8v14.6h9zM663.1-10.2v-14.6c0-3-2.1-6.8-4.5-6.8s-4.5 3.8-4.5 6.8v14.6h9zM681.1-10.2v-14.6c0-3-2.1-6.8-4.5-6.8s-4.5 3.8-4.5 6.8v14.6h9z"/><path class="st3" d="M564.2-19.1H681v9H564.2z"/><path class="st3" d="M619.8-16.8h5.7V7.3h-5.7z"/><path class="st4" d="M618.1 0c0 .1.1.1 0 0 .1.1.1 126.8.1 154.7 0 3 2.1 6.8 4.5 6.8s4.5-3.8 4.5-6.8V.1l.1-.1h-9.2z"/></g><g><path class="st4" d="M756 78.8s1.4 9 .1 9.5c-.1 0-.3.1-.6.1h-22.9c-3.7-.4-.5-5.3-3.7-5.1-1.6.1-8.4 4-16.5 5.1-6.7 1-20.7 1.1-27.2-.7-5.4-1.5-5.5-8.5-4.3-12.1 2.3-6.6 12.9-9.2 21.3-11 6.9-1.5 19.7-10.1 15.4-34.8-4.3-24.7-3.3-46.7-3.3-46.7H766s-7.7 63.1-9 70.8c-1.2 6.6-.3 19.8-1 24.9z"/><path class="st4" d="M781.6 87s1.6 10.1.1 10.7c-.1 0-.4.1-.7.1h-25.9c-4.2-.4-.6-6-4.1-5.8-1.8.1-9.5 4.5-18.6 5.8-7.6 1.1-23.4 1.2-30.7-.8-6.1-1.7-6.2-9.7-4.9-13.6 2.6-7.5 14.6-10.4 24-12.4 7.8-1.7 22.3-11.5 17.4-39.4-4.9-27.9-3.8-52.8-3.8-52.8h58.5s-8.7 71.3-10.2 80c-1.3 7.5-.4 22.5-1.1 28.2z"/><path class="st0" d="M704.8 68.8c8.4-1.8 21.4-11.7 17-37.2-3.5-20-3.5-38.4-3.4-44.3H732v-2.1h-15.8c-.1 5.9-.1 24.3 3.4 44.3 4.5 25.5-8.6 35.4-17 37.2-6.6 1.4-17.8 3.8-19.8 9.6-.7 2-.8 5.2.3 7.3.5.9 1.1 1.5 2 1.9-1-2.1-.9-5.2-.2-7.1 2.1-5.8 13.2-8.2 19.9-9.6zM754.5 92.2c.3.9.4 1.8.4 2.2 0 .4 0 1.1.1 1.3 0 0 .1.1.2.1h1.8c-.2-1.2-.6-3.1-2.5-3.6z"/><path class="st0" d="M736.4-19.1v6.4c.1 9.6.7 26.2 3.8 44 5 28.6-9.5 39.7-19 41.8-7.6 1.6-20.2 4.4-22.5 11-.3.8-.5 1.8-.6 2.9-.1.7 0 1.3 0 2v.1c.1 1.2.4 2.4.9 3.5.5 1 1.2 1.7 2.1 2.2v-.1c-.8-1.6-1.1-3.6-.9-5.5l.3-2.1c.1-.3.2-.6.2-.8 2.3-6.7 15-9.4 22.5-11 9.4-2 24-13.1 19-41.8-3.4-19.2-3.9-37-3.8-46.1v-2.1-2.1-.1h51.8c.1-.8.2-1.5.3-2.1h-54.1z"/></g><g><path class="st3" d="M783.2 179.7c0-12.1-10-21.9-22.2-21.9-1 0-2 .1-2.9.2l-.2-2.9c0-3.4-9.8-6.2-22.4-6.7v-12.9c0-1.1-1.6-2-3.6-2s-3.6.9-3.6 2v12.9c-12.7.5-22.4 3.3-22.4 6.7l-2.1 32.5-21.8-18.7c2.9-5 2.5-11.1-1.3-14.6l-17.5 19.2c3.8 3.4 9.7 3.4 14.3.2l25 32.9-.9 14.1c0 3.2 13.6 5.9 30.3 5.9 16.7 0 30.3-2.6 30.3-5.9l-.4-6.8c11.2-2.2 21.4-22.9 21.4-34.2zm-21.9 28.7l-2.9-44.7c.8-.1 1.7-.2 2.6-.2 9.1 0 16.6 7.3 16.6 16.3-.1 8.3-7.8 26.3-16.3 28.6z"/><path class="st0" d="M761.5 209.1l-.2.1.1 1 .9-.2c9-2.4 16.8-21.2 16.8-29.5 0-4.8-2.1-9.2-5.4-12.3 2.8 3 4.6 7.1 4.6 11.5 0 8.2-7.8 27.1-16.8 29.4zM680.7 155.4l-16.4 18c.3.2.6.4 1 .6l16.2-17.7c-.3-.3-.6-.6-.8-.9zM705.1 190l2.2-34.2c0-2.5 8.7-5.5 21.6-5.9h.8v-13.7c0-.5 1.1-1.2 2.8-1.2.8 0 1.5.2 2 .4 0-.5-1.1-1.2-2.8-1.2-1.7 0-2.8.7-2.8 1.2v13.7h-.8c-12.9.5-21.6 3.4-21.6 5.9l-2.2 34.2-22.5-19.4v.1l23.3 20.1zM761 158.6c-.9 0-1.8.1-2.8.2h-.1l.1.9.9-.1c1-.1 1.9-.2 2.8-.2 5.8 0 11 2.3 14.8 5.9-4-4.1-9.6-6.7-15.7-6.7zM704 207.2l-25.6-33.8-.1.1 24.9 32.9-.9 14.3c0 .3.3.7.9 1 0-.1-.1-.2-.1-.2l.9-14.3zM736.2 150c10.3.4 17.9 2.3 20.6 4.3-1.5-2.3-9.7-4.7-21.4-5.1v.8h.8z"/></g><g><path class="st4" d="M419.3 271.8c-29.3 0-46 9.7-46 21.6h92c0-12-16.8-21.6-46-21.6z"/><path class="st4" d="M415.4 283.4s-.2-1.1-.5-3.1-.8-4.8-1.4-8.2c-.3-1.8-.6-3.7-.7-5.8-.2-2.1-.3-4.3-.2-6.7.1-2.3.4-4.8 1.1-7.2.7-2.5 1.7-4.8 3.2-7 .6-.9 1.4-1.9 2.2-2.9.8-.9 1.6-1.8 2.4-2.6 1.6-1.7 3.2-3.2 4.8-4.7 1.5-1.5 3-2.9 4.4-4.3 1.3-1.4 2.5-2.8 3.5-4.1 1-1.3 1.8-2.7 2.4-3.9.3-.6.6-1.2.8-1.7.2-.6.4-1.1.5-1.6.4-.9.4-1.7.6-2.2.1-.5.2-.8.2-.8s0 .3-.1.8 0 1.3-.3 2.3c-.1.5-.2 1.1-.3 1.7-.2.6-.4 1.2-.6 1.9-.5 1.3-1.1 2.8-2 4.4-.9 1.5-1.9 3.1-3.1 4.8-1.2 1.6-2.5 3.3-3.8 4.9-1.3 1.7-2.7 3.4-4 5.2-.7.9-1.3 1.8-1.9 2.7-.5.9-1.1 1.7-1.6 2.8l-.4.8-.1.1c0-.1-.1.2.1-.1l-.1.2-.1.4c-.2.5-.4.9-.5 1.4-.2 1-.5 1.9-.6 2.9-.3 2-.3 3.9-.1 5.9.2 1.9.5 3.8.9 5.6.4 1.8.9 3.5 1.4 5.1 1 3.3 1.9 6 2.5 7.9.6 2 .9 3.1.9 3.1l-9.5 2z"/><path class="st4" d="M417.3 245.2s0-.9-.1-2.6c0-.4 0-.9-.1-1.4 0-.4-.1-.9-.2-1.4-.1-1-.2-2.1-.5-3.4-.2-1.3-.5-2.7-.8-4.1-.3-1.5-.8-3-1.2-4.6-.9-3.2-2.1-6.6-3.2-10.1-.5-1.8-1.1-3.5-1.5-5.3-.5-1.8-.9-3.6-1.2-5.3-.3-1.8-.6-3.5-.7-5.1-.2-1.6-.2-3.2-.3-4.6-.1-1.4.1-2.7.1-3.9 0-1.2.2-2.1.3-3 .2-1.6.3-2.5.3-2.5s0 .9-.1 2.6c0 .8-.1 1.8 0 2.9.1 1.1 0 2.4.2 3.8s.3 2.9.7 4.4c.3 1.5.7 3.1 1.1 4.7.5 1.6 1 3.2 1.6 4.8.6 1.6 1.3 3.2 1.9 4.8 1.4 3.2 2.8 6.4 4.1 9.6.6 1.6 1.3 3.1 1.8 4.7.5 1.5 1 3 1.4 4.4.4 1.4.7 2.8 1 4 .1.6.2 1.2.4 1.8.1.5.1.9.2 1.3.2 1.6.3 2.5.3 2.5l-5.5 1z"/><path class="st3" d="M438.6 214.3s.8-6.9-1.9-11.2c-2.7-4.3-10-5.7-11.1-7 0 0 .5 10.2 2.7 12.8 1.8 2.2 6.2 6.1 8.5 5.8 0 0-5.4-6.6-5.5-10.1 0 .1 5.2 9.2 7.3 9.7zM442.2 219.7s26.6-7.3 19.7-30.7c0 0-2.7 2.1-8.9 5.1-6.2 3.1-14.4 7.9-12.3 24.9.2 1.8 6.4-16.6 13.4-19.8.1 0-12.4 18.6-11.9 20.5zM407.1 186.1s5.9-15.1-8.5-17.6c0 0 .1 1.9-.6 5.7-.7 3.9-1.1 9.2 8.2 12.4 1 .4-6.1-7.4-5.2-11.7 0 .1 5 11.1 6.1 11.2z"/><g><path class="st3" d="M410.9 191.6s5.7-1.6 8.2-5.2c2.5-3.5 1.2-9.8 1.8-11.1 0 0-7.9 3.7-9.2 6.4-1.1 2.2-2.8 6.9-1.8 8.6 0 0 3.4-6.4 6.2-7.7 0 .1-5.5 7.2-5.2 9z"/></g></g><g><path class="st4" d="M353.5 362.5c.9-6.6 4.5-29.2-5.4-30-6-.5-5.9 12.4-5.9 12.4s-10.1-27.7-14.6-32.8c-3.3-3.7-8.4-3.3-9.7 1.2-.7-1.8-1.3-3.1-1.8-3.8-3.3-4.3-10.9-3-10 5.3 0 .3.1.7.2 1.1-2.1-1.6-8.1-2.1-8.7 4.8-.2 2 .6 5 1.9 8.3-.1-.1-.3-.1-.4-.1-3-.3-6.7 1.1-5.5 7 1.2 5.9 10.7 26.9 15 32.6 4.3 5.7 4.9 7.6 6.6 12.4 1.4 4 6.4 18.4 8.6 23.5l42.1-17.9c-3.1-6.6-13.2-17.6-12.4-24z"/><path class="st4" d="M351.1 374.7c-2.9-6-13.5-26.3-4.4-30.1 5.5-2.4 9.5 9.9 9.5 9.9s.8-29.5 3.4-35.8c1.9-4.5 6.9-5.8 9.6-1.9.1-1.9.3-3.4.5-4.1 1.7-5.1 9.4-6.3 11.2 1.9.1.3.1.7.2 1.1 1.5-2.2 7.1-4.6 9.8 1.8.8 1.8 1 4.9.8 8.5.1-.1.2-.2.3-.2 2.7-1.2 6.7-1 7.4 4.9.7 6-1.7 28.9-3.9 35.6-2.3 6.8-2.3 8.7-2.3 13.9 0 4.3-.3 19.5-.7 25l-45.6-3.7c.9-7.3 7-21 4.2-26.8z"/><path class="st5" d="M394.7 325.9c-.7 0-1.5.2-2.3.5l-.1.1-.6.6-.1 1.7 1.5-1.5.1-.1c.7-.3 1.5-.5 2.3-.5.8 0 1.4.2 2 .6-.7-.9-1.6-1.4-2.8-1.4zM370.8 317.7c.1-2.4.3-3.5.5-3.9.7-2.1 2.6-3.5 4.6-3.5 1 0 1.9.3 2.7 1-.9-1.1-2.1-1.8-3.5-1.8-2 0-3.9 1.4-4.6 3.5-.2.4-.4 1.5-.5 3.9l-.1 2 .8 1.1.1-2.3zM382.6 316.9c.6-1 2.3-2 4-2 .9 0 1.7.3 2.5.9-.9-1.1-2-1.7-3.3-1.7-1.7 0-3.3 1-4 2l-.6.9.2 1.6 1.2-1.7zM357.8 355.3c0-.3.8-29.4 3.4-35.5 1-2.3 2.8-3.7 4.8-3.7.9 0 1.7.3 2.4.9-.9-1.1-2-1.7-3.2-1.7-2 0-3.8 1.5-4.8 3.7-2.6 6-3.4 35.2-3.4 35.5l-1.1.2.3.9 1.6-.3zM352.6 375.2l-.5-1c-2.8-5.7-9.3-18.9-6.9-25.2.5-1.3 1.4-2.3 2.6-2.8.4-.2.7-.2 1.1-.2.8 0 1.6.4 2.4 1.1-1-1.1-2.1-1.9-3.2-1.9-.4 0-.7.1-1.1.2-1.3.5-2.1 1.5-2.6 2.8-2.4 6.4 4.2 19.6 6.9 25.2l.5 1c2 4.1 0 11.2-1.9 18.1l1.2-.5c1.7-6.5 3.3-13 1.5-16.8zM319.5 314.3c.6-2 2.1-3.1 3.9-3.1 1.3 0 2.6.5 3.7 1.5 0 0 0-.1-.1-.1-1.2-1.4-2.9-2.2-4.4-2.2-1.9 0-3.3 1.2-3.9 3.1l-.5 1.5.6 1.5.7-2.2zM343.9 345.7c0-.1 0-7.9 2.7-10.7.6-.6 1.3-.9 2-.9h.3c1 .1 1.8.4 2.6 1-.9-1.1-2-1.7-3.4-1.8h-.3c-.8 0-1.4.3-2 .9-2.8 2.8-2.7 10.6-2.7 10.7l-1.1.2c.2.5.3.9.3.9l1.6-.3zM310.1 368.8c-4.3-5.8-13.7-26.6-14.8-32.2-.4-2.1-.2-3.7.6-4.7 1-1.2 2.5-1.3 3.3-1.3h.7l1.9 1-.8-2c-1.4-3.6-2-6.2-1.9-7.9.4-4.4 3-5.1 4.6-5.1 1.1 0 2.2.3 2.9.9l1.6 1.3-.3-2c-.1-.4-.1-.8-.2-1.1-.2-2.3.2-4.2 1.3-5.5.8-.9 1.9-1.4 3.2-1.4 1.1 0 2.2.4 3.2 1.1-1-1.2-2.5-1.9-4-1.9-1.2 0-2.4.5-3.2 1.4-1.1 1.2-1.6 3.1-1.3 5.5 0 .3.1.7.2 1.1l.3 2-1.6-1.3c-.7-.5-1.8-.9-2.9-.9-1.5 0-4.2.7-4.6 5.1-.1 1.7.5 4.4 1.9 7.9l.8 2-1.9-1h-.7c-.8 0-2.4.2-3.3 1.3-.8 1-1 2.6-.6 4.7 1.2 5.6 10.5 26.5 14.8 32.3 4.4 5.9 5.1 7.8 6.7 12.6 1.3 3.7 6 17.1 8.2 22.7l.4-.2c-2.4-6.1-6.7-18.2-7.8-21.7-1.7-4.8-2.3-6.8-6.7-12.7zM350.7 393.3l-1.2.5c-.7 2.6-1.3 5-1.7 7l.9.1c.4-2.2 1.1-4.7 1.9-7.4 0-.2.1-.2.1-.2zM350.8 392.9l-1.2.5c0 .1-.1.2-.1.3l1.2-.5c0-.1 0-.2.1-.3z"/><path class="st5" d="M351 392l-1.2.5v.1c-.1.3-.2.6-.2.9l1.2-.5c0-.4.1-.7.2-1z"/></g><g><path class="st6" d="M949.6 319.8c-3.1-3-10.6-5.4-16.2-5.8-5.6-.5-8.7-.8-11.6-.3-1.7.3-5.6 2-6.4 3-.8 1-1.4 2.5-.5 3.7.9 1.2 1.6 2.1 2.3 2.7.7.6 2.3 1.4 3.2 1.6.9.2 3.4.9 4.1 1.3.7.4 1.2 1 1.8 1.6.6.6 1.4 1.1 2.1 1.8.7.8 2 1.8 2.9 2.2.6.3 1.9.5 2.6.4.6-.1 1.3-.4 2-.9.4-.2 2.9-1.2 5.8-2.5 3.9-1.8 8.4-4.4 9.2-6.9v-.2c-.2-.5-1-1.4-1.3-1.7z"/><path class="st6" d="M950.7 321.6v.2c-.7 2.4-5.3 5-9.2 6.9-1.2 1.8-2.6 4.2-2.6 4.2s-1.4 3.5-1.3 4.9c.1 1.4.5 2.7 1 3.2.3.4.7.6.8.8.2.3.4.9.5 1.1.2.2.7.9 1.1 1.1.5.2.9.2 1 .3.2.2.9.8 1.1 1 .2.2.5.4.9.4.4.1.9-.2 1.4-.1.2 0 .6.1.8.2.2.1.4.3.9.3.4 0 .8 0 1.1-.1.3-.1.9-.4 1.2-.4.3 0 .6.1.8.1.3 0 .6-.1 1.1-.1.5 0 1-.4 1.4-.6.4-.2 1.5-.9 1.9-1.4.4-.5.9-1.1 1.2-1.7.3-.6.3-2.9 0-3.6-.2-.7-.4-3.5-.7-4.6-.2-1.1-1.3-4-1.3-4.5-.1-.5-.3-2-.5-2.6-.4-1.2-1.6-3.4-2.3-4.4.1-.2-.1-.4-.3-.6zM951.3 318.8c-1-4.2.5-11.9 2.8-17 2.3-5.2 3.6-8 5.4-10.3 1.1-1.4 4.4-3.9 5.7-4.1 1.3-.2 2.9 0 3.5 1.4.6 1.4 1.1 2.4 1.2 3.3.2.9.1 2.7-.2 3.6-.2.9-.9 3.4-.8 4.2.1.8.3 1.5.5 2.3.3.8.2 1.7.6 2.8.3 1 .6 2.7.5 3.6-.1.6-.5 1.9-.9 2.4-.3.4-1 .9-1.7 1.4-.4.3-2.5 2-5 3.8-3.5 2.5-8 5.2-10.5 4.6-.1 0-.1 0-.1-.1-.4-.4-.8-1.4-1-1.9z"/><path class="st6" d="M952.3 320.6s.1 0 .1.1c2.5.6 6.9-2.1 10.5-4.6 2.2-.2 5-.2 5-.2s3.7.5 4.9 1.3c1.1.8 2.1 1.7 2.3 2.4.1.5.2.9.3 1.1.1.3.6.8.7 1 .1.3.5 1.1.4 1.5-.1.5-.3.8-.2 1.1.1.2.3 1.1.3 1.5.1.3.1.6-.1 1-.1.4-.6.7-.8 1.2-.1.2-.2.5-.2.8 0 .2 0 .5-.2.9s-.4.7-.7.9c-.2.2-.8.6-.9.8-.1.2-.2.6-.3.8-.1.2-.4.5-.7.9-.3.4-.8.7-1.2.9-.3.2-1.5.8-2.1.9-.6.1-1.4.3-2.1.2-.7-.1-2.7-1.2-3.2-1.7s-2.8-2.1-3.7-2.8c-.9-.8-2.9-3-3.3-3.3-.4-.3-1.6-1.2-2.1-1.7-.8-.9-2.2-3-2.7-4.1.2-.4.1-.6 0-.9z"/><g><path class="st4" d="M952.4 320c-.3-.6-1.1-1.2-1.5-1.3-.4-.1-.3-.2-.2-.3 0-.1.1-.4-.1-.7-.1-.2-.5-.5-.7-.6-.2-.1-.3 0-.5-.2-.1-.2-.3-.2-.5-.1s-.3.3-.2.5c.1.2-.1.2-.1.5 0 .2 0 .7.2.9.2.3.5.4.6.4.1 0 .2-.1.1.3s.1 1.4.4 1.9c.3.5.9 1.6 1.3 2 .4.3.6.7.9 1.5.3.8.7 1.4 1.5 2.6.8 1.2 1.2 1.9 1.5 2.5.2.6 1.3 2.4 1.8 2.9s1.4 1.1 1.8.9c.4-.2.3-1.4.1-2-.2-.7-1.3-2.5-1.7-2.9-.4-.5-.8-1.2-1.5-2.5s-1-1.9-1.5-2.6c-.5-.6-.7-1.1-.8-1.5.1-.6-.6-1.6-.9-2.2z"/></g><g><path class="st4" d="M949.5 316.8c.2 0 .2.2.1 0 0-.1 0-.2-.1-.4-.1-.4-.1-.9-.2-1.3-.1-1.2-.2-2.5-.3-3.7-.2-1.9-.3-3.7-.4-5.6 0-.3-.5-.3-.4 0 .1 2.2.3 4.3.5 6.5.1 1.2.2 2.5.4 3.7 0 .3 0 1.3.4 1.3.3-.1.3-.5 0-.5zM948.8 317.2c-.1.2.1.2-.1.1-.1-.1-.2-.2-.3-.2-.3-.3-.7-.5-1.1-.8-1-.7-2-1.4-3.1-2.1-1.5-1-3.1-2.1-4.7-3.1-.2-.2 0-.5.2-.4l5.4 3.6 3 2.1c.2.2 1.1.6.9 1 0 .3-.4 0-.2-.2z"/></g></g><g><path class="st7" d="M821.9 188.2c-2.6-5.9.9-13.1 7.8-16.1 6.8-3 14.5-.6 17 5.3 2.6 5.9-.9 13.1-7.8 16.1-6.8 3-14.4.6-17-5.3z"/><path class="st7" d="M820 172.5c1.8 1.3 3.9 2.2 6 2.8 1.2.4 2-1.5.7-1.8-2-.6-3.9-1.3-5.6-2.6-.9-.7-2.1.9-1.1 1.6zM834.6 165.1c-.3 2.1-1 4-1.9 5.8-.6 1.1 1.3 1.9 1.8.7 1-2 1.8-4.1 2.1-6.3.1-1.2-1.8-1.4-2-.2z"/><path class="st7" d="M817.3 171.4c-.5-1.2 0-2.7 1.3-3.2 1.2-.5 2.7 0 3.2 1.3.5 1.2 0 2.7-1.3 3.2-1.2.5-2.6-.1-3.2-1.3z"/><circle class="st7" cx="835.4" cy="163.6" r="2.4"/><circle class="st0" cx="827.7" cy="179.5" r="1.3"/><path class="st0" d="M835.2 176.3c-.3-.7 0-1.5.7-1.8.7-.3 1.5 0 1.8.7.3.7 0 1.5-.7 1.8-.8.2-1.5-.1-1.8-.7z"/><path class="st8" d="M868.3 197.5c-6-13.8-21.3-20.5-34.1-14.9l23.6 49c11.4-6.3 16.2-21.1 10.5-34.1z"/><path class="st8" d="M821.7 217.7c5.7 13.1 19.7 19.7 32.1 15.6l-19.6-50.7c-12.9 5.6-18.5 21.3-12.5 35.1z"/><path class="st7" d="M853.8 233.3c.7-.2 1.4-.5 2-.8.7-.3 1.3-.6 2-1l-23.6-49 19.6 50.8zM851.8 190.1c1 2.2-.1 4.8-2.3 5.8-2.2 1-4.8-.1-5.8-2.3-1-2.2.1-4.8 2.3-5.8 2.2-1 4.8 0 5.8 2.3zM863.8 213.7c1 2.2-.1 4.8-2.3 5.8-2.2 1-4.8-.1-5.8-2.3-1-2.2.1-4.8 2.3-5.8 2.3-.9 4.8.1 5.8 2.3zM865 197.2c1 2.2-.1 4.8-2.3 5.8-2.2 1-4.8-.1-5.8-2.3-1-2.2.1-4.8 2.3-5.8 2.2-1 4.8.1 5.8 2.3z"/><circle class="st7" cx="831.6" cy="198.8" r="4.4"/><path class="st7" d="M836.6 225.5c1 2.2 3.6 3.3 5.8 2.3 2.2-1 3.3-3.6 2.3-5.8-1-2.2-3.6-3.3-5.8-2.3-2.2 1-3.3 3.6-2.3 5.8zM823.8 215c1 2.2 3.6 3.3 5.8 2.3 2.2-1 3.3-3.6 2.3-5.8-1-2.2-3.6-3.3-5.8-2.3-2.3 1-3.3 3.6-2.3 5.8z"/></g><g><path class="st4" d="M476.9 390.5c-2 0-48.6.2-48.6 15.5s46.6 15.5 48.6 15.5 48.6-.2 48.6-15.5c-.1-15.3-46.7-15.5-48.6-15.5zm0 8.4c26.1 0 38.3 5.2 40 7-1.7 1.8-13.9 7-40 7s-38.3-5.2-40-7c1.7-1.7 13.9-7 40-7z"/><path class="st0" d="M476.9 382.2c-2 0-48.6.2-48.6 15.5s46.6 15.5 48.6 15.5 48.6-.2 48.6-15.5c-.1-15.3-46.7-15.5-48.6-15.5zm0 8.5c26.1 0 38.3 5.2 40 7-1.7 1.8-13.9 7-40 7s-38.3-5.2-40-7c1.7-1.8 13.9-7 40-7z"/><path class="st4" d="M525.4 389.3c0 .3-.1.5-.1.7.1-.2.1-.5.1-.7zM525.3 390.1v-.1.1z"/><g><path class="st6" d="M448.3 347.1c-.5 2.9-.2 5.7.7 8.3l2.7-2.9c-.3-1.5-.3-3.1 0-4.7 1.3-7.1 8.1-11.8 15.2-10.5 2 .4 3.7 1.2 5.3 2.3l2.3-2.5c-2-1.5-4.3-2.6-7-3.1-9-1.8-17.6 4.2-19.2 13.1z"/><path class="st6" d="M440.9 344c-1.1 5.9.4 11.7 3.5 16.3l2.4-2.6c-2.4-3.8-3.4-8.4-2.6-13.1 1.9-10.1 11.5-16.8 21.6-15 4 .7 7.5 2.8 10.1 5.6l2.3-2.5c-3.1-3.2-7.1-5.5-11.8-6.4-11.9-2.1-23.3 5.8-25.5 17.7z"/></g><g><path class="st0" d="M476.9 406c-5.1 0-50-.5-50-16.9s44.9-16.9 50-16.9c.7 0 16.3 0 29.7 2.9-5.6-5.2-14.1-12.7-17.1-15.3l-1.6 1.7-19.4-12.8 15.8-17.4 14.6 18.1-1.4 1.5c3.7 3.5 16.4 15.6 21.2 19.9 3.2 2.9 5.2 5.6 6.5 7.3 1.7 2.4 2.5 5.2 2.5 8.2 0 2.6-.8 5.2-2.2 7.2-7 12.1-44.4 12.5-48.6 12.5zm-37.4-16.9c4 1.9 15.3 5.6 37.4 5.6 19 0 29.1-2.7 33.5-4.4 1.6-.6 2.6-1.1 3.3-1.5-1-.4-2.4-1-4.5-1.6-5.7-1.7-16-3.7-32.3-3.7-22.1-.1-33.5 3.6-37.4 5.6z"/><path class="st4" d="M524 378.9c-1.4-2.1-3.4-4.5-6.2-7.1-5.7-5-22.2-20.8-22.2-20.8l1.5-1.6-12.8-15.9-13.6 14.9 17.1 11.2 1.7-1.9s17.1 14.9 22 19.9c.4.4.7.7 1 1.1 4.2 4.6 5.5 8.2 3.3 10.3-.9.8-2.5 1.7-4.9 2.6-6.1 2.3-17.2 4.5-34 4.5-26.1 0-38.3-5.2-40-7 1.7-1.8 13.9-7 40-7 15.7 0 26.3 1.9 32.7 3.8 2.3.7 4.1 1.4 5.4 2 .1-1.6-.3-4.3-3.4-7.9-.3-.4-.7-.8-1.1-1.2-.5-.5-1.1-1.1-1.8-1.7-13.6-3.3-30.6-3.4-31.7-3.4-2 0-48.6.2-48.6 15.5s46.6 15.5 48.6 15.5c1.8 0 40.7-.2 47.5-11.8 1.2-1.7 1.9-4 1.9-6.4-.1-3-1-5.6-2.4-7.6z"/></g></g><g><path class="st6" d="M117.7 84.3c2.1-6.4 21-12.6 26.3-14.2-5.2-1.6-24.2-7.8-26.3-14.2-2.4-7.4 13.8-28 13.8-28s-24.6 9.1-30.9 4.5c-6.3-4.6-5.3-30.8-5.3-30.8S80.7 23.4 72.8 23.4C65 23.4 50.4 1.6 50.4 1.6s1 26.2-5.3 30.8c-6.3 4.6-30.9-4.5-30.9-4.5S30.4 48.6 28 56C25.9 62.4 7 68.6 1.7 70.2 7 71.8 25.9 77.9 28 84.3c2.4 7.4-13.8 28-13.8 28s24.6-9.1 30.9-4.5c6.3 4.6 5.3 30.8 5.3 30.8s14.6-21.8 22.4-21.8c7.8 0 22.4 21.8 22.4 21.8s-1-26.2 5.3-30.8c6.3-4.6 30.9 4.5 30.9 4.5s-16.1-20.5-13.7-28z"/><path class="st0" d="M72.8 29.7c-22.4 0-40.6 18.1-40.8 40.4.2 22.4 18.4 40.4 40.8 40.4s40.6-18.1 40.8-40.4c-.2-22.3-18.3-40.4-40.8-40.4z"/><path class="st6" d="M72.8 33.3c-20.4 0-37.1 16.5-37.3 36.9.2 20.4 16.9 36.9 37.3 36.9s37.1-16.5 37.3-36.9c-.2-20.4-16.8-36.9-37.3-36.9z"/></g><g><path class="st3" d="M944.9 132.2h4.2v39.4h-4.2z"/><path class="st4" d="M916.4 172.6c0-2.8 2.3-5 5-5h51.3c2.8 0 5 2.3 5 5v2.2c0 2.8-2.3 5-5 5h-51.3c-2.8 0-5-2.3-5-5v-2.2zM926.2 182.1h41.6l-5.6 30.4h-30.4z"/><g><path class="st4" d="M964.6 132.7c5.3-1.1 5.8-5.4 5.8-6.3 0-.9-.5-5.3-5.9-6.3-5.3-1.1-14.4 4.6-14.4 4.6v3.4c.1 0 9.2 5.7 14.5 4.6z"/><path class="st4" d="M961.3 114.5c1.7-5.1-1.9-7.7-2.7-8.1-.8-.4-4.9-2.2-8.4 1.8-3.6 4-3.1 14.6-3.1 14.6l1.5.8 1.5.8c0 .1 9.5-4.8 11.2-9.9z"/><path class="st4" d="M943.7 108.2c-3.6-4-7.7-2.3-8.5-1.8-.8.4-4.3 3.1-2.6 8.1 1.8 5.1 11.3 10 11.3 10l1.5-.8 1.5-.8c-.1-.1.4-10.7-3.2-14.7z"/><path class="st4" d="M929.4 120.1c-5.3 1.1-5.8 5.4-5.8 6.3 0 .9.5 5.3 5.9 6.3 5.3 1.1 14.4-4.6 14.4-4.6v-3.4c-.1.1-9.2-5.6-14.5-4.6z"/><path class="st4" d="M932.7 138.4c-1.7 5.1 1.9 7.7 2.7 8.1.8.4 4.9 2.2 8.4-1.8 3.6-4 3.1-14.6 3.1-14.6l-1.5-.8-1.5-.8c0-.1-9.5 4.8-11.2 9.9z"/><path class="st4" d="M950.3 144.6c3.6 4 7.7 2.3 8.5 1.8.8-.4 4.3-3.1 2.6-8.1-1.8-5.1-11.3-10-11.3-10l-1.5.8-1.5.8c.1.1-.4 10.7 3.2 14.7z"/><path class="st0" d="M947 121.1c3 0 5.4 2.4 5.5 5.4 0 3-2.4 5.4-5.4 5.4-3 0-5.4-2.4-5.5-5.4 0-3 2.4-5.4 5.4-5.4z"/></g><g><path class="st3" d="M965.6 152.8c-17.5-.8-16.9 9.1-17 10.3 1.2.5 9.7 5.6 17-10.3zM928.4 152.8c17.5-.8 16.9 9.1 17 10.3-1.2.5-9.7 5.6-17-10.3z"/></g></g><g><path class="st4" d="M607 354.1c-15.1 13.8-10.9 38.7-10.9 38.7h21.8s4.2-24.9-10.9-38.7z"/><path class="st0" d="M604.3 392.8v-3.5-.2c.1-2.6 1.3-5.1 2.7-5.1v8.7h-2.7z"/><path class="st4" d="M609.1 402.9v-13.7c0-1.4-1-5.2-2.1-5.2s-2.1 3.8-2.1 5.2v13.7h4.2z"/><path class="st3" d="M602.5 401.2v34.2c0 3 2.1 6.8 4.5 6.8s4.5-3.8 4.5-6.8v-34.2h-9z"/></g><g><path class="st4" d="M564.4 394.1c.1 1.8.2 3.4.2 3.9h12.6c0-.5.1-1.3.1-2.3.1-1.6 1.6-4.9 1.8-7 .2-2.1-.5-5.3-2.2-7.8-1.7-2.6-4.9-3.8-4.9-3.8V367s-4.7 1.9-7.2 5.6c-2.5 3.7-3.5 8.4-3.2 11.4.5 3 2.7 7.8 2.8 10.1z"/><path class="st3" d="M580.4 401.8c0-3.6-4.4-6.6-9.8-6.6s-9.8 2.9-9.8 6.6c0 1.8 1 3.4 2.7 4.5.1 7.7.8 20-2.9 26.9-2.8 5.3-3.2 6.7-2.6 7.5.5.8 5.8-.2 7.9-5.1 3.2-7.4 3.6-18.6 3.3-27.4.5 0 .9.1 1.4.1h.9v27.1c0 3 1.3 6.8 2.7 6.8 1.5 0 2.7-3.8 2.7-6.8v-28.7c2.2-1.1 3.5-2.9 3.5-4.9z"/><circle class="st0" cx="569.4" cy="399.5" r="1.7"/></g><g><path class="st4" d="M649.5 360.3c0-1.4-1-5.2-2.1-5.2s-2.1 3.8-2.1 5.2v12.5l-.4.4-5.5 6.6v-19.5c0-1.4-1-5.2-2.1-5.2s-2.1 3.8-2.1 5.2v19.4l-5.5-6.5c-.1-.1-.2-.3-.4-.4v-12.5c0-1.4-1-5.2-2.1-5.2s-2.1 3.8-2.1 5.2c0 0 0 12.8.2 13.7.2.9.8 1.6 1.2 2l8.7 10.4v15.8h4.2v-15.8l8.8-10.4c.3-.4.9-1.1 1.2-2 .2-.8.1-13.7.1-13.7z"/><path class="st3" d="M632.8 401.2v34.2c0 3 2.1 6.8 4.5 6.8s4.5-3.8 4.5-6.8v-34.2h-9z"/></g><g><path class="st4" d="M675.5 385.2c5.3 1.2 13.4-11.8 18-29.2s4.2-32.6-1.1-34.3l-16.9 63.5z"/><path class="st4" d="M676.7 385.2c-5.3 1.2-13.4-11.8-18-29.2s-4.2-32.6 1.1-34.3l16.9 63.5z"/><circle class="st4" cx="676.1" cy="385.9" r="5.4"/><path class="st4" d="M684.3 403.6l-3.5-13.2c-.4-1.4-2.3-4.8-3.4-4.5-1.1.3-1.1 4.2-.7 5.6l3.5 13.2 4.1-1.1zM667.8 403.6l3.5-13.2c.4-1.4 2.3-4.8 3.4-4.5 1.1.3 1.1 4.2.7 5.6l-3.5 13.2-4.1-1.1z"/><path class="st3" d="M677.5 403.7l8.9 33.1c.8 2.9 3.8 6 6.1 5.4 2.3-.6 3.4-4.9 2.6-7.7l-8.9-33.1-8.7 2.3zM674.7 403.7l-8.9 33.1c-.8 2.9-3.8 6-6.1 5.4-2.3-.6-3.4-4.9-2.6-7.7l8.9-33.1 8.7 2.3z"/><circle class="st9" cx="676.1" cy="385.9" r="1.2"/></g><g><path class="st3" d="M852.5 374.5c6.5-6 15.5-.7 18.7-.7 3.2 0 12.2-5.3 18.7.7 6.4 5.9 3.9 19.8 2.3 24.4-1.7 4.6-7.2 12.8-11.5 14.1-2.3.7-4.9-.8-9.5-.8s-7.2 1.5-9.5.8c-4.3-1.3-9.8-9.5-11.5-14.1-1.6-4.6-4.1-18.5 2.3-24.4z"/><path class="st4" d="M871.6 368.3s1.2-10.4-5.1-10.9c0 0-1.1.3-1.3 2.2 0 0 3.9 1.6 4.9 8.7h1.5z"/></g><g><path class="st4" d="M335.9 240.4c-2.4-4-5.1-8.8-5.1-8.8l-6.6-11.4-6.6 11.4s-1.3 2.3-5.1 8.8c-1.6 2.7-3.1 5.7-3.1 9.1 0 8.2 6.6 14.8 14.8 14.8 8.2 0 14.8-6.6 14.8-14.8.1-3.4-1.4-6.4-3.1-9.1z"/><path class="st0" d="M334.1 243.7c-1.1-1.8-2.3-3.9-2.3-3.9l-2.9-5.1-2.9 5.1s-.6 1-2.3 3.9c-.7 1.2-1.4 2.5-1.4 4.1 0 3.6 3 6.6 6.6 6.6 3.6 0 6.6-3 6.6-6.6 0-1.6-.7-2.9-1.4-4.1z"/><path class="st4" d="M353.1 220.8c-1.3-2.2-2.8-4.9-2.8-4.9l-3.6-6.3-3.6 6.3s-.7 1.3-2.8 4.9c-.9 1.5-1.7 3.1-1.7 5 0 4.5 3.7 8.2 8.2 8.2 4.5 0 8.2-3.7 8.2-8.2-.2-1.9-1-3.5-1.9-5z"/></g><g><path class="st4" d="M889.9 97.1c-3.6 3.7-8.5 6.1-15.3 7.3-6.8 1.2-11.1 4.4-13.2 6.8-2.1-2.3-7.7-6.5-14.5-8.6-6.8-2.1-9.3-2.8-11.9-4.6-3.3-2.4-5-7.1-5.3-10.2-.2-1.9-1.7-.8-1.8.6-.1 1.5 2 9.8 6.5 12.5 4.6 2.8 14.9 7.3 17.9 11.7 3.1 4.4 10.5 13.3.1 34.8h17.8c-10.4-21.5-4.2-31-1.1-35.4 3.1-4.4 15-5.6 18.8-10.3 4.2-5.3 2.6-5.2 2-4.6z"/></g><path class="st3" d="M903.8 73.5c-.4-.1-.7-.2-1-.4 2.8-5.7 3.1-11.6.1-15.9-3.7-5.5-11.4-7.2-19.7-5.2-2.8-10.3-11.4-17.8-21.5-17.8-7.8 0-14.7 4.4-18.7 11.2-10.3-2.4-19.7-.3-24.2 6.5-3.5 5.2-3.3 12.1-.2 18.9C804.1 72 793 80.3 793 90.3c0 10.9 13.2 19.7 29.4 19.7 13.9 0 25.5-6.4 28.6-15.1 1.8.3 3.6.5 5.3.5 3.4 1.8 7.7 2.8 12.4 2.8 1.4 0 2.8-.1 4.1-.3 3.8 5.2 10 9.9 17.8 12.6 15.3 5.5 30.7 1.6 34.3-8.6 3.6-10.2-5.8-22.9-21.1-28.4z"/><path class="st1" d="M231-97v614h800V-97H231zm780 574c0 11-9 20-20 20H271c-11 0-20-9-20-20V-57c0-11 9-20 20-20h720c11 0 20 9 20 20v534z"/></svg>