<svg id="bkg" xmlns="http://www.w3.org/2000/svg" viewBox="0 0 85.1 100.7"><style>.st0{fill:#55c16f}.st1{fill:#fff}</style><path class="st0" d="M0 0h85.1v100.7H0z"/><path class="st1" d="M66.9 46.7c1.1-3.4 11.4-6.6 14.2-7.4-2.8-.8-13.1-4.1-14.2-7.4-1.3-3.9 7.4-14.7 7.4-14.7S61 22 57.6 19.5c-3.4-2.4-2.9-16.2-2.9-16.2s-7.9 11.4-12.1 11.4c-4.2 0-12.1-11.4-12.1-11.4s.5 13.8-2.9 16.2C24.3 21.9 11 17.1 11 17.1s8.8 10.8 7.4 14.7C17.3 35.2 7 38.4 4.2 39.2c2.8.8 13.1 4.1 14.2 7.4 1.3 3.9-7.4 14.7-7.4 14.7s13.3-4.8 16.7-2.3c3.4 2.4 2.9 16.2 2.9 16.2s7.9-11.4 12.1-11.4c4.2 0 12.1 11.4 12.1 11.4s-.5-13.8 2.9-16.2c3.4-2.4 16.7 2.3 16.7 2.3s-8.8-10.7-7.5-14.6z"/><path class="st0" d="M42.7 18.1c-12.1 0-21.9 9.5-22.1 21.2.1 11.7 10 21.2 22.1 21.2 12.1 0 21.9-9.5 22.1-21.2-.2-11.8-10-21.2-22.1-21.2z"/><path class="st1" d="M42.7 19.9c-11 0-20 8.7-20.2 19.4.1 10.7 9.1 19.4 20.2 19.4 11 0 20-8.7 20.2-19.4-.2-10.7-9.2-19.4-20.2-19.4z"/><g><path class="st1" d="M16.4 87.1c0 1.2-.4 2.2-1.2 2.8-.8.7-1.9 1-3.4 1h-1.1V95H8.2V83.6H12c1.4 0 2.5.3 3.3.9.8.6 1.1 1.5 1.1 2.6zM10.7 89h.8c.8 0 1.4-.1 1.7-.4.4-.3.6-.7.6-1.3 0-.6-.2-1-.5-1.3s-.8-.4-1.5-.4h-1.1V89zM29.4 89.3c0 1.9-.5 3.3-1.5 4.4s-2.4 1.5-4.2 1.5-3.2-.5-4.2-1.5-1.5-2.5-1.5-4.4.5-3.4 1.5-4.4 2.4-1.5 4.2-1.5c1.8 0 3.2.5 4.2 1.5s1.5 2.5 1.5 4.4zm-8.6 0c0 1.3.3 2.2.8 2.9s1.3 1 2.3 1c2 0 3-1.3 3-3.9 0-2.6-1-3.9-3-3.9-1 0-1.8.3-2.3 1-.6.6-.8 1.6-.8 2.9zM30.5 93h.9c.8-1.5 1.4-3 1.9-4.5s.8-3.1 1-4.9h6.9V93h1.6v5.3h-2.4V95H33v3.3h-2.4V93zm5.8-7.4c-.2 1.2-.5 2.5-.9 3.8s-.9 2.5-1.4 3.6h4.6v-7.4h-2.3zM54.3 95h-2.5v-4.9h-4.7V95h-2.5V83.6h2.5v4.5h4.7v-4.5h2.5V95zM68.1 89.3c0 1.9-.5 3.3-1.5 4.4s-2.4 1.5-4.2 1.5c-1.8 0-3.2-.5-4.2-1.5s-1.5-2.5-1.5-4.4.5-3.4 1.5-4.4 2.4-1.5 4.2-1.5c1.8 0 3.2.5 4.2 1.5s1.5 2.5 1.5 4.4zm-8.7 0c0 1.3.3 2.2.8 2.9s1.3 1 2.3 1c2 0 3-1.3 3-3.9 0-2.6-1-3.9-3-3.9-1 0-1.8.3-2.3 1-.5.6-.8 1.6-.8 2.9zM77.4 95h-6.8V83.6h6.8v2H73v2.5h4v2h-4V93h4.3v2z"/></g></svg>