<?xml version="1.0" encoding="utf-8"?>
<!-- Generator: Adobe Illustrator 19.0.1, SVG Export Plug-In . SVG Version: 6.00 Build 0)  -->
<svg version="1.1" id="bkg" xmlns="http://www.w3.org/2000/svg" xmlns:xlink="http://www.w3.org/1999/xlink" x="0px" y="0px"
	 viewBox="0 0 144 138.7" style="enable-background:new 0 0 144 138.7;" xml:space="preserve">
<style type="text/css">
	.st0{fill:#F9FAE8;}
	.st1{fill:#FFFFFF;}
	.st2{fill-rule:evenodd;clip-rule:evenodd;fill:#FFFFFF;}
	.st3{fill:#79BD1A;}
	.st4{fill:#005329;}
	.st5{fill:#F9FDED;}
	.st6{fill:#A6E000;}
	.st7{fill:#231F20;}
	.st8{fill:#E02125;}
	.st9{fill:#F8F9FB;}
</style>
<g>
	<g>
		<path class="st0" d="M991-77H271c-11,0-20,9-20,20v534c0,11,9,20,20,20h720c11,0,20-9,20-20V-57C1011-68,1002-77,991-77z"/>
	</g>
</g>
<g>
	<path class="st1" d="M259.3-74.2c-2,0-3.6-1.6-3.6-3.6c0-2,1.6-3.6,3.6-3.6c2,0,3.6,1.6,3.6,3.6C262.9-75.8,261.3-74.2,259.3-74.2z
		"/>
	<path class="st1" d="M308.5-74.2c-2,0-3.6-1.6-3.6-3.6c0-2,1.6-3.6,3.6-3.6c2,0,3.6,1.6,3.6,3.6C312.1-75.8,310.5-74.2,308.5-74.2z
		"/>
	<path class="st1" d="M357.7-74.2c-2,0-3.6-1.6-3.6-3.6c0-2,1.6-3.6,3.6-3.6c2,0,3.6,1.6,3.6,3.6C361.3-75.8,359.7-74.2,357.7-74.2z
		"/>
	<path class="st1" d="M407-74.2c-2,0-3.6-1.6-3.6-3.6c0-2,1.6-3.6,3.6-3.6c2,0,3.6,1.6,3.6,3.6C410.5-75.8,408.9-74.2,407-74.2z"/>
	<path class="st1" d="M456.2-74.2c-2,0-3.6-1.6-3.6-3.6c0-2,1.6-3.6,3.6-3.6c2,0,3.6,1.6,3.6,3.6C459.8-75.8,458.2-74.2,456.2-74.2z
		"/>
	<path class="st1" d="M505.4-74.2c-2,0-3.6-1.6-3.6-3.6c0-2,1.6-3.6,3.6-3.6c2,0,3.6,1.6,3.6,3.6C509-75.8,507.4-74.2,505.4-74.2z"
		/>
	<path class="st1" d="M554.6-74.2c-2,0-3.6-1.6-3.6-3.6c0-2,1.6-3.6,3.6-3.6c2,0,3.6,1.6,3.6,3.6C558.2-75.8,556.6-74.2,554.6-74.2z
		"/>
	<path class="st1" d="M603.9-74.2c-2,0-3.6-1.6-3.6-3.6c0-2,1.6-3.6,3.6-3.6c2,0,3.6,1.6,3.6,3.6C607.4-75.8,605.8-74.2,603.9-74.2z
		"/>
	<path class="st1" d="M653.1-74.2c-2,0-3.6-1.6-3.6-3.6c0-2,1.6-3.6,3.6-3.6c2,0,3.6,1.6,3.6,3.6C656.7-75.8,655.1-74.2,653.1-74.2z
		"/>
	<path class="st1" d="M702.3-74.2c-2,0-3.6-1.6-3.6-3.6c0-2,1.6-3.6,3.6-3.6c2,0,3.6,1.6,3.6,3.6C705.9-75.8,704.3-74.2,702.3-74.2z
		"/>
	<path class="st1" d="M751.5-74.2c-2,0-3.6-1.6-3.6-3.6c0-2,1.6-3.6,3.6-3.6c2,0,3.6,1.6,3.6,3.6C755.1-75.8,753.5-74.2,751.5-74.2z
		"/>
	<path class="st1" d="M800.8-74.2c-2,0-3.6-1.6-3.6-3.6c0-2,1.6-3.6,3.6-3.6c2,0,3.6,1.6,3.6,3.6C804.3-75.8,802.7-74.2,800.8-74.2z
		"/>
	<path class="st1" d="M850-74.2c-2,0-3.6-1.6-3.6-3.6c0-2,1.6-3.6,3.6-3.6c2,0,3.6,1.6,3.6,3.6C853.6-75.8,852-74.2,850-74.2z"/>
	<path class="st1" d="M899.2-74.2c-2,0-3.6-1.6-3.6-3.6c0-2,1.6-3.6,3.6-3.6c2,0,3.6,1.6,3.6,3.6C902.8-75.8,901.2-74.2,899.2-74.2z
		"/>
	<path class="st1" d="M948.4-74.2c-2,0-3.6-1.6-3.6-3.6c0-2,1.6-3.6,3.6-3.6c2,0,3.6,1.6,3.6,3.6C952-75.8,950.4-74.2,948.4-74.2z"
		/>
	<path class="st1" d="M997.7-74.2c-2,0-3.6-1.6-3.6-3.6c0-2,1.6-3.6,3.6-3.6c2,0,3.6,1.6,3.6,3.6C1001.2-75.8,999.6-74.2,997.7-74.2
		z"/>
	<path class="st1" d="M238-53.5c-2,0-3.6-1.6-3.6-3.6c0-2,1.6-3.6,3.6-3.6c2,0,3.6,1.6,3.6,3.6C241.6-55.1,240-53.5,238-53.5z"/>
	<path class="st1" d="M287.3-53.5c-2,0-3.6-1.6-3.6-3.6c0-2,1.6-3.6,3.6-3.6c2,0,3.6,1.6,3.6,3.6C290.8-55.1,289.2-53.5,287.3-53.5z
		"/>
	<path class="st1" d="M336.5-53.5c-2,0-3.6-1.6-3.6-3.6c0-2,1.6-3.6,3.6-3.6c2,0,3.6,1.6,3.6,3.6C340.1-55.1,338.5-53.5,336.5-53.5z
		"/>
	<path class="st1" d="M385.7-53.5c-2,0-3.6-1.6-3.6-3.6c0-2,1.6-3.6,3.6-3.6c2,0,3.6,1.6,3.6,3.6C389.3-55.1,387.7-53.5,385.7-53.5z
		"/>
	<path class="st1" d="M434.9-53.5c-2,0-3.6-1.6-3.6-3.6c0-2,1.6-3.6,3.6-3.6c2,0,3.6,1.6,3.6,3.6C438.5-55.1,436.9-53.5,434.9-53.5z
		"/>
	<path class="st1" d="M484.2-53.5c-2,0-3.6-1.6-3.6-3.6c0-2,1.6-3.6,3.6-3.6c2,0,3.6,1.6,3.6,3.6C487.7-55.1,486.1-53.5,484.2-53.5z
		"/>
	<path class="st1" d="M533.4-53.5c-2,0-3.6-1.6-3.6-3.6c0-2,1.6-3.6,3.6-3.6c2,0,3.6,1.6,3.6,3.6C537-55.1,535.4-53.5,533.4-53.5z"
		/>
	<path class="st1" d="M582.6-53.5c-2,0-3.6-1.6-3.6-3.6c0-2,1.6-3.6,3.6-3.6c2,0,3.6,1.6,3.6,3.6C586.2-55.1,584.6-53.5,582.6-53.5z
		"/>
	<path class="st1" d="M631.8-53.5c-2,0-3.6-1.6-3.6-3.6c0-2,1.6-3.6,3.6-3.6c2,0,3.6,1.6,3.6,3.6C635.4-55.1,633.8-53.5,631.8-53.5z
		"/>
	<path class="st1" d="M681.1-53.5c-2,0-3.6-1.6-3.6-3.6c0-2,1.6-3.6,3.6-3.6c2,0,3.6,1.6,3.6,3.6C684.6-55.1,683-53.5,681.1-53.5z"
		/>
	<path class="st1" d="M730.3-53.5c-2,0-3.6-1.6-3.6-3.6c0-2,1.6-3.6,3.6-3.6s3.6,1.6,3.6,3.6C733.9-55.1,732.3-53.5,730.3-53.5z"/>
	<path class="st1" d="M779.5-53.5c-2,0-3.6-1.6-3.6-3.6c0-2,1.6-3.6,3.6-3.6c2,0,3.6,1.6,3.6,3.6C783.1-55.1,781.5-53.5,779.5-53.5z
		"/>
	<path class="st1" d="M828.7-53.5c-2,0-3.6-1.6-3.6-3.6c0-2,1.6-3.6,3.6-3.6c2,0,3.6,1.6,3.6,3.6C832.3-55.1,830.7-53.5,828.7-53.5z
		"/>
	<path class="st1" d="M878-53.5c-2,0-3.6-1.6-3.6-3.6c0-2,1.6-3.6,3.6-3.6c2,0,3.6,1.6,3.6,3.6C881.5-55.1,879.9-53.5,878-53.5z"/>
	<path class="st1" d="M927.2-53.5c-2,0-3.6-1.6-3.6-3.6c0-2,1.6-3.6,3.6-3.6c2,0,3.6,1.6,3.6,3.6C930.8-55.1,929.2-53.5,927.2-53.5z
		"/>
	<path class="st1" d="M976.4-53.5c-2,0-3.6-1.6-3.6-3.6c0-2,1.6-3.6,3.6-3.6c2,0,3.6,1.6,3.6,3.6C980-55.1,978.4-53.5,976.4-53.5z"
		/>
	<path class="st1" d="M1025.4-53.6c-1.9-0.1-3.3-1.7-3.3-3.6c0-1.9,1.5-3.4,3.3-3.6V-53.6z"/>
	<path class="st1" d="M266-32.9c-2,0-3.6-1.6-3.6-3.6c0-2,1.6-3.6,3.6-3.6c2,0,3.6,1.6,3.6,3.6C269.6-34.5,268-32.9,266-32.9z"/>
	<path class="st1" d="M315.2-32.9c-2,0-3.6-1.6-3.6-3.6c0-2,1.6-3.6,3.6-3.6c2,0,3.6,1.6,3.6,3.6C318.8-34.5,317.2-32.9,315.2-32.9z
		"/>
	<path class="st1" d="M364.5-32.9c-2,0-3.6-1.6-3.6-3.6c0-2,1.6-3.6,3.6-3.6c2,0,3.6,1.6,3.6,3.6C368-34.5,366.4-32.9,364.5-32.9z"
		/>
	<path class="st1" d="M413.7-32.9c-2,0-3.6-1.6-3.6-3.6c0-2,1.6-3.6,3.6-3.6c2,0,3.6,1.6,3.6,3.6C417.3-34.5,415.7-32.9,413.7-32.9z
		"/>
	<path class="st1" d="M462.9-32.9c-2,0-3.6-1.6-3.6-3.6c0-2,1.6-3.6,3.6-3.6c2,0,3.6,1.6,3.6,3.6C466.5-34.5,464.9-32.9,462.9-32.9z
		"/>
	<path class="st1" d="M512.1-32.9c-2,0-3.6-1.6-3.6-3.6c0-2,1.6-3.6,3.6-3.6c2,0,3.6,1.6,3.6,3.6C515.7-34.5,514.1-32.9,512.1-32.9z
		"/>
	<path class="st1" d="M561.4-32.9c-2,0-3.6-1.6-3.6-3.6c0-2,1.6-3.6,3.6-3.6c2,0,3.6,1.6,3.6,3.6C564.9-34.5,563.3-32.9,561.4-32.9z
		"/>
	<path class="st1" d="M610.6-32.9c-2,0-3.6-1.6-3.6-3.6c0-2,1.6-3.6,3.6-3.6c2,0,3.6,1.6,3.6,3.6C614.2-34.5,612.6-32.9,610.6-32.9z
		"/>
	<path class="st1" d="M659.8-32.9c-2,0-3.6-1.6-3.6-3.6c0-2,1.6-3.6,3.6-3.6c2,0,3.6,1.6,3.6,3.6C663.4-34.5,661.8-32.9,659.8-32.9z
		"/>
	<path class="st1" d="M709-32.9c-2,0-3.6-1.6-3.6-3.6c0-2,1.6-3.6,3.6-3.6s3.6,1.6,3.6,3.6C712.6-34.5,711-32.9,709-32.9z"/>
	<path class="st1" d="M758.3-32.9c-2,0-3.6-1.6-3.6-3.6c0-2,1.6-3.6,3.6-3.6c2,0,3.6,1.6,3.6,3.6C761.8-34.5,760.2-32.9,758.3-32.9z
		"/>
	<path class="st1" d="M807.5-32.9c-2,0-3.6-1.6-3.6-3.6c0-2,1.6-3.6,3.6-3.6c2,0,3.6,1.6,3.6,3.6C811.1-34.5,809.5-32.9,807.5-32.9z
		"/>
	<path class="st1" d="M856.7-32.9c-2,0-3.6-1.6-3.6-3.6c0-2,1.6-3.6,3.6-3.6c2,0,3.6,1.6,3.6,3.6C860.3-34.5,858.7-32.9,856.7-32.9z
		"/>
	<path class="st1" d="M905.9-32.9c-2,0-3.6-1.6-3.6-3.6c0-2,1.6-3.6,3.6-3.6c2,0,3.6,1.6,3.6,3.6C909.5-34.5,907.9-32.9,905.9-32.9z
		"/>
	<path class="st1" d="M955.2-32.9c-2,0-3.6-1.6-3.6-3.6c0-2,1.6-3.6,3.6-3.6c2,0,3.6,1.6,3.6,3.6C958.7-34.5,957.1-32.9,955.2-32.9z
		"/>
	<path class="st1" d="M1004.4-32.9c-2,0-3.6-1.6-3.6-3.6c0-2,1.6-3.6,3.6-3.6c2,0,3.6,1.6,3.6,3.6
		C1008-34.5,1006.4-32.9,1004.4-32.9z"/>
	<path class="st1" d="M244.8-12.3c-2,0-3.6-1.6-3.6-3.6c0-2,1.6-3.6,3.6-3.6c2,0,3.6,1.6,3.6,3.6C248.3-13.9,246.7-12.3,244.8-12.3z
		"/>
	<path class="st1" d="M294-12.3c-2,0-3.6-1.6-3.6-3.6c0-2,1.6-3.6,3.6-3.6c2,0,3.6,1.6,3.6,3.6C297.6-13.9,296-12.3,294-12.3z"/>
	<path class="st1" d="M343.2-12.3c-2,0-3.6-1.6-3.6-3.6c0-2,1.6-3.6,3.6-3.6c2,0,3.6,1.6,3.6,3.6C346.8-13.9,345.2-12.3,343.2-12.3z
		"/>
	<path class="st1" d="M392.4-12.3c-2,0-3.6-1.6-3.6-3.6c0-2,1.6-3.6,3.6-3.6c2,0,3.6,1.6,3.6,3.6C396-13.9,394.4-12.3,392.4-12.3z"
		/>
	<path class="st1" d="M441.7-12.3c-2,0-3.6-1.6-3.6-3.6c0-2,1.6-3.6,3.6-3.6c2,0,3.6,1.6,3.6,3.6C445.2-13.9,443.6-12.3,441.7-12.3z
		"/>
	<path class="st1" d="M490.9-12.3c-2,0-3.6-1.6-3.6-3.6c0-2,1.6-3.6,3.6-3.6c2,0,3.6,1.6,3.6,3.6C494.5-13.9,492.9-12.3,490.9-12.3z
		"/>
	<path class="st1" d="M540.1-12.3c-2,0-3.6-1.6-3.6-3.6c0-2,1.6-3.6,3.6-3.6c2,0,3.6,1.6,3.6,3.6C543.7-13.9,542.1-12.3,540.1-12.3z
		"/>
	<path class="st1" d="M589.3-12.3c-2,0-3.6-1.6-3.6-3.6c0-2,1.6-3.6,3.6-3.6c2,0,3.6,1.6,3.6,3.6C592.9-13.9,591.3-12.3,589.3-12.3z
		"/>
	<path class="st1" d="M638.6-12.3c-2,0-3.6-1.6-3.6-3.6c0-2,1.6-3.6,3.6-3.6c2,0,3.6,1.6,3.6,3.6C642.1-13.9,640.5-12.3,638.6-12.3z
		"/>
	<path class="st1" d="M687.8-12.3c-2,0-3.6-1.6-3.6-3.6c0-2,1.6-3.6,3.6-3.6c2,0,3.6,1.6,3.6,3.6C691.4-13.9,689.8-12.3,687.8-12.3z
		"/>
	<path class="st1" d="M737-12.3c-2,0-3.6-1.6-3.6-3.6c0-2,1.6-3.6,3.6-3.6c2,0,3.6,1.6,3.6,3.6C740.6-13.9,739-12.3,737-12.3z"/>
	<path class="st1" d="M786.2-12.3c-2,0-3.6-1.6-3.6-3.6c0-2,1.6-3.6,3.6-3.6c2,0,3.6,1.6,3.6,3.6C789.8-13.9,788.2-12.3,786.2-12.3z
		"/>
	<path class="st1" d="M835.5-12.3c-2,0-3.6-1.6-3.6-3.6c0-2,1.6-3.6,3.6-3.6c2,0,3.6,1.6,3.6,3.6C839-13.9,837.4-12.3,835.5-12.3z"
		/>
	<path class="st1" d="M884.7-12.3c-2,0-3.6-1.6-3.6-3.6c0-2,1.6-3.6,3.6-3.6s3.6,1.6,3.6,3.6C888.3-13.9,886.7-12.3,884.7-12.3z"/>
	<path class="st1" d="M933.9-12.3c-2,0-3.6-1.6-3.6-3.6c0-2,1.6-3.6,3.6-3.6c2,0,3.6,1.6,3.6,3.6C937.5-13.9,935.9-12.3,933.9-12.3z
		"/>
	<path class="st1" d="M983.1-12.3c-2,0-3.6-1.6-3.6-3.6c0-2,1.6-3.6,3.6-3.6s3.6,1.6,3.6,3.6C986.7-13.9,985.1-12.3,983.1-12.3z"/>
	<path class="st1" d="M1027.4-13.4v-5c-0.4,0.8-0.6,1.6-0.6,2.5C1026.8-15,1027-14.1,1027.4-13.4z"/>
	<path class="st1" d="M272.7,8.3c-2,0-3.6-1.6-3.6-3.6c0-2,1.6-3.6,3.6-3.6c2,0,3.6,1.6,3.6,3.6C276.3,6.7,274.7,8.3,272.7,8.3z"/>
	<path class="st1" d="M322,8.3c-2,0-3.6-1.6-3.6-3.6c0-2,1.6-3.6,3.6-3.6c2,0,3.6,1.6,3.6,3.6C325.5,6.7,323.9,8.3,322,8.3z"/>
	<path class="st1" d="M371.2,8.3c-2,0-3.6-1.6-3.6-3.6c0-2,1.6-3.6,3.6-3.6c2,0,3.6,1.6,3.6,3.6C374.8,6.7,373.2,8.3,371.2,8.3z"/>
	<path class="st1" d="M420.4,8.3c-2,0-3.6-1.6-3.6-3.6c0-2,1.6-3.6,3.6-3.6c2,0,3.6,1.6,3.6,3.6C424,6.7,422.4,8.3,420.4,8.3z"/>
	<path class="st1" d="M469.6,8.3c-2,0-3.6-1.6-3.6-3.6c0-2,1.6-3.6,3.6-3.6c2,0,3.6,1.6,3.6,3.6C473.2,6.7,471.6,8.3,469.6,8.3z"/>
	<path class="st1" d="M518.9,8.3c-2,0-3.6-1.6-3.6-3.6c0-2,1.6-3.6,3.6-3.6c2,0,3.6,1.6,3.6,3.6C522.4,6.7,520.8,8.3,518.9,8.3z"/>
	<path class="st1" d="M568.1,8.3c-2,0-3.6-1.6-3.6-3.6c0-2,1.6-3.6,3.6-3.6c2,0,3.6,1.6,3.6,3.6C571.7,6.7,570.1,8.3,568.1,8.3z"/>
	<path class="st1" d="M617.3,8.3c-2,0-3.6-1.6-3.6-3.6c0-2,1.6-3.6,3.6-3.6c2,0,3.6,1.6,3.6,3.6C620.9,6.7,619.3,8.3,617.3,8.3z"/>
	<path class="st1" d="M666.5,8.3c-2,0-3.6-1.6-3.6-3.6c0-2,1.6-3.6,3.6-3.6c2,0,3.6,1.6,3.6,3.6C670.1,6.7,668.5,8.3,666.5,8.3z"/>
	<path class="st1" d="M715.8,8.3c-2,0-3.6-1.6-3.6-3.6c0-2,1.6-3.6,3.6-3.6c2,0,3.6,1.6,3.6,3.6C719.3,6.7,717.7,8.3,715.8,8.3z"/>
	<path class="st1" d="M765,8.3c-2,0-3.6-1.6-3.6-3.6c0-2,1.6-3.6,3.6-3.6s3.6,1.6,3.6,3.6C768.6,6.7,767,8.3,765,8.3z"/>
	<path class="st1" d="M814.2,8.3c-2,0-3.6-1.6-3.6-3.6c0-2,1.6-3.6,3.6-3.6s3.6,1.6,3.6,3.6C817.8,6.7,816.2,8.3,814.2,8.3z"/>
	<path class="st1" d="M863.4,8.3c-2,0-3.6-1.6-3.6-3.6c0-2,1.6-3.6,3.6-3.6c2,0,3.6,1.6,3.6,3.6C867,6.7,865.4,8.3,863.4,8.3z"/>
	<path class="st1" d="M912.7,8.3c-2,0-3.6-1.6-3.6-3.6c0-2,1.6-3.6,3.6-3.6c2,0,3.6,1.6,3.6,3.6C916.2,6.7,914.6,8.3,912.7,8.3z"/>
	<path class="st1" d="M961.9,8.3c-2,0-3.6-1.6-3.6-3.6c0-2,1.6-3.6,3.6-3.6c2,0,3.6,1.6,3.6,3.6C965.5,6.7,963.9,8.3,961.9,8.3z"/>
	<path class="st1" d="M1011.1,8.3c-2,0-3.6-1.6-3.6-3.6c0-2,1.6-3.6,3.6-3.6c2,0,3.6,1.6,3.6,3.6C1014.7,6.7,1013.1,8.3,1011.1,8.3z
		"/>
	<path class="st1" d="M251.5,28.9c-2,0-3.6-1.6-3.6-3.6c0-2,1.6-3.6,3.6-3.6c2,0,3.6,1.6,3.6,3.6C255.1,27.3,253.5,28.9,251.5,28.9z
		"/>
	<path class="st1" d="M300.7,28.9c-2,0-3.6-1.6-3.6-3.6c0-2,1.6-3.6,3.6-3.6c2,0,3.6,1.6,3.6,3.6C304.3,27.3,302.7,28.9,300.7,28.9z
		"/>
	<path class="st1" d="M349.9,28.9c-2,0-3.6-1.6-3.6-3.6c0-2,1.6-3.6,3.6-3.6c2,0,3.6,1.6,3.6,3.6C353.5,27.3,351.9,28.9,349.9,28.9z
		"/>
	<path class="st1" d="M399.2,28.9c-2,0-3.6-1.6-3.6-3.6c0-2,1.6-3.6,3.6-3.6c2,0,3.6,1.6,3.6,3.6C402.7,27.3,401.1,28.9,399.2,28.9z
		"/>
	<path class="st1" d="M448.4,28.9c-2,0-3.6-1.6-3.6-3.6c0-2,1.6-3.6,3.6-3.6c2,0,3.6,1.6,3.6,3.6C452,27.3,450.4,28.9,448.4,28.9z"
		/>
	<path class="st1" d="M497.6,28.9c-2,0-3.6-1.6-3.6-3.6c0-2,1.6-3.6,3.6-3.6c2,0,3.6,1.6,3.6,3.6C501.2,27.3,499.6,28.9,497.6,28.9z
		"/>
	<path class="st1" d="M546.8,28.9c-2,0-3.6-1.6-3.6-3.6c0-2,1.6-3.6,3.6-3.6c2,0,3.6,1.6,3.6,3.6C550.4,27.3,548.8,28.9,546.8,28.9z
		"/>
	<path class="st1" d="M596.1,28.9c-2,0-3.6-1.6-3.6-3.6c0-2,1.6-3.6,3.6-3.6c2,0,3.6,1.6,3.6,3.6C599.6,27.3,598,28.9,596.1,28.9z"
		/>
	<path class="st1" d="M645.3,28.9c-2,0-3.6-1.6-3.6-3.6c0-2,1.6-3.6,3.6-3.6c2,0,3.6,1.6,3.6,3.6C648.9,27.3,647.3,28.9,645.3,28.9z
		"/>
	<path class="st1" d="M694.5,28.9c-2,0-3.6-1.6-3.6-3.6c0-2,1.6-3.6,3.6-3.6c2,0,3.6,1.6,3.6,3.6C698.1,27.3,696.5,28.9,694.5,28.9z
		"/>
	<path class="st1" d="M743.7,28.9c-2,0-3.6-1.6-3.6-3.6c0-2,1.6-3.6,3.6-3.6c2,0,3.6,1.6,3.6,3.6C747.3,27.3,745.7,28.9,743.7,28.9z
		"/>
	<path class="st1" d="M793,28.9c-2,0-3.6-1.6-3.6-3.6c0-2,1.6-3.6,3.6-3.6c2,0,3.6,1.6,3.6,3.6C796.5,27.3,794.9,28.9,793,28.9z"/>
	<path class="st1" d="M842.2,28.9c-2,0-3.6-1.6-3.6-3.6c0-2,1.6-3.6,3.6-3.6c2,0,3.6,1.6,3.6,3.6C845.8,27.3,844.2,28.9,842.2,28.9z
		"/>
	<path class="st1" d="M891.4,28.9c-2,0-3.6-1.6-3.6-3.6c0-2,1.6-3.6,3.6-3.6c2,0,3.6,1.6,3.6,3.6C895,27.3,893.4,28.9,891.4,28.9z"
		/>
	<path class="st1" d="M940.6,28.9c-2,0-3.6-1.6-3.6-3.6c0-2,1.6-3.6,3.6-3.6c2,0,3.6,1.6,3.6,3.6C944.2,27.3,942.6,28.9,940.6,28.9z
		"/>
	<path class="st1" d="M989.9,28.9c-2,0-3.6-1.6-3.6-3.6c0-2,1.6-3.6,3.6-3.6s3.6,1.6,3.6,3.6C993.4,27.3,991.8,28.9,989.9,28.9z"/>
	<path class="st1" d="M233.2,44c0.4,0.6,0.6,1.3,0.6,2c0,0.7-0.2,1.4-0.6,2V44z"/>
	<path class="st1" d="M279.5,49.5c-2,0-3.6-1.6-3.6-3.6c0-2,1.6-3.6,3.6-3.6c2,0,3.6,1.6,3.6,3.6C283,47.9,281.4,49.5,279.5,49.5z"
		/>
	<path class="st1" d="M328.7,49.5c-2,0-3.6-1.6-3.6-3.6c0-2,1.6-3.6,3.6-3.6c2,0,3.6,1.6,3.6,3.6C332.3,47.9,330.6,49.5,328.7,49.5z
		"/>
	<path class="st1" d="M377.9,49.5c-2,0-3.6-1.6-3.6-3.6c0-2,1.6-3.6,3.6-3.6c2,0,3.6,1.6,3.6,3.6C381.5,47.9,379.9,49.5,377.9,49.5z
		"/>
	<path class="st1" d="M427.1,49.5c-2,0-3.6-1.6-3.6-3.6c0-2,1.6-3.6,3.6-3.6c2,0,3.6,1.6,3.6,3.6C430.7,47.9,429.1,49.5,427.1,49.5z
		"/>
	<path class="st1" d="M476.4,49.5c-2,0-3.6-1.6-3.6-3.6c0-2,1.6-3.6,3.6-3.6c2,0,3.6,1.6,3.6,3.6C479.9,47.9,478.3,49.5,476.4,49.5z
		"/>
	<path class="st1" d="M525.6,49.5c-2,0-3.6-1.6-3.6-3.6c0-2,1.6-3.6,3.6-3.6c2,0,3.6,1.6,3.6,3.6C529.2,47.9,527.6,49.5,525.6,49.5z
		"/>
	<path class="st1" d="M574.8,49.5c-2,0-3.6-1.6-3.6-3.6c0-2,1.6-3.6,3.6-3.6c2,0,3.6,1.6,3.6,3.6C578.4,47.9,576.8,49.5,574.8,49.5z
		"/>
	<path class="st1" d="M624,49.5c-2,0-3.6-1.6-3.6-3.6c0-2,1.6-3.6,3.6-3.6c2,0,3.6,1.6,3.6,3.6C627.6,47.9,626,49.5,624,49.5z"/>
	<path class="st1" d="M673.3,49.5c-2,0-3.6-1.6-3.6-3.6c0-2,1.6-3.6,3.6-3.6c2,0,3.6,1.6,3.6,3.6C676.8,47.9,675.2,49.5,673.3,49.5z
		"/>
	<path class="st1" d="M722.5,49.5c-2,0-3.6-1.6-3.6-3.6c0-2,1.6-3.6,3.6-3.6c2,0,3.6,1.6,3.6,3.6C726.1,47.9,724.5,49.5,722.5,49.5z
		"/>
	<path class="st1" d="M771.7,49.5c-2,0-3.6-1.6-3.6-3.6c0-2,1.6-3.6,3.6-3.6s3.6,1.6,3.6,3.6C775.3,47.9,773.7,49.5,771.7,49.5z"/>
	<path class="st1" d="M820.9,49.5c-2,0-3.6-1.6-3.6-3.6c0-2,1.6-3.6,3.6-3.6s3.6,1.6,3.6,3.6C824.5,47.9,822.9,49.5,820.9,49.5z"/>
	<path class="st1" d="M870.2,49.5c-2,0-3.6-1.6-3.6-3.6c0-2,1.6-3.6,3.6-3.6c2,0,3.6,1.6,3.6,3.6C873.7,47.9,872.1,49.5,870.2,49.5z
		"/>
	<path class="st1" d="M919.4,49.5c-2,0-3.6-1.6-3.6-3.6c0-2,1.6-3.6,3.6-3.6c2,0,3.6,1.6,3.6,3.6C923,47.9,921.4,49.5,919.4,49.5z"
		/>
	<path class="st1" d="M968.6,49.5c-2,0-3.6-1.6-3.6-3.6c0-2,1.6-3.6,3.6-3.6c2,0,3.6,1.6,3.6,3.6C972.2,47.9,970.6,49.5,968.6,49.5z
		"/>
	<path class="st1" d="M1017.8,49.5c-2,0-3.6-1.6-3.6-3.6c0-2,1.6-3.6,3.6-3.6c2,0,3.6,1.6,3.6,3.6
		C1021.4,47.9,1019.8,49.5,1017.8,49.5z"/>
	<path class="st1" d="M258.2,70.2c-2,0-3.6-1.6-3.6-3.6c0-2,1.6-3.6,3.6-3.6c2,0,3.6,1.6,3.6,3.6C261.8,68.6,260.2,70.2,258.2,70.2z
		"/>
	<path class="st1" d="M307.4,70.2c-2,0-3.6-1.6-3.6-3.6c0-2,1.6-3.6,3.6-3.6c2,0,3.6,1.6,3.6,3.6C311,68.6,309.4,70.2,307.4,70.2z"
		/>
	<path class="st1" d="M356.7,70.2c-2,0-3.6-1.6-3.6-3.6c0-2,1.6-3.6,3.6-3.6c2,0,3.6,1.6,3.6,3.6C360.2,68.6,358.6,70.2,356.7,70.2z
		"/>
	<path class="st1" d="M405.9,70.2c-2,0-3.6-1.6-3.6-3.6c0-2,1.6-3.6,3.6-3.6c2,0,3.6,1.6,3.6,3.6C409.5,68.6,407.8,70.2,405.9,70.2z
		"/>
	<path class="st1" d="M455.1,70.2c-2,0-3.6-1.6-3.6-3.6c0-2,1.6-3.6,3.6-3.6c2,0,3.6,1.6,3.6,3.6C458.7,68.6,457.1,70.2,455.1,70.2z
		"/>
	<path class="st1" d="M504.3,70.2c-2,0-3.6-1.6-3.6-3.6c0-2,1.6-3.6,3.6-3.6c2,0,3.6,1.6,3.6,3.6C507.9,68.6,506.3,70.2,504.3,70.2z
		"/>
	<path class="st1" d="M553.6,70.2c-2,0-3.6-1.6-3.6-3.6c0-2,1.6-3.6,3.6-3.6c2,0,3.6,1.6,3.6,3.6C557.1,68.6,555.5,70.2,553.6,70.2z
		"/>
	<path class="st1" d="M602.8,70.2c-2,0-3.6-1.6-3.6-3.6c0-2,1.6-3.6,3.6-3.6c2,0,3.6,1.6,3.6,3.6C606.4,68.6,604.8,70.2,602.8,70.2z
		"/>
	<path class="st1" d="M652,70.2c-2,0-3.6-1.6-3.6-3.6c0-2,1.6-3.6,3.6-3.6c2,0,3.6,1.6,3.6,3.6C655.6,68.6,654,70.2,652,70.2z"/>
	<path class="st1" d="M701.2,70.2c-2,0-3.6-1.6-3.6-3.6c0-2,1.6-3.6,3.6-3.6c2,0,3.6,1.6,3.6,3.6C704.8,68.6,703.2,70.2,701.2,70.2z
		"/>
	<path class="st1" d="M750.5,70.2c-2,0-3.6-1.6-3.6-3.6c0-2,1.6-3.6,3.6-3.6c2,0,3.6,1.6,3.6,3.6C754,68.6,752.4,70.2,750.5,70.2z"
		/>
	<path class="st1" d="M799.7,70.2c-2,0-3.6-1.6-3.6-3.6c0-2,1.6-3.6,3.6-3.6c2,0,3.6,1.6,3.6,3.6C803.3,68.6,801.7,70.2,799.7,70.2z
		"/>
	<path class="st1" d="M848.9,70.2c-2,0-3.6-1.6-3.6-3.6c0-2,1.6-3.6,3.6-3.6c2,0,3.6,1.6,3.6,3.6C852.5,68.6,850.9,70.2,848.9,70.2z
		"/>
	<path class="st1" d="M898.1,70.2c-2,0-3.6-1.6-3.6-3.6c0-2,1.6-3.6,3.6-3.6c2,0,3.6,1.6,3.6,3.6C901.7,68.6,900.1,70.2,898.1,70.2z
		"/>
	<path class="st1" d="M947.4,70.2c-2,0-3.6-1.6-3.6-3.6c0-2,1.6-3.6,3.6-3.6s3.6,1.6,3.6,3.6C950.9,68.6,949.3,70.2,947.4,70.2z"/>
	<path class="st1" d="M996.6,70.2c-2,0-3.6-1.6-3.6-3.6c0-2,1.6-3.6,3.6-3.6c2,0,3.6,1.6,3.6,3.6C1000.2,68.6,998.6,70.2,996.6,70.2
		z"/>
	<path class="st1" d="M237,90.8c-2,0-3.6-1.6-3.6-3.6c0-2,1.6-3.6,3.6-3.6c2,0,3.6,1.6,3.6,3.6C240.5,89.2,238.9,90.8,237,90.8z"/>
	<path class="st1" d="M286.2,90.8c-2,0-3.6-1.6-3.6-3.6c0-2,1.6-3.6,3.6-3.6c2,0,3.6,1.6,3.6,3.6C289.7,89.2,288.1,90.8,286.2,90.8z
		"/>
	<path class="st1" d="M335.4,90.8c-2,0-3.6-1.6-3.6-3.6c0-2,1.6-3.6,3.6-3.6c2,0,3.6,1.6,3.6,3.6C339,89.2,337.4,90.8,335.4,90.8z"
		/>
	<path class="st1" d="M384.6,90.8c-2,0-3.6-1.6-3.6-3.6c0-2,1.6-3.6,3.6-3.6c2,0,3.6,1.6,3.6,3.6C388.2,89.2,386.6,90.8,384.6,90.8z
		"/>
	<path class="st1" d="M433.9,90.8c-2,0-3.6-1.6-3.6-3.6c0-2,1.6-3.6,3.6-3.6c2,0,3.6,1.6,3.6,3.6C437.4,89.2,435.8,90.8,433.9,90.8z
		"/>
	<path class="st1" d="M483.1,90.8c-2,0-3.6-1.6-3.6-3.6c0-2,1.6-3.6,3.6-3.6c2,0,3.6,1.6,3.6,3.6C486.6,89.2,485,90.8,483.1,90.8z"
		/>
	<path class="st1" d="M532.3,90.8c-2,0-3.6-1.6-3.6-3.6c0-2,1.6-3.6,3.6-3.6c2,0,3.6,1.6,3.6,3.6C535.9,89.2,534.3,90.8,532.3,90.8z
		"/>
	<path class="st1" d="M581.5,90.8c-2,0-3.6-1.6-3.6-3.6c0-2,1.6-3.6,3.6-3.6c2,0,3.6,1.6,3.6,3.6C585.1,89.2,583.5,90.8,581.5,90.8z
		"/>
	<path class="st1" d="M630.8,90.8c-2,0-3.6-1.6-3.6-3.6c0-2,1.6-3.6,3.6-3.6c2,0,3.6,1.6,3.6,3.6C634.3,89.2,632.7,90.8,630.8,90.8z
		"/>
	<path class="st1" d="M680,90.8c-2,0-3.6-1.6-3.6-3.6c0-2,1.6-3.6,3.6-3.6c2,0,3.6,1.6,3.6,3.6C683.6,89.2,681.9,90.8,680,90.8z"/>
	<path class="st1" d="M729.2,90.8c-2,0-3.6-1.6-3.6-3.6c0-2,1.6-3.6,3.6-3.6c2,0,3.6,1.6,3.6,3.6C732.8,89.2,731.2,90.8,729.2,90.8z
		"/>
	<path class="st1" d="M778.4,90.8c-2,0-3.6-1.6-3.6-3.6c0-2,1.6-3.6,3.6-3.6s3.6,1.6,3.6,3.6C782,89.2,780.4,90.8,778.4,90.8z"/>
	<path class="st1" d="M827.7,90.8c-2,0-3.6-1.6-3.6-3.6c0-2,1.6-3.6,3.6-3.6c2,0,3.6,1.6,3.6,3.6C831.2,89.2,829.6,90.8,827.7,90.8z
		"/>
	<path class="st1" d="M876.9,90.8c-2,0-3.6-1.6-3.6-3.6c0-2,1.6-3.6,3.6-3.6s3.6,1.6,3.6,3.6C880.5,89.2,878.9,90.8,876.9,90.8z"/>
	<path class="st1" d="M926.1,90.8c-2,0-3.6-1.6-3.6-3.6c0-2,1.6-3.6,3.6-3.6c2,0,3.6,1.6,3.6,3.6C929.7,89.2,928.1,90.8,926.1,90.8z
		"/>
	<path class="st1" d="M975.3,90.8c-2,0-3.6-1.6-3.6-3.6c0-2,1.6-3.6,3.6-3.6c2,0,3.6,1.6,3.6,3.6C978.9,89.2,977.3,90.8,975.3,90.8z
		"/>
	<path class="st1" d="M1024.6,90.8c-2,0-3.6-1.6-3.6-3.6c0-2,1.6-3.6,3.6-3.6c0.3,0,0.6,0,0.9,0.1v6.9
		C1025.1,90.7,1024.8,90.8,1024.6,90.8z"/>
	<path class="st1" d="M264.9,111.4c-2,0-3.6-1.6-3.6-3.6c0-2,1.6-3.6,3.6-3.6c2,0,3.6,1.6,3.6,3.6
		C268.5,109.8,266.9,111.4,264.9,111.4z"/>
	<path class="st1" d="M314.1,111.4c-2,0-3.6-1.6-3.6-3.6c0-2,1.6-3.6,3.6-3.6c2,0,3.6,1.6,3.6,3.6
		C317.7,109.8,316.1,111.4,314.1,111.4z"/>
	<path class="st1" d="M363.4,111.4c-2,0-3.6-1.6-3.6-3.6c0-2,1.6-3.6,3.6-3.6c2,0,3.6,1.6,3.6,3.6
		C366.9,109.8,365.3,111.4,363.4,111.4z"/>
	<path class="st1" d="M412.6,111.4c-2,0-3.6-1.6-3.6-3.6c0-2,1.6-3.6,3.6-3.6c2,0,3.6,1.6,3.6,3.6
		C416.2,109.8,414.6,111.4,412.6,111.4z"/>
	<path class="st1" d="M461.8,111.4c-2,0-3.6-1.6-3.6-3.6c0-2,1.6-3.6,3.6-3.6c2,0,3.6,1.6,3.6,3.6
		C465.4,109.8,463.8,111.4,461.8,111.4z"/>
	<path class="st1" d="M511.1,111.4c-2,0-3.6-1.6-3.6-3.6c0-2,1.6-3.6,3.6-3.6c2,0,3.6,1.6,3.6,3.6
		C514.6,109.8,513,111.4,511.1,111.4z"/>
	<path class="st1" d="M560.3,111.4c-2,0-3.6-1.6-3.6-3.6c0-2,1.6-3.6,3.6-3.6c2,0,3.6,1.6,3.6,3.6
		C563.8,109.8,562.2,111.4,560.3,111.4z"/>
	<path class="st1" d="M609.5,111.4c-2,0-3.6-1.6-3.6-3.6c0-2,1.6-3.6,3.6-3.6c2,0,3.6,1.6,3.6,3.6
		C613.1,109.8,611.5,111.4,609.5,111.4z"/>
	<path class="st1" d="M658.7,111.4c-2,0-3.6-1.6-3.6-3.6c0-2,1.6-3.6,3.6-3.6s3.6,1.6,3.6,3.6C662.3,109.8,660.7,111.4,658.7,111.4z
		"/>
	<path class="st1" d="M707.9,111.4c-2,0-3.6-1.6-3.6-3.6c0-2,1.6-3.6,3.6-3.6c2,0,3.6,1.6,3.6,3.6
		C711.5,109.8,709.9,111.4,707.9,111.4z"/>
	<path class="st1" d="M757.2,111.4c-2,0-3.6-1.6-3.6-3.6c0-2,1.6-3.6,3.6-3.6c2,0,3.6,1.6,3.6,3.6
		C760.8,109.8,759.1,111.4,757.2,111.4z"/>
	<path class="st1" d="M806.4,111.4c-2,0-3.6-1.6-3.6-3.6c0-2,1.6-3.6,3.6-3.6c2,0,3.6,1.6,3.6,3.6
		C810,109.8,808.4,111.4,806.4,111.4z"/>
	<path class="st1" d="M855.6,111.4c-2,0-3.6-1.6-3.6-3.6c0-2,1.6-3.6,3.6-3.6c2,0,3.6,1.6,3.6,3.6
		C859.2,109.8,857.6,111.4,855.6,111.4z"/>
	<path class="st1" d="M904.9,111.4c-2,0-3.6-1.6-3.6-3.6c0-2,1.6-3.6,3.6-3.6c2,0,3.6,1.6,3.6,3.6
		C908.4,109.8,906.8,111.4,904.9,111.4z"/>
	<path class="st1" d="M954.1,111.4c-2,0-3.6-1.6-3.6-3.6c0-2,1.6-3.6,3.6-3.6c2,0,3.6,1.6,3.6,3.6
		C957.7,109.8,956.1,111.4,954.1,111.4z"/>
	<path class="st1" d="M1003.3,111.4c-2,0-3.6-1.6-3.6-3.6c0-2,1.6-3.6,3.6-3.6c2,0,3.6,1.6,3.6,3.6
		C1006.9,109.8,1005.3,111.4,1003.3,111.4z"/>
	<path class="st1" d="M243.7,132c-2,0-3.6-1.6-3.6-3.6c0-2,1.6-3.6,3.6-3.6c2,0,3.6,1.6,3.6,3.6C247.2,130.4,245.6,132,243.7,132z"
		/>
	<path class="st1" d="M292.9,132c-2,0-3.6-1.6-3.6-3.6c0-2,1.6-3.6,3.6-3.6c2,0,3.6,1.6,3.6,3.6C296.5,130.4,294.9,132,292.9,132z"
		/>
	<path class="st1" d="M342.1,132c-2,0-3.6-1.6-3.6-3.6c0-2,1.6-3.6,3.6-3.6c2,0,3.6,1.6,3.6,3.6C345.7,130.4,344.1,132,342.1,132z"
		/>
	<path class="st1" d="M391.3,132c-2,0-3.6-1.6-3.6-3.6c0-2,1.6-3.6,3.6-3.6c2,0,3.6,1.6,3.6,3.6C394.9,130.4,393.3,132,391.3,132z"
		/>
	<path class="st1" d="M440.6,132c-2,0-3.6-1.6-3.6-3.6c0-2,1.6-3.6,3.6-3.6c2,0,3.6,1.6,3.6,3.6C444.1,130.4,442.5,132,440.6,132z"
		/>
	<path class="st1" d="M489.8,132c-2,0-3.6-1.6-3.6-3.6c0-2,1.6-3.6,3.6-3.6c2,0,3.6,1.6,3.6,3.6C493.4,130.4,491.8,132,489.8,132z"
		/>
	<path class="st1" d="M539,132c-2,0-3.6-1.6-3.6-3.6c0-2,1.6-3.6,3.6-3.6c2,0,3.6,1.6,3.6,3.6C542.6,130.4,541,132,539,132z"/>
	<path class="st1" d="M588.2,132c-2,0-3.6-1.6-3.6-3.6c0-2,1.6-3.6,3.6-3.6c2,0,3.6,1.6,3.6,3.6C591.8,130.4,590.2,132,588.2,132z"
		/>
	<path class="st1" d="M637.5,132c-2,0-3.6-1.6-3.6-3.6c0-2,1.6-3.6,3.6-3.6c2,0,3.6,1.6,3.6,3.6C641,130.4,639.4,132,637.5,132z"/>
	<path class="st1" d="M686.7,132c-2,0-3.6-1.6-3.6-3.6c0-2,1.6-3.6,3.6-3.6c2,0,3.6,1.6,3.6,3.6C690.3,130.4,688.7,132,686.7,132z"
		/>
	<path class="st1" d="M735.9,132c-2,0-3.6-1.6-3.6-3.6c0-2,1.6-3.6,3.6-3.6s3.6,1.6,3.6,3.6C739.5,130.4,737.9,132,735.9,132z"/>
	<path class="st1" d="M785.2,132c-2,0-3.6-1.6-3.6-3.6c0-2,1.6-3.6,3.6-3.6c2,0,3.6,1.6,3.6,3.6C788.7,130.4,787.1,132,785.2,132z"
		/>
	<path class="st1" d="M834.4,132c-2,0-3.6-1.6-3.6-3.6c0-2,1.6-3.6,3.6-3.6c2,0,3.6,1.6,3.6,3.6C838,130.4,836.3,132,834.4,132z"/>
	<path class="st1" d="M883.6,132c-2,0-3.6-1.6-3.6-3.6c0-2,1.6-3.6,3.6-3.6c2,0,3.6,1.6,3.6,3.6C887.2,130.4,885.6,132,883.6,132z"
		/>
	<path class="st1" d="M932.8,132c-2,0-3.6-1.6-3.6-3.6c0-2,1.6-3.6,3.6-3.6c2,0,3.6,1.6,3.6,3.6C936.4,130.4,934.8,132,932.8,132z"
		/>
	<path class="st1" d="M982.1,132c-2,0-3.6-1.6-3.6-3.6c0-2,1.6-3.6,3.6-3.6c2,0,3.6,1.6,3.6,3.6C985.6,130.4,984,132,982.1,132z"/>
	<path class="st1" d="M1025.7,128.4c0,1.6,0.7,3,1.7,4v-8C1026.4,125.5,1025.7,126.9,1025.7,128.4z"/>
	<path class="st1" d="M271.6,152.6c-2,0-3.6-1.6-3.6-3.6c0-2,1.6-3.6,3.6-3.6c2,0,3.6,1.6,3.6,3.6
		C275.2,151,273.6,152.6,271.6,152.6z"/>
	<path class="st1" d="M320.9,152.6c-2,0-3.6-1.6-3.6-3.6c0-2,1.6-3.6,3.6-3.6c2,0,3.6,1.6,3.6,3.6
		C324.4,151,322.8,152.6,320.9,152.6z"/>
	<path class="st1" d="M370.1,152.6c-2,0-3.6-1.6-3.6-3.6c0-2,1.6-3.6,3.6-3.6c2,0,3.6,1.6,3.6,3.6
		C373.7,151,372.1,152.6,370.1,152.6z"/>
	<path class="st1" d="M419.3,152.6c-2,0-3.6-1.6-3.6-3.6c0-2,1.6-3.6,3.6-3.6c2,0,3.6,1.6,3.6,3.6
		C422.9,151,421.3,152.6,419.3,152.6z"/>
	<path class="st1" d="M468.5,152.6c-2,0-3.6-1.6-3.6-3.6c0-2,1.6-3.6,3.6-3.6c2,0,3.6,1.6,3.6,3.6
		C472.1,151,470.5,152.6,468.5,152.6z"/>
	<path class="st1" d="M517.8,152.6c-2,0-3.6-1.6-3.6-3.6c0-2,1.6-3.6,3.6-3.6c2,0,3.6,1.6,3.6,3.6
		C521.3,151,519.7,152.6,517.8,152.6z"/>
	<path class="st1" d="M567,152.6c-2,0-3.6-1.6-3.6-3.6c0-2,1.6-3.6,3.6-3.6c2,0,3.6,1.6,3.6,3.6C570.6,151,569,152.6,567,152.6z"/>
	<path class="st1" d="M616.2,152.6c-2,0-3.6-1.6-3.6-3.6c0-2,1.6-3.6,3.6-3.6c2,0,3.6,1.6,3.6,3.6
		C619.8,151,618.2,152.6,616.2,152.6z"/>
	<path class="st1" d="M665.4,152.6c-2,0-3.6-1.6-3.6-3.6c0-2,1.6-3.6,3.6-3.6c2,0,3.6,1.6,3.6,3.6C669,151,667.4,152.6,665.4,152.6z
		"/>
	<path class="st1" d="M714.7,152.6c-2,0-3.6-1.6-3.6-3.6c0-2,1.6-3.6,3.6-3.6s3.6,1.6,3.6,3.6C718.2,151,716.6,152.6,714.7,152.6z"
		/>
	<path class="st1" d="M763.9,152.6c-2,0-3.6-1.6-3.6-3.6c0-2,1.6-3.6,3.6-3.6c2,0,3.6,1.6,3.6,3.6
		C767.5,151,765.9,152.6,763.9,152.6z"/>
	<path class="st1" d="M813.1,152.6c-2,0-3.6-1.6-3.6-3.6c0-2,1.6-3.6,3.6-3.6c2,0,3.6,1.6,3.6,3.6
		C816.7,151,815.1,152.6,813.1,152.6z"/>
	<path class="st1" d="M862.4,152.6c-2,0-3.6-1.6-3.6-3.6c0-2,1.6-3.6,3.6-3.6c2,0,3.6,1.6,3.6,3.6
		C865.9,151,864.3,152.6,862.4,152.6z"/>
	<path class="st1" d="M911.6,152.6c-2,0-3.6-1.6-3.6-3.6c0-2,1.6-3.6,3.6-3.6c2,0,3.6,1.6,3.6,3.6
		C915.2,151,913.5,152.6,911.6,152.6z"/>
	<path class="st1" d="M960.8,152.6c-2,0-3.6-1.6-3.6-3.6c0-2,1.6-3.6,3.6-3.6c2,0,3.6,1.6,3.6,3.6
		C964.4,151,962.8,152.6,960.8,152.6z"/>
	<path class="st1" d="M1010,152.6c-2,0-3.6-1.6-3.6-3.6c0-2,1.6-3.6,3.6-3.6s3.6,1.6,3.6,3.6C1013.6,151,1012,152.6,1010,152.6z"/>
	<path class="st1" d="M250.4,173.2c-2,0-3.6-1.6-3.6-3.6c0-2,1.6-3.6,3.6-3.6c2,0,3.6,1.6,3.6,3.6
		C254,171.6,252.4,173.2,250.4,173.2z"/>
	<path class="st1" d="M299.6,173.2c-2,0-3.6-1.6-3.6-3.6c0-2,1.6-3.6,3.6-3.6c2,0,3.6,1.6,3.6,3.6
		C303.2,171.6,301.6,173.2,299.6,173.2z"/>
	<path class="st1" d="M348.8,173.2c-2,0-3.6-1.6-3.6-3.6c0-2,1.6-3.6,3.6-3.6c2,0,3.6,1.6,3.6,3.6
		C352.4,171.6,350.8,173.2,348.8,173.2z"/>
	<path class="st1" d="M398.1,173.2c-2,0-3.6-1.6-3.6-3.6c0-2,1.6-3.6,3.6-3.6c2,0,3.6,1.6,3.6,3.6
		C401.6,171.6,400,173.2,398.1,173.2z"/>
	<path class="st1" d="M447.3,173.2c-2,0-3.6-1.6-3.6-3.6c0-2,1.6-3.6,3.6-3.6c2,0,3.6,1.6,3.6,3.6
		C450.9,171.6,449.3,173.2,447.3,173.2z"/>
	<path class="st1" d="M496.5,173.2c-2,0-3.6-1.6-3.6-3.6c0-2,1.6-3.6,3.6-3.6c2,0,3.6,1.6,3.6,3.6
		C500.1,171.6,498.5,173.2,496.5,173.2z"/>
	<path class="st1" d="M545.7,173.2c-2,0-3.6-1.6-3.6-3.6c0-2,1.6-3.6,3.6-3.6c2,0,3.6,1.6,3.6,3.6
		C549.3,171.6,547.7,173.2,545.7,173.2z"/>
	<path class="st1" d="M595,173.2c-2,0-3.6-1.6-3.6-3.6c0-2,1.6-3.6,3.6-3.6c2,0,3.6,1.6,3.6,3.6C598.5,171.6,596.9,173.2,595,173.2z
		"/>
	<path class="st1" d="M644.2,173.2c-2,0-3.6-1.6-3.6-3.6c0-2,1.6-3.6,3.6-3.6c2,0,3.6,1.6,3.6,3.6
		C647.8,171.6,646.2,173.2,644.2,173.2z"/>
	<path class="st1" d="M693.4,173.2c-2,0-3.6-1.6-3.6-3.6c0-2,1.6-3.6,3.6-3.6c2,0,3.6,1.6,3.6,3.6
		C697,171.6,695.4,173.2,693.4,173.2z"/>
	<path class="st1" d="M742.7,173.2c-2,0-3.6-1.6-3.6-3.6c0-2,1.6-3.6,3.6-3.6c2,0,3.6,1.6,3.6,3.6
		C746.2,171.6,744.6,173.2,742.7,173.2z"/>
	<path class="st1" d="M791.9,173.2c-2,0-3.6-1.6-3.6-3.6c0-2,1.6-3.6,3.6-3.6c2,0,3.6,1.6,3.6,3.6
		C795.4,171.6,793.8,173.2,791.9,173.2z"/>
	<path class="st1" d="M841.1,173.2c-2,0-3.6-1.6-3.6-3.6c0-2,1.6-3.6,3.6-3.6s3.6,1.6,3.6,3.6C844.7,171.6,843.1,173.2,841.1,173.2z
		"/>
	<path class="st1" d="M890.3,173.2c-2,0-3.6-1.6-3.6-3.6c0-2,1.6-3.6,3.6-3.6c2,0,3.6,1.6,3.6,3.6
		C893.9,171.6,892.3,173.2,890.3,173.2z"/>
	<path class="st1" d="M939.6,173.2c-2,0-3.6-1.6-3.6-3.6c0-2,1.6-3.6,3.6-3.6s3.6,1.6,3.6,3.6C943.1,171.6,941.5,173.2,939.6,173.2z
		"/>
	<path class="st1" d="M988.8,173.2c-2,0-3.6-1.6-3.6-3.6c0-2,1.6-3.6,3.6-3.6s3.6,1.6,3.6,3.6C992.3,171.6,990.7,173.2,988.8,173.2z
		"/>
	<path class="st1" d="M234.7,190.3c0-2.4-1.5-4.4-3.5-5.2v10.3C233.2,194.6,234.7,192.6,234.7,190.3z"/>
	<path class="st1" d="M278.4,193.9c-2,0-3.6-1.6-3.6-3.6c0-2,1.6-3.6,3.6-3.6c2,0,3.6,1.6,3.6,3.6
		C281.9,192.3,280.3,193.9,278.4,193.9z"/>
	<path class="st1" d="M327.6,193.9c-2,0-3.6-1.6-3.6-3.6c0-2,1.6-3.6,3.6-3.6c2,0,3.6,1.6,3.6,3.6
		C331.2,192.3,329.6,193.9,327.6,193.9z"/>
	<path class="st1" d="M376.8,193.9c-2,0-3.6-1.6-3.6-3.6c0-2,1.6-3.6,3.6-3.6c2,0,3.6,1.6,3.6,3.6
		C380.4,192.3,378.8,193.9,376.8,193.9z"/>
	<path class="st1" d="M426,193.9c-2,0-3.6-1.6-3.6-3.6c0-2,1.6-3.6,3.6-3.6c2,0,3.6,1.6,3.6,3.6C429.6,192.3,428,193.9,426,193.9z"
		/>
	<path class="st1" d="M475.3,193.9c-2,0-3.6-1.6-3.6-3.6c0-2,1.6-3.6,3.6-3.6c2,0,3.6,1.6,3.6,3.6
		C478.8,192.3,477.2,193.9,475.3,193.9z"/>
	<path class="st1" d="M524.5,193.9c-2,0-3.6-1.6-3.6-3.6c0-2,1.6-3.6,3.6-3.6c2,0,3.6,1.6,3.6,3.6
		C528.1,192.3,526.5,193.9,524.5,193.9z"/>
	<path class="st1" d="M573.7,193.9c-2,0-3.6-1.6-3.6-3.6c0-2,1.6-3.6,3.6-3.6c2,0,3.6,1.6,3.6,3.6
		C577.3,192.3,575.7,193.9,573.7,193.9z"/>
	<path class="st1" d="M622.9,193.9c-2,0-3.6-1.6-3.6-3.6c0-2,1.6-3.6,3.6-3.6c2,0,3.6,1.6,3.6,3.6
		C626.5,192.3,624.9,193.9,622.9,193.9z"/>
	<path class="st1" d="M672.2,193.9c-2,0-3.6-1.6-3.6-3.6c0-2,1.6-3.6,3.6-3.6c2,0,3.6,1.6,3.6,3.6
		C675.7,192.3,674.1,193.9,672.2,193.9z"/>
	<path class="st1" d="M721.4,193.9c-2,0-3.6-1.6-3.6-3.6c0-2,1.6-3.6,3.6-3.6s3.6,1.6,3.6,3.6C725,192.3,723.4,193.9,721.4,193.9z"
		/>
	<path class="st1" d="M770.6,193.9c-2,0-3.6-1.6-3.6-3.6c0-2,1.6-3.6,3.6-3.6c2,0,3.6,1.6,3.6,3.6
		C774.2,192.3,772.6,193.9,770.6,193.9z"/>
	<path class="st1" d="M819.8,193.9c-2,0-3.6-1.6-3.6-3.6c0-2,1.6-3.6,3.6-3.6c2,0,3.6,1.6,3.6,3.6
		C823.4,192.3,821.8,193.9,819.8,193.9z"/>
	<path class="st1" d="M869.1,193.9c-2,0-3.6-1.6-3.6-3.6c0-2,1.6-3.6,3.6-3.6c2,0,3.6,1.6,3.6,3.6
		C872.6,192.3,871,193.9,869.1,193.9z"/>
	<path class="st1" d="M918.3,193.9c-2,0-3.6-1.6-3.6-3.6c0-2,1.6-3.6,3.6-3.6c2,0,3.6,1.6,3.6,3.6
		C921.9,192.3,920.3,193.9,918.3,193.9z"/>
	<path class="st1" d="M967.5,193.9c-2,0-3.6-1.6-3.6-3.6c0-2,1.6-3.6,3.6-3.6c2,0,3.6,1.6,3.6,3.6
		C971.1,192.3,969.5,193.9,967.5,193.9z"/>
	<path class="st1" d="M1016.7,193.9c-2,0-3.6-1.6-3.6-3.6c0-2,1.6-3.6,3.6-3.6c2,0,3.6,1.6,3.6,3.6
		C1020.3,192.3,1018.7,193.9,1016.7,193.9z"/>
	<path class="st1" d="M257.1,214.5c-2,0-3.6-1.6-3.6-3.6c0-2,1.6-3.6,3.6-3.6c2,0,3.6,1.6,3.6,3.6
		C260.7,212.9,259.1,214.5,257.1,214.5z"/>
	<path class="st1" d="M306.3,214.5c-2,0-3.6-1.6-3.6-3.6c0-2,1.6-3.6,3.6-3.6c2,0,3.6,1.6,3.6,3.6
		C309.9,212.9,308.3,214.5,306.3,214.5z"/>
	<path class="st1" d="M355.6,214.5c-2,0-3.6-1.6-3.6-3.6c0-2,1.6-3.6,3.6-3.6c2,0,3.6,1.6,3.6,3.6
		C359.1,212.9,357.5,214.5,355.6,214.5z"/>
	<path class="st1" d="M404.8,214.5c-2,0-3.6-1.6-3.6-3.6c0-2,1.6-3.6,3.6-3.6s3.6,1.6,3.6,3.6C408.4,212.9,406.8,214.5,404.8,214.5z
		"/>
	<path class="st1" d="M454,214.5c-2,0-3.6-1.6-3.6-3.6c0-2,1.6-3.6,3.6-3.6c2,0,3.6,1.6,3.6,3.6C457.6,212.9,456,214.5,454,214.5z"
		/>
	<path class="st1" d="M503.2,214.5c-2,0-3.6-1.6-3.6-3.6c0-2,1.6-3.6,3.6-3.6c2,0,3.6,1.6,3.6,3.6
		C506.8,212.9,505.2,214.5,503.2,214.5z"/>
	<path class="st1" d="M552.5,214.5c-2,0-3.6-1.6-3.6-3.6c0-2,1.6-3.6,3.6-3.6c2,0,3.6,1.6,3.6,3.6
		C556,212.9,554.4,214.5,552.5,214.5z"/>
	<path class="st1" d="M601.7,214.5c-2,0-3.6-1.6-3.6-3.6c0-2,1.6-3.6,3.6-3.6c2,0,3.6,1.6,3.6,3.6
		C605.3,212.9,603.7,214.5,601.7,214.5z"/>
	<path class="st1" d="M650.9,214.5c-2,0-3.6-1.6-3.6-3.6c0-2,1.6-3.6,3.6-3.6c2,0,3.6,1.6,3.6,3.6
		C654.5,212.9,652.9,214.5,650.9,214.5z"/>
	<path class="st1" d="M700.1,214.5c-2,0-3.6-1.6-3.6-3.6c0-2,1.6-3.6,3.6-3.6c2,0,3.6,1.6,3.6,3.6
		C703.7,212.9,702.1,214.5,700.1,214.5z"/>
	<path class="st1" d="M749.4,214.5c-2,0-3.6-1.6-3.6-3.6c0-2,1.6-3.6,3.6-3.6c2,0,3.6,1.6,3.6,3.6
		C752.9,212.9,751.3,214.5,749.4,214.5z"/>
	<path class="st1" d="M798.6,214.5c-2,0-3.6-1.6-3.6-3.6c0-2,1.6-3.6,3.6-3.6c2,0,3.6,1.6,3.6,3.6
		C802.2,212.9,800.6,214.5,798.6,214.5z"/>
	<path class="st1" d="M847.8,214.5c-2,0-3.6-1.6-3.6-3.6c0-2,1.6-3.6,3.6-3.6c2,0,3.6,1.6,3.6,3.6
		C851.4,212.9,849.8,214.5,847.8,214.5z"/>
	<path class="st1" d="M897,214.5c-2,0-3.6-1.6-3.6-3.6c0-2,1.6-3.6,3.6-3.6c2,0,3.6,1.6,3.6,3.6C900.6,212.9,899,214.5,897,214.5z"
		/>
	<path class="st1" d="M946.3,214.5c-2,0-3.6-1.6-3.6-3.6c0-2,1.6-3.6,3.6-3.6c2,0,3.6,1.6,3.6,3.6
		C949.8,212.9,948.2,214.5,946.3,214.5z"/>
	<path class="st1" d="M995.5,214.5c-2,0-3.6-1.6-3.6-3.6c0-2,1.6-3.6,3.6-3.6c2,0,3.6,1.6,3.6,3.6
		C999.1,212.9,997.5,214.5,995.5,214.5z"/>
	<path class="st1" d="M235.9,235.1c-1,0-2-0.4-2.7-1.2v-4.7c0.7-0.8,1.6-1.2,2.7-1.2c2,0,3.6,1.6,3.6,3.6
		C239.4,233.5,237.8,235.1,235.9,235.1z"/>
	<path class="st1" d="M285.1,235.1c-2,0-3.6-1.6-3.6-3.6c0-2,1.6-3.6,3.6-3.6c2,0,3.6,1.6,3.6,3.6
		C288.7,233.5,287.1,235.1,285.1,235.1z"/>
	<path class="st1" d="M334.3,235.1c-2,0-3.6-1.6-3.6-3.6c0-2,1.6-3.6,3.6-3.6c2,0,3.6,1.6,3.6,3.6
		C337.9,233.5,336.3,235.1,334.3,235.1z"/>
	<path class="st1" d="M383.5,235.1c-2,0-3.6-1.6-3.6-3.6c0-2,1.6-3.6,3.6-3.6c2,0,3.6,1.6,3.6,3.6
		C387.1,233.5,385.5,235.1,383.5,235.1z"/>
	<path class="st1" d="M432.8,235.1c-2,0-3.6-1.6-3.6-3.6c0-2,1.6-3.6,3.6-3.6c2,0,3.6,1.6,3.6,3.6
		C436.3,233.5,434.7,235.1,432.8,235.1z"/>
	<path class="st1" d="M482,235.1c-2,0-3.6-1.6-3.6-3.6c0-2,1.6-3.6,3.6-3.6c2,0,3.6,1.6,3.6,3.6C485.6,233.5,484,235.1,482,235.1z"
		/>
	<path class="st1" d="M531.2,235.1c-2,0-3.6-1.6-3.6-3.6c0-2,1.6-3.6,3.6-3.6c2,0,3.6,1.6,3.6,3.6
		C534.8,233.5,533.2,235.1,531.2,235.1z"/>
	<path class="st1" d="M580.4,235.1c-2,0-3.6-1.6-3.6-3.6c0-2,1.6-3.6,3.6-3.6c2,0,3.6,1.6,3.6,3.6
		C584,233.5,582.4,235.1,580.4,235.1z"/>
	<path class="st1" d="M629.7,235.1c-2,0-3.6-1.6-3.6-3.6c0-2,1.6-3.6,3.6-3.6c2,0,3.6,1.6,3.6,3.6
		C633.2,233.5,631.6,235.1,629.7,235.1z"/>
	<path class="st1" d="M678.9,235.1c-2,0-3.6-1.6-3.6-3.6c0-2,1.6-3.6,3.6-3.6s3.6,1.6,3.6,3.6C682.5,233.5,680.9,235.1,678.9,235.1z
		"/>
	<path class="st1" d="M728.1,235.1c-2,0-3.6-1.6-3.6-3.6c0-2,1.6-3.6,3.6-3.6s3.6,1.6,3.6,3.6C731.7,233.5,730.1,235.1,728.1,235.1z
		"/>
	<path class="st1" d="M777.3,235.1c-2,0-3.6-1.6-3.6-3.6c0-2,1.6-3.6,3.6-3.6s3.6,1.6,3.6,3.6C780.9,233.5,779.3,235.1,777.3,235.1z
		"/>
	<path class="st1" d="M826.6,235.1c-2,0-3.6-1.6-3.6-3.6c0-2,1.6-3.6,3.6-3.6c2,0,3.6,1.6,3.6,3.6
		C830.1,233.5,828.5,235.1,826.6,235.1z"/>
	<path class="st1" d="M875.8,235.1c-2,0-3.6-1.6-3.6-3.6c0-2,1.6-3.6,3.6-3.6c2,0,3.6,1.6,3.6,3.6
		C879.4,233.5,877.8,235.1,875.8,235.1z"/>
	<path class="st1" d="M925,235.1c-2,0-3.6-1.6-3.6-3.6c0-2,1.6-3.6,3.6-3.6c2,0,3.6,1.6,3.6,3.6C928.6,233.5,927,235.1,925,235.1z"
		/>
	<path class="st1" d="M974.2,235.1c-2,0-3.6-1.6-3.6-3.6c0-2,1.6-3.6,3.6-3.6c2,0,3.6,1.6,3.6,3.6
		C977.8,233.5,976.2,235.1,974.2,235.1z"/>
	<path class="st1" d="M1023.5,235.1c-2,0-3.6-1.6-3.6-3.6c0-2,1.6-3.6,3.6-3.6c0.7,0,1.4,0.2,1.9,0.6v6
		C1024.8,234.9,1024.2,235.1,1023.5,235.1z"/>
	<path class="st1" d="M263.8,255.7c-2,0-3.6-1.6-3.6-3.6c0-2,1.6-3.6,3.6-3.6c2,0,3.6,1.6,3.6,3.6
		C267.4,254.1,265.8,255.7,263.8,255.7z"/>
	<path class="st1" d="M313.1,255.7c-2,0-3.6-1.6-3.6-3.6c0-2,1.6-3.6,3.6-3.6c2,0,3.6,1.6,3.6,3.6
		C316.6,254.1,315,255.7,313.1,255.7z"/>
	<path class="st1" d="M362.3,255.7c-2,0-3.6-1.6-3.6-3.6c0-2,1.6-3.6,3.6-3.6c2,0,3.6,1.6,3.6,3.6
		C365.9,254.1,364.3,255.7,362.3,255.7z"/>
	<path class="st1" d="M411.5,255.7c-2,0-3.6-1.6-3.6-3.6c0-2,1.6-3.6,3.6-3.6c2,0,3.6,1.6,3.6,3.6
		C415.1,254.1,413.5,255.7,411.5,255.7z"/>
	<path class="st1" d="M460.7,255.7c-2,0-3.6-1.6-3.6-3.6c0-2,1.6-3.6,3.6-3.6c2,0,3.6,1.6,3.6,3.6
		C464.3,254.1,462.7,255.7,460.7,255.7z"/>
	<path class="st1" d="M510,255.7c-2,0-3.6-1.6-3.6-3.6c0-2,1.6-3.6,3.6-3.6c2,0,3.6,1.6,3.6,3.6C513.5,254.1,511.9,255.7,510,255.7z
		"/>
	<path class="st1" d="M559.2,255.7c-2,0-3.6-1.6-3.6-3.6c0-2,1.6-3.6,3.6-3.6c2,0,3.6,1.6,3.6,3.6
		C562.8,254.1,561.2,255.7,559.2,255.7z"/>
	<path class="st1" d="M608.4,255.7c-2,0-3.6-1.6-3.6-3.6c0-2,1.6-3.6,3.6-3.6c2,0,3.6,1.6,3.6,3.6
		C612,254.1,610.4,255.7,608.4,255.7z"/>
	<path class="st1" d="M657.6,255.7c-2,0-3.6-1.6-3.6-3.6c0-2,1.6-3.6,3.6-3.6c2,0,3.6,1.6,3.6,3.6
		C661.2,254.1,659.6,255.7,657.6,255.7z"/>
	<path class="st1" d="M706.9,255.7c-2,0-3.6-1.6-3.6-3.6c0-2,1.6-3.6,3.6-3.6c2,0,3.6,1.6,3.6,3.6
		C710.4,254.1,708.8,255.7,706.9,255.7z"/>
	<path class="st1" d="M756.1,255.7c-2,0-3.6-1.6-3.6-3.6c0-2,1.6-3.6,3.6-3.6c2,0,3.6,1.6,3.6,3.6
		C759.7,254.1,758.1,255.7,756.1,255.7z"/>
	<path class="st1" d="M805.3,255.7c-2,0-3.6-1.6-3.6-3.6c0-2,1.6-3.6,3.6-3.6c2,0,3.6,1.6,3.6,3.6
		C808.9,254.1,807.3,255.7,805.3,255.7z"/>
	<path class="st1" d="M854.5,255.7c-2,0-3.6-1.6-3.6-3.6c0-2,1.6-3.6,3.6-3.6c2,0,3.6,1.6,3.6,3.6
		C858.1,254.1,856.5,255.7,854.5,255.7z"/>
	<path class="st1" d="M903.8,255.7c-2,0-3.6-1.6-3.6-3.6c0-2,1.6-3.6,3.6-3.6s3.6,1.6,3.6,3.6C907.3,254.1,905.7,255.7,903.8,255.7z
		"/>
	<path class="st1" d="M953,255.7c-2,0-3.6-1.6-3.6-3.6c0-2,1.6-3.6,3.6-3.6s3.6,1.6,3.6,3.6C956.6,254.1,955,255.7,953,255.7z"/>
	<path class="st1" d="M1002.2,255.7c-2,0-3.6-1.6-3.6-3.6c0-2,1.6-3.6,3.6-3.6s3.6,1.6,3.6,3.6
		C1005.8,254.1,1004.2,255.7,1002.2,255.7z"/>
	<path class="st1" d="M242.6,276.3c-2,0-3.6-1.6-3.6-3.6c0-2,1.6-3.6,3.6-3.6c2,0,3.6,1.6,3.6,3.6
		C246.2,274.7,244.6,276.3,242.6,276.3z"/>
	<path class="st1" d="M291.8,276.3c-2,0-3.6-1.6-3.6-3.6c0-2,1.6-3.6,3.6-3.6c2,0,3.6,1.6,3.6,3.6
		C295.4,274.7,293.8,276.3,291.8,276.3z"/>
	<path class="st1" d="M341,276.3c-2,0-3.6-1.6-3.6-3.6c0-2,1.6-3.6,3.6-3.6c2,0,3.6,1.6,3.6,3.6C344.6,274.7,343,276.3,341,276.3z"
		/>
	<path class="st1" d="M390.3,276.3c-2,0-3.6-1.6-3.6-3.6c0-2,1.6-3.6,3.6-3.6c2,0,3.6,1.6,3.6,3.6
		C393.8,274.7,392.2,276.3,390.3,276.3z"/>
	<path class="st1" d="M439.5,276.3c-2,0-3.6-1.6-3.6-3.6c0-2,1.6-3.6,3.6-3.6c2,0,3.6,1.6,3.6,3.6
		C443.1,274.7,441.5,276.3,439.5,276.3z"/>
	<path class="st1" d="M488.7,276.3c-2,0-3.6-1.6-3.6-3.6c0-2,1.6-3.6,3.6-3.6c2,0,3.6,1.6,3.6,3.6
		C492.3,274.7,490.7,276.3,488.7,276.3z"/>
	<path class="st1" d="M537.9,276.3c-2,0-3.6-1.6-3.6-3.6c0-2,1.6-3.6,3.6-3.6c2,0,3.6,1.6,3.6,3.6
		C541.5,274.7,539.9,276.3,537.9,276.3z"/>
	<path class="st1" d="M587.2,276.3c-2,0-3.6-1.6-3.6-3.6c0-2,1.6-3.6,3.6-3.6c2,0,3.6,1.6,3.6,3.6
		C590.7,274.7,589.1,276.3,587.2,276.3z"/>
	<path class="st1" d="M636.4,276.3c-2,0-3.6-1.6-3.6-3.6c0-2,1.6-3.6,3.6-3.6c2,0,3.6,1.6,3.6,3.6
		C640,274.7,638.4,276.3,636.4,276.3z"/>
	<path class="st1" d="M685.6,276.3c-2,0-3.6-1.6-3.6-3.6c0-2,1.6-3.6,3.6-3.6c2,0,3.6,1.6,3.6,3.6
		C689.2,274.7,687.6,276.3,685.6,276.3z"/>
	<path class="st1" d="M734.8,276.3c-2,0-3.6-1.6-3.6-3.6c0-2,1.6-3.6,3.6-3.6c2,0,3.6,1.6,3.6,3.6
		C738.4,274.7,736.8,276.3,734.8,276.3z"/>
	<path class="st1" d="M784.1,276.3c-2,0-3.6-1.6-3.6-3.6c0-2,1.6-3.6,3.6-3.6c2,0,3.6,1.6,3.6,3.6
		C787.6,274.7,786,276.3,784.1,276.3z"/>
	<path class="st1" d="M833.3,276.3c-2,0-3.6-1.6-3.6-3.6c0-2,1.6-3.6,3.6-3.6s3.6,1.6,3.6,3.6C836.9,274.7,835.3,276.3,833.3,276.3z
		"/>
	<path class="st1" d="M882.5,276.3c-2,0-3.6-1.6-3.6-3.6c0-2,1.6-3.6,3.6-3.6s3.6,1.6,3.6,3.6C886.1,274.7,884.5,276.3,882.5,276.3z
		"/>
	<path class="st1" d="M931.7,276.3c-2,0-3.6-1.6-3.6-3.6c0-2,1.6-3.6,3.6-3.6c2,0,3.6,1.6,3.6,3.6
		C935.3,274.7,933.7,276.3,931.7,276.3z"/>
	<path class="st1" d="M981,276.3c-2,0-3.6-1.6-3.6-3.6c0-2,1.6-3.6,3.6-3.6c2,0,3.6,1.6,3.6,3.6C984.5,274.7,982.9,276.3,981,276.3z
		"/>
	<path class="st1" d="M1024.6,272.8c0,2.1,1.1,3.8,2.8,4.8v-9.6C1025.8,268.9,1024.6,270.7,1024.6,272.8z"/>
	<path class="st1" d="M270.6,296.9c-2,0-3.6-1.6-3.6-3.6c0-2,1.6-3.6,3.6-3.6c2,0,3.6,1.6,3.6,3.6
		C274.1,295.3,272.5,296.9,270.6,296.9z"/>
	<path class="st1" d="M319.8,296.9c-2,0-3.6-1.6-3.6-3.6c0-2,1.6-3.6,3.6-3.6c2,0,3.6,1.6,3.6,3.6
		C323.4,295.3,321.8,296.9,319.8,296.9z"/>
	<path class="st1" d="M369,296.9c-2,0-3.6-1.6-3.6-3.6c0-2,1.6-3.6,3.6-3.6c2,0,3.6,1.6,3.6,3.6C372.6,295.3,371,296.9,369,296.9z"
		/>
	<path class="st1" d="M418.2,296.9c-2,0-3.6-1.6-3.6-3.6c0-2,1.6-3.6,3.6-3.6c2,0,3.6,1.6,3.6,3.6
		C421.8,295.3,420.2,296.9,418.2,296.9z"/>
	<path class="st1" d="M467.5,296.9c-2,0-3.6-1.6-3.6-3.6c0-2,1.6-3.6,3.6-3.6c2,0,3.6,1.6,3.6,3.6
		C471,295.3,469.4,296.9,467.5,296.9z"/>
	<path class="st1" d="M516.7,296.9c-2,0-3.6-1.6-3.6-3.6c0-2,1.6-3.6,3.6-3.6c2,0,3.6,1.6,3.6,3.6
		C520.3,295.3,518.7,296.9,516.7,296.9z"/>
	<path class="st1" d="M565.9,296.9c-2,0-3.6-1.6-3.6-3.6c0-2,1.6-3.6,3.6-3.6c2,0,3.6,1.6,3.6,3.6
		C569.5,295.3,567.9,296.9,565.9,296.9z"/>
	<path class="st1" d="M615.1,296.9c-2,0-3.6-1.6-3.6-3.6c0-2,1.6-3.6,3.6-3.6c2,0,3.6,1.6,3.6,3.6
		C618.7,295.3,617.1,296.9,615.1,296.9z"/>
	<path class="st1" d="M664.4,296.9c-2,0-3.6-1.6-3.6-3.6c0-2,1.6-3.6,3.6-3.6c2,0,3.6,1.6,3.6,3.6
		C667.9,295.3,666.3,296.9,664.4,296.9z"/>
	<path class="st1" d="M713.6,296.9c-2,0-3.6-1.6-3.6-3.6c0-2,1.6-3.6,3.6-3.6c2,0,3.6,1.6,3.6,3.6
		C717.2,295.3,715.6,296.9,713.6,296.9z"/>
	<path class="st1" d="M762.8,296.9c-2,0-3.6-1.6-3.6-3.6c0-2,1.6-3.6,3.6-3.6c2,0,3.6,1.6,3.6,3.6
		C766.4,295.3,764.8,296.9,762.8,296.9z"/>
	<path class="st1" d="M812,296.9c-2,0-3.6-1.6-3.6-3.6c0-2,1.6-3.6,3.6-3.6c2,0,3.6,1.6,3.6,3.6C815.6,295.3,814,296.9,812,296.9z"
		/>
	<path class="st1" d="M861.3,296.9c-2,0-3.6-1.6-3.6-3.6c0-2,1.6-3.6,3.6-3.6c2,0,3.6,1.6,3.6,3.6
		C864.8,295.3,863.2,296.9,861.3,296.9z"/>
	<path class="st1" d="M910.5,296.9c-2,0-3.6-1.6-3.6-3.6c0-2,1.6-3.6,3.6-3.6c2,0,3.6,1.6,3.6,3.6
		C914.1,295.3,912.5,296.9,910.5,296.9z"/>
	<path class="st1" d="M959.7,296.9c-2,0-3.6-1.6-3.6-3.6c0-2,1.6-3.6,3.6-3.6c2,0,3.6,1.6,3.6,3.6
		C963.3,295.3,961.7,296.9,959.7,296.9z"/>
	<path class="st1" d="M1008.9,296.9c-2,0-3.6-1.6-3.6-3.6c0-2,1.6-3.6,3.6-3.6c2,0,3.6,1.6,3.6,3.6
		C1012.5,295.3,1010.9,296.9,1008.9,296.9z"/>
	<path class="st1" d="M249.3,317.6c-2,0-3.6-1.6-3.6-3.6c0-2,1.6-3.6,3.6-3.6c2,0,3.6,1.6,3.6,3.6
		C252.9,316,251.3,317.6,249.3,317.6z"/>
	<path class="st1" d="M298.5,317.6c-2,0-3.6-1.6-3.6-3.6c0-2,1.6-3.6,3.6-3.6c2,0,3.6,1.6,3.6,3.6
		C302.1,316,300.5,317.6,298.5,317.6z"/>
	<path class="st1" d="M347.8,317.6c-2,0-3.6-1.6-3.6-3.6c0-2,1.6-3.6,3.6-3.6c2,0,3.6,1.6,3.6,3.6
		C351.3,316,349.7,317.6,347.8,317.6z"/>
	<path class="st1" d="M397,317.6c-2,0-3.6-1.6-3.6-3.6c0-2,1.6-3.6,3.6-3.6c2,0,3.6,1.6,3.6,3.6C400.5,316,398.9,317.6,397,317.6z"
		/>
	<path class="st1" d="M446.2,317.6c-2,0-3.6-1.6-3.6-3.6c0-2,1.6-3.6,3.6-3.6c2,0,3.6,1.6,3.6,3.6
		C449.8,316,448.2,317.6,446.2,317.6z"/>
	<path class="st1" d="M495.4,317.6c-2,0-3.6-1.6-3.6-3.6c0-2,1.6-3.6,3.6-3.6c2,0,3.6,1.6,3.6,3.6C499,316,497.4,317.6,495.4,317.6z
		"/>
	<path class="st1" d="M544.7,317.6c-2,0-3.6-1.6-3.6-3.6c0-2,1.6-3.6,3.6-3.6c2,0,3.6,1.6,3.6,3.6
		C548.2,316,546.6,317.6,544.7,317.6z"/>
	<path class="st1" d="M593.9,317.6c-2,0-3.6-1.6-3.6-3.6c0-2,1.6-3.6,3.6-3.6c2,0,3.6,1.6,3.6,3.6
		C597.5,316,595.8,317.6,593.9,317.6z"/>
	<path class="st1" d="M643.1,317.6c-2,0-3.6-1.6-3.6-3.6c0-2,1.6-3.6,3.6-3.6c2,0,3.6,1.6,3.6,3.6
		C646.7,316,645.1,317.6,643.1,317.6z"/>
	<path class="st1" d="M692.3,317.6c-2,0-3.6-1.6-3.6-3.6c0-2,1.6-3.6,3.6-3.6s3.6,1.6,3.6,3.6C695.9,316,694.3,317.6,692.3,317.6z"
		/>
	<path class="st1" d="M741.6,317.6c-2,0-3.6-1.6-3.6-3.6c0-2,1.6-3.6,3.6-3.6c2,0,3.6,1.6,3.6,3.6
		C745.1,316,743.5,317.6,741.6,317.6z"/>
	<path class="st1" d="M790.8,317.6c-2,0-3.6-1.6-3.6-3.6c0-2,1.6-3.6,3.6-3.6c2,0,3.6,1.6,3.6,3.6
		C794.4,316,792.8,317.6,790.8,317.6z"/>
	<path class="st1" d="M840,317.6c-2,0-3.6-1.6-3.6-3.6c0-2,1.6-3.6,3.6-3.6c2,0,3.6,1.6,3.6,3.6C843.6,316,842,317.6,840,317.6z"/>
	<path class="st1" d="M889.2,317.6c-2,0-3.6-1.6-3.6-3.6c0-2,1.6-3.6,3.6-3.6s3.6,1.6,3.6,3.6C892.8,316,891.2,317.6,889.2,317.6z"
		/>
	<path class="st1" d="M938.5,317.6c-2,0-3.6-1.6-3.6-3.6c0-2,1.6-3.6,3.6-3.6c2,0,3.6,1.6,3.6,3.6C942,316,940.4,317.6,938.5,317.6z
		"/>
	<path class="st1" d="M987.7,317.6c-2,0-3.6-1.6-3.6-3.6c0-2,1.6-3.6,3.6-3.6c2,0,3.6,1.6,3.6,3.6
		C991.3,316,989.7,317.6,987.7,317.6z"/>
	<path class="st1" d="M233.6,334.6c0-1.9-1-3.6-2.4-4.6v9.2C232.7,338.2,233.6,336.5,233.6,334.6z"/>
	<path class="st1" d="M277.3,338.2c-2,0-3.6-1.6-3.6-3.6c0-2,1.6-3.6,3.6-3.6c2,0,3.6,1.6,3.6,3.6
		C280.8,336.6,279.2,338.2,277.3,338.2z"/>
	<path class="st1" d="M326.5,338.2c-2,0-3.6-1.6-3.6-3.6c0-2,1.6-3.6,3.6-3.6c2,0,3.6,1.6,3.6,3.6
		C330.1,336.6,328.5,338.2,326.5,338.2z"/>
	<path class="st1" d="M375.7,338.2c-2,0-3.6-1.6-3.6-3.6c0-2,1.6-3.6,3.6-3.6c2,0,3.6,1.6,3.6,3.6
		C379.3,336.6,377.7,338.2,375.7,338.2z"/>
	<path class="st1" d="M425,338.2c-2,0-3.6-1.6-3.6-3.6c0-2,1.6-3.6,3.6-3.6c2,0,3.6,1.6,3.6,3.6C428.5,336.6,426.9,338.2,425,338.2z
		"/>
	<path class="st1" d="M474.2,338.2c-2,0-3.6-1.6-3.6-3.6c0-2,1.6-3.6,3.6-3.6c2,0,3.6,1.6,3.6,3.6
		C477.7,336.6,476.1,338.2,474.2,338.2z"/>
	<path class="st1" d="M523.4,338.2c-2,0-3.6-1.6-3.6-3.6c0-2,1.6-3.6,3.6-3.6c2,0,3.6,1.6,3.6,3.6
		C527,336.6,525.4,338.2,523.4,338.2z"/>
	<path class="st1" d="M572.6,338.2c-2,0-3.6-1.6-3.6-3.6c0-2,1.6-3.6,3.6-3.6c2,0,3.6,1.6,3.6,3.6
		C576.2,336.6,574.6,338.2,572.6,338.2z"/>
	<path class="st1" d="M621.9,338.2c-2,0-3.6-1.6-3.6-3.6c0-2,1.6-3.6,3.6-3.6c2,0,3.6,1.6,3.6,3.6
		C625.4,336.6,623.8,338.2,621.9,338.2z"/>
	<path class="st1" d="M671.1,338.2c-2,0-3.6-1.6-3.6-3.6c0-2,1.6-3.6,3.6-3.6s3.6,1.6,3.6,3.6C674.6,336.6,673,338.2,671.1,338.2z"
		/>
	<path class="st1" d="M720.3,338.2c-2,0-3.6-1.6-3.6-3.6c0-2,1.6-3.6,3.6-3.6c2,0,3.6,1.6,3.6,3.6
		C723.9,336.6,722.3,338.2,720.3,338.2z"/>
	<path class="st1" d="M769.5,338.2c-2,0-3.6-1.6-3.6-3.6c0-2,1.6-3.6,3.6-3.6c2,0,3.6,1.6,3.6,3.6
		C773.1,336.6,771.5,338.2,769.5,338.2z"/>
	<path class="st1" d="M818.8,338.2c-2,0-3.6-1.6-3.6-3.6c0-2,1.6-3.6,3.6-3.6s3.6,1.6,3.6,3.6C822.3,336.6,820.7,338.2,818.8,338.2z
		"/>
	<path class="st1" d="M868,338.2c-2,0-3.6-1.6-3.6-3.6c0-2,1.6-3.6,3.6-3.6c2,0,3.6,1.6,3.6,3.6C871.6,336.6,870,338.2,868,338.2z"
		/>
	<path class="st1" d="M917.2,338.2c-2,0-3.6-1.6-3.6-3.6c0-2,1.6-3.6,3.6-3.6c2,0,3.6,1.6,3.6,3.6
		C920.8,336.6,919.2,338.2,917.2,338.2z"/>
	<path class="st1" d="M966.4,338.2c-2,0-3.6-1.6-3.6-3.6c0-2,1.6-3.6,3.6-3.6c2,0,3.6,1.6,3.6,3.6
		C970,336.6,968.4,338.2,966.4,338.2z"/>
	<path class="st1" d="M1015.7,338.2c-2,0-3.6-1.6-3.6-3.6c0-2,1.6-3.6,3.6-3.6s3.6,1.6,3.6,3.6
		C1019.2,336.6,1017.6,338.2,1015.7,338.2z"/>
	<path class="st1" d="M256,358.8c-2,0-3.6-1.6-3.6-3.6c0-2,1.6-3.6,3.6-3.6c2,0,3.6,1.6,3.6,3.6C259.6,357.2,258,358.8,256,358.8z"
		/>
	<path class="st1" d="M305.2,358.8c-2,0-3.6-1.6-3.6-3.6c0-2,1.6-3.6,3.6-3.6c2,0,3.6,1.6,3.6,3.6
		C308.8,357.2,307.2,358.8,305.2,358.8z"/>
	<path class="st1" d="M354.5,358.8c-2,0-3.6-1.6-3.6-3.6c0-2,1.6-3.6,3.6-3.6c2,0,3.6,1.6,3.6,3.6
		C358,357.2,356.4,358.8,354.5,358.8z"/>
	<path class="st1" d="M403.7,358.8c-2,0-3.6-1.6-3.6-3.6c0-2,1.6-3.6,3.6-3.6s3.6,1.6,3.6,3.6C407.3,357.2,405.7,358.8,403.7,358.8z
		"/>
	<path class="st1" d="M452.9,358.8c-2,0-3.6-1.6-3.6-3.6c0-2,1.6-3.6,3.6-3.6c2,0,3.6,1.6,3.6,3.6
		C456.5,357.2,454.9,358.8,452.9,358.8z"/>
	<path class="st1" d="M502.2,358.8c-2,0-3.6-1.6-3.6-3.6c0-2,1.6-3.6,3.6-3.6c2,0,3.6,1.6,3.6,3.6
		C505.7,357.2,504.1,358.8,502.2,358.8z"/>
	<path class="st1" d="M551.4,358.8c-2,0-3.6-1.6-3.6-3.6c0-2,1.6-3.6,3.6-3.6c2,0,3.6,1.6,3.6,3.6
		C554.9,357.2,553.3,358.8,551.4,358.8z"/>
	<path class="st1" d="M600.6,358.8c-2,0-3.6-1.6-3.6-3.6c0-2,1.6-3.6,3.6-3.6c2,0,3.6,1.6,3.6,3.6
		C604.2,357.2,602.6,358.8,600.6,358.8z"/>
	<path class="st1" d="M649.8,358.8c-2,0-3.6-1.6-3.6-3.6c0-2,1.6-3.6,3.6-3.6c2,0,3.6,1.6,3.6,3.6
		C653.4,357.2,651.8,358.8,649.8,358.8z"/>
	<path class="st1" d="M699.1,358.8c-2,0-3.6-1.6-3.6-3.6c0-2,1.6-3.6,3.6-3.6c2,0,3.6,1.6,3.6,3.6
		C702.6,357.2,701,358.8,699.1,358.8z"/>
	<path class="st1" d="M748.3,358.8c-2,0-3.6-1.6-3.6-3.6c0-2,1.6-3.6,3.6-3.6c2,0,3.6,1.6,3.6,3.6
		C751.8,357.2,750.2,358.8,748.3,358.8z"/>
	<path class="st1" d="M797.5,358.8c-2,0-3.6-1.6-3.6-3.6c0-2,1.6-3.6,3.6-3.6c2,0,3.6,1.6,3.6,3.6
		C801.1,357.2,799.5,358.8,797.5,358.8z"/>
	<path class="st1" d="M846.7,358.8c-2,0-3.6-1.6-3.6-3.6c0-2,1.6-3.6,3.6-3.6s3.6,1.6,3.6,3.6C850.3,357.2,848.7,358.8,846.7,358.8z
		"/>
	<path class="st1" d="M896,358.8c-2,0-3.6-1.6-3.6-3.6c0-2,1.6-3.6,3.6-3.6c2,0,3.6,1.6,3.6,3.6C899.5,357.2,897.9,358.8,896,358.8z
		"/>
	<path class="st1" d="M945.2,358.8c-2,0-3.6-1.6-3.6-3.6c0-2,1.6-3.6,3.6-3.6s3.6,1.6,3.6,3.6C948.8,357.2,947.2,358.8,945.2,358.8z
		"/>
	<path class="st1" d="M994.4,358.8c-2,0-3.6-1.6-3.6-3.6c0-2,1.6-3.6,3.6-3.6s3.6,1.6,3.6,3.6C998,357.2,996.4,358.8,994.4,358.8z"
		/>
	<path class="st1" d="M234.8,379.4c-0.6,0-1.2-0.2-1.6-0.4v-6.4c0.4-0.2,1-0.4,1.6-0.4c2,0,3.6,1.6,3.6,3.6
		C238.3,377.8,236.7,379.4,234.8,379.4z"/>
	<path class="st1" d="M284,379.4c-2,0-3.6-1.6-3.6-3.6c0-2,1.6-3.6,3.6-3.6c2,0,3.6,1.6,3.6,3.6C287.6,377.8,286,379.4,284,379.4z"
		/>
	<path class="st1" d="M333.2,379.4c-2,0-3.6-1.6-3.6-3.6c0-2,1.6-3.6,3.6-3.6c2,0,3.6,1.6,3.6,3.6
		C336.8,377.8,335.2,379.4,333.2,379.4z"/>
	<path class="st1" d="M382.4,379.4c-2,0-3.6-1.6-3.6-3.6c0-2,1.6-3.6,3.6-3.6c2,0,3.6,1.6,3.6,3.6
		C386,377.8,384.4,379.4,382.4,379.4z"/>
	<path class="st1" d="M431.7,379.4c-2,0-3.6-1.6-3.6-3.6c0-2,1.6-3.6,3.6-3.6c2,0,3.6,1.6,3.6,3.6
		C435.2,377.8,433.6,379.4,431.7,379.4z"/>
	<path class="st1" d="M480.9,379.4c-2,0-3.6-1.6-3.6-3.6c0-2,1.6-3.6,3.6-3.6c2,0,3.6,1.6,3.6,3.6
		C484.5,377.8,482.9,379.4,480.9,379.4z"/>
	<path class="st1" d="M530.1,379.4c-2,0-3.6-1.6-3.6-3.6c0-2,1.6-3.6,3.6-3.6c2,0,3.6,1.6,3.6,3.6
		C533.7,377.8,532.1,379.4,530.1,379.4z"/>
	<path class="st1" d="M579.3,379.4c-2,0-3.6-1.6-3.6-3.6c0-2,1.6-3.6,3.6-3.6c2,0,3.6,1.6,3.6,3.6
		C582.9,377.8,581.3,379.4,579.3,379.4z"/>
	<path class="st1" d="M628.6,379.4c-2,0-3.6-1.6-3.6-3.6c0-2,1.6-3.6,3.6-3.6c2,0,3.6,1.6,3.6,3.6
		C632.1,377.8,630.5,379.4,628.6,379.4z"/>
	<path class="st1" d="M677.8,379.4c-2,0-3.6-1.6-3.6-3.6c0-2,1.6-3.6,3.6-3.6s3.6,1.6,3.6,3.6C681.4,377.8,679.8,379.4,677.8,379.4z
		"/>
	<path class="st1" d="M727,379.4c-2,0-3.6-1.6-3.6-3.6c0-2,1.6-3.6,3.6-3.6s3.6,1.6,3.6,3.6C730.6,377.8,729,379.4,727,379.4z"/>
	<path class="st1" d="M776.2,379.4c-2,0-3.6-1.6-3.6-3.6c0-2,1.6-3.6,3.6-3.6c2,0,3.6,1.6,3.6,3.6
		C779.8,377.8,778.2,379.4,776.2,379.4z"/>
	<path class="st1" d="M825.5,379.4c-2,0-3.6-1.6-3.6-3.6c0-2,1.6-3.6,3.6-3.6c2,0,3.6,1.6,3.6,3.6
		C829.1,377.8,827.4,379.4,825.5,379.4z"/>
	<path class="st1" d="M874.7,379.4c-2,0-3.6-1.6-3.6-3.6c0-2,1.6-3.6,3.6-3.6c2,0,3.6,1.6,3.6,3.6
		C878.3,377.8,876.7,379.4,874.7,379.4z"/>
	<path class="st1" d="M923.9,379.4c-2,0-3.6-1.6-3.6-3.6c0-2,1.6-3.6,3.6-3.6c2,0,3.6,1.6,3.6,3.6
		C927.5,377.8,925.9,379.4,923.9,379.4z"/>
	<path class="st1" d="M973.2,379.4c-2,0-3.6-1.6-3.6-3.6c0-2,1.6-3.6,3.6-3.6c2,0,3.6,1.6,3.6,3.6
		C976.7,377.8,975.1,379.4,973.2,379.4z"/>
	<path class="st1" d="M1022.4,379.4c-2,0-3.6-1.6-3.6-3.6c0-2,1.6-3.6,3.6-3.6c1.3,0,2.4,0.6,3,1.7v3.7
		C1024.8,378.8,1023.6,379.4,1022.4,379.4z"/>
	<path class="st1" d="M262.7,400c-2,0-3.6-1.6-3.6-3.6c0-2,1.6-3.6,3.6-3.6c2,0,3.6,1.6,3.6,3.6C266.3,398.4,264.7,400,262.7,400z"
		/>
	<path class="st1" d="M312,400c-2,0-3.6-1.6-3.6-3.6c0-2,1.6-3.6,3.6-3.6c2,0,3.6,1.6,3.6,3.6C315.5,398.4,313.9,400,312,400z"/>
	<path class="st1" d="M361.2,400c-2,0-3.6-1.6-3.6-3.6c0-2,1.6-3.6,3.6-3.6c2,0,3.6,1.6,3.6,3.6C364.8,398.4,363.2,400,361.2,400z"
		/>
	<path class="st1" d="M410.4,400c-2,0-3.6-1.6-3.6-3.6c0-2,1.6-3.6,3.6-3.6c2,0,3.6,1.6,3.6,3.6C414,398.4,412.4,400,410.4,400z"/>
	<path class="st1" d="M459.6,400c-2,0-3.6-1.6-3.6-3.6c0-2,1.6-3.6,3.6-3.6c2,0,3.6,1.6,3.6,3.6C463.2,398.4,461.6,400,459.6,400z"
		/>
	<path class="st1" d="M508.9,400c-2,0-3.6-1.6-3.6-3.6c0-2,1.6-3.6,3.6-3.6c2,0,3.6,1.6,3.6,3.6C512.4,398.4,510.8,400,508.9,400z"
		/>
	<path class="st1" d="M558.1,400c-2,0-3.6-1.6-3.6-3.6c0-2,1.6-3.6,3.6-3.6c2,0,3.6,1.6,3.6,3.6C561.7,398.4,560.1,400,558.1,400z"
		/>
	<path class="st1" d="M607.3,400c-2,0-3.6-1.6-3.6-3.6c0-2,1.6-3.6,3.6-3.6c2,0,3.6,1.6,3.6,3.6C610.9,398.4,609.3,400,607.3,400z"
		/>
	<path class="st1" d="M656.5,400c-2,0-3.6-1.6-3.6-3.6c0-2,1.6-3.6,3.6-3.6c2,0,3.6,1.6,3.6,3.6C660.1,398.4,658.5,400,656.5,400z"
		/>
	<path class="st1" d="M705.8,400c-2,0-3.6-1.6-3.6-3.6c0-2,1.6-3.6,3.6-3.6c2,0,3.6,1.6,3.6,3.6C709.3,398.4,707.7,400,705.8,400z"
		/>
	<path class="st1" d="M755,400c-2,0-3.6-1.6-3.6-3.6c0-2,1.6-3.6,3.6-3.6c2,0,3.6,1.6,3.6,3.6C758.6,398.4,757,400,755,400z"/>
	<path class="st1" d="M804.2,400c-2,0-3.6-1.6-3.6-3.6c0-2,1.6-3.6,3.6-3.6c2,0,3.6,1.6,3.6,3.6C807.8,398.4,806.2,400,804.2,400z"
		/>
	<path class="st1" d="M853.5,400c-2,0-3.6-1.6-3.6-3.6c0-2,1.6-3.6,3.6-3.6c2,0,3.6,1.6,3.6,3.6C857,398.4,855.4,400,853.5,400z"/>
	<path class="st1" d="M902.7,400c-2,0-3.6-1.6-3.6-3.6c0-2,1.6-3.6,3.6-3.6c2,0,3.6,1.6,3.6,3.6C906.2,398.4,904.6,400,902.7,400z"
		/>
	<path class="st1" d="M951.9,400c-2,0-3.6-1.6-3.6-3.6c0-2,1.6-3.6,3.6-3.6s3.6,1.6,3.6,3.6C955.5,398.4,953.9,400,951.9,400z"/>
	<path class="st1" d="M1001.1,400c-2,0-3.6-1.6-3.6-3.6c0-2,1.6-3.6,3.6-3.6c2,0,3.6,1.6,3.6,3.6
		C1004.7,398.4,1003.1,400,1001.1,400z"/>
	<path class="st1" d="M241.5,420.6c-2,0-3.6-1.6-3.6-3.6s1.6-3.6,3.6-3.6c2,0,3.6,1.6,3.6,3.6S243.5,420.6,241.5,420.6z"/>
	<path class="st1" d="M290.7,420.6c-2,0-3.6-1.6-3.6-3.6s1.6-3.6,3.6-3.6c2,0,3.6,1.6,3.6,3.6S292.7,420.6,290.7,420.6z"/>
	<path class="st1" d="M339.9,420.6c-2,0-3.6-1.6-3.6-3.6s1.6-3.6,3.6-3.6c2,0,3.6,1.6,3.6,3.6S341.9,420.6,339.9,420.6z"/>
	<path class="st1" d="M389.2,420.6c-2,0-3.6-1.6-3.6-3.6s1.6-3.6,3.6-3.6c2,0,3.6,1.6,3.6,3.6S391.1,420.6,389.2,420.6z"/>
	<path class="st1" d="M438.4,420.6c-2,0-3.6-1.6-3.6-3.6s1.6-3.6,3.6-3.6c2,0,3.6,1.6,3.6,3.6S440.4,420.6,438.4,420.6z"/>
	<path class="st1" d="M487.6,420.6c-2,0-3.6-1.6-3.6-3.6s1.6-3.6,3.6-3.6c2,0,3.6,1.6,3.6,3.6S489.6,420.6,487.6,420.6z"/>
	<path class="st1" d="M536.8,420.6c-2,0-3.6-1.6-3.6-3.6s1.6-3.6,3.6-3.6c2,0,3.6,1.6,3.6,3.6S538.8,420.6,536.8,420.6z"/>
	<path class="st1" d="M586.1,420.6c-2,0-3.6-1.6-3.6-3.6s1.6-3.6,3.6-3.6c2,0,3.6,1.6,3.6,3.6S588,420.6,586.1,420.6z"/>
	<path class="st1" d="M635.3,420.6c-2,0-3.6-1.6-3.6-3.6s1.6-3.6,3.6-3.6c2,0,3.6,1.6,3.6,3.6S637.3,420.6,635.3,420.6z"/>
	<path class="st1" d="M684.5,420.6c-2,0-3.6-1.6-3.6-3.6s1.6-3.6,3.6-3.6c2,0,3.6,1.6,3.6,3.6S686.5,420.6,684.5,420.6z"/>
	<path class="st1" d="M733.7,420.6c-2,0-3.6-1.6-3.6-3.6s1.6-3.6,3.6-3.6c2,0,3.6,1.6,3.6,3.6S735.7,420.6,733.7,420.6z"/>
	<path class="st1" d="M783,420.6c-2,0-3.6-1.6-3.6-3.6s1.6-3.6,3.6-3.6c2,0,3.6,1.6,3.6,3.6S784.9,420.6,783,420.6z"/>
	<path class="st1" d="M832.2,420.6c-2,0-3.6-1.6-3.6-3.6s1.6-3.6,3.6-3.6c2,0,3.6,1.6,3.6,3.6S834.2,420.6,832.2,420.6z"/>
	<path class="st1" d="M881.4,420.6c-2,0-3.6-1.6-3.6-3.6s1.6-3.6,3.6-3.6c2,0,3.6,1.6,3.6,3.6S883.4,420.6,881.4,420.6z"/>
	<path class="st1" d="M930.7,420.6c-2,0-3.6-1.6-3.6-3.6s1.6-3.6,3.6-3.6c2,0,3.6,1.6,3.6,3.6S932.6,420.6,930.7,420.6z"/>
	<path class="st1" d="M979.9,420.6c-2,0-3.6-1.6-3.6-3.6s1.6-3.6,3.6-3.6c2,0,3.6,1.6,3.6,3.6S981.8,420.6,979.9,420.6z"/>
	<path class="st1" d="M1023.5,417.1c0,2.5,1.6,4.6,3.9,5.3v-10.6C1025.2,412.5,1023.5,414.6,1023.5,417.1z"/>
	<path class="st1" d="M269.5,441.3c-2,0-3.6-1.6-3.6-3.6c0-2,1.6-3.6,3.6-3.6c2,0,3.6,1.6,3.6,3.6
		C273,439.7,271.4,441.3,269.5,441.3z"/>
	<path class="st1" d="M318.7,441.3c-2,0-3.6-1.6-3.6-3.6c0-2,1.6-3.6,3.6-3.6c2,0,3.6,1.6,3.6,3.6
		C322.3,439.7,320.7,441.3,318.7,441.3z"/>
	<path class="st1" d="M367.9,441.3c-2,0-3.6-1.6-3.6-3.6c0-2,1.6-3.6,3.6-3.6c2,0,3.6,1.6,3.6,3.6
		C371.5,439.7,369.9,441.3,367.9,441.3z"/>
	<path class="st1" d="M417.1,441.3c-2,0-3.6-1.6-3.6-3.6c0-2,1.6-3.6,3.6-3.6c2,0,3.6,1.6,3.6,3.6
		C420.7,439.7,419.1,441.3,417.1,441.3z"/>
	<path class="st1" d="M466.4,441.3c-2,0-3.6-1.6-3.6-3.6c0-2,1.6-3.6,3.6-3.6c2,0,3.6,1.6,3.6,3.6
		C469.9,439.7,468.3,441.3,466.4,441.3z"/>
	<path class="st1" d="M515.6,441.3c-2,0-3.6-1.6-3.6-3.6c0-2,1.6-3.6,3.6-3.6c2,0,3.6,1.6,3.6,3.6
		C519.2,439.7,517.6,441.3,515.6,441.3z"/>
	<path class="st1" d="M564.8,441.3c-2,0-3.6-1.6-3.6-3.6c0-2,1.6-3.6,3.6-3.6c2,0,3.6,1.6,3.6,3.6
		C568.4,439.7,566.8,441.3,564.8,441.3z"/>
	<path class="st1" d="M614,441.3c-2,0-3.6-1.6-3.6-3.6c0-2,1.6-3.6,3.6-3.6c2,0,3.6,1.6,3.6,3.6C617.6,439.7,616,441.3,614,441.3z"
		/>
	<path class="st1" d="M663.3,441.3c-2,0-3.6-1.6-3.6-3.6c0-2,1.6-3.6,3.6-3.6c2,0,3.6,1.6,3.6,3.6
		C666.8,439.7,665.2,441.3,663.3,441.3z"/>
	<path class="st1" d="M712.5,441.3c-2,0-3.6-1.6-3.6-3.6c0-2,1.6-3.6,3.6-3.6c2,0,3.6,1.6,3.6,3.6
		C716.1,439.7,714.5,441.3,712.5,441.3z"/>
	<path class="st1" d="M761.7,441.3c-2,0-3.6-1.6-3.6-3.6c0-2,1.6-3.6,3.6-3.6c2,0,3.6,1.6,3.6,3.6
		C765.3,439.7,763.7,441.3,761.7,441.3z"/>
	<path class="st1" d="M810.9,441.3c-2,0-3.6-1.6-3.6-3.6c0-2,1.6-3.6,3.6-3.6c2,0,3.6,1.6,3.6,3.6
		C814.5,439.7,812.9,441.3,810.9,441.3z"/>
	<path class="st1" d="M860.2,441.3c-2,0-3.6-1.6-3.6-3.6c0-2,1.6-3.6,3.6-3.6c2,0,3.6,1.6,3.6,3.6
		C863.7,439.7,862.1,441.3,860.2,441.3z"/>
	<path class="st1" d="M909.4,441.3c-2,0-3.6-1.6-3.6-3.6c0-2,1.6-3.6,3.6-3.6s3.6,1.6,3.6,3.6C913,439.7,911.4,441.3,909.4,441.3z"
		/>
	<path class="st1" d="M958.6,441.3c-2,0-3.6-1.6-3.6-3.6c0-2,1.6-3.6,3.6-3.6c2,0,3.6,1.6,3.6,3.6
		C962.2,439.7,960.6,441.3,958.6,441.3z"/>
	<path class="st1" d="M1007.8,441.3c-2,0-3.6-1.6-3.6-3.6c0-2,1.6-3.6,3.6-3.6c2,0,3.6,1.6,3.6,3.6
		C1011.4,439.7,1009.8,441.3,1007.8,441.3z"/>
	<path class="st1" d="M248.2,461.9c-2,0-3.6-1.6-3.6-3.6c0-2,1.6-3.6,3.6-3.6c2,0,3.6,1.6,3.6,3.6
		C251.8,460.3,250.2,461.9,248.2,461.9z"/>
	<path class="st1" d="M297.4,461.9c-2,0-3.6-1.6-3.6-3.6c0-2,1.6-3.6,3.6-3.6c2,0,3.6,1.6,3.6,3.6
		C301,460.3,299.4,461.9,297.4,461.9z"/>
	<path class="st1" d="M346.7,461.9c-2,0-3.6-1.6-3.6-3.6c0-2,1.6-3.6,3.6-3.6c2,0,3.6,1.6,3.6,3.6
		C350.2,460.3,348.6,461.9,346.7,461.9z"/>
	<path class="st1" d="M395.9,461.9c-2,0-3.6-1.6-3.6-3.6c0-2,1.6-3.6,3.6-3.6c2,0,3.6,1.6,3.6,3.6
		C399.5,460.3,397.9,461.9,395.9,461.9z"/>
	<path class="st1" d="M445.1,461.9c-2,0-3.6-1.6-3.6-3.6c0-2,1.6-3.6,3.6-3.6c2,0,3.6,1.6,3.6,3.6
		C448.7,460.3,447.1,461.9,445.1,461.9z"/>
	<path class="st1" d="M494.3,461.9c-2,0-3.6-1.6-3.6-3.6c0-2,1.6-3.6,3.6-3.6c2,0,3.6,1.6,3.6,3.6
		C497.9,460.3,496.3,461.9,494.3,461.9z"/>
	<path class="st1" d="M543.6,461.9c-2,0-3.6-1.6-3.6-3.6c0-2,1.6-3.6,3.6-3.6c2,0,3.6,1.6,3.6,3.6
		C547.1,460.3,545.5,461.9,543.6,461.9z"/>
	<path class="st1" d="M592.8,461.9c-2,0-3.6-1.6-3.6-3.6c0-2,1.6-3.6,3.6-3.6c2,0,3.6,1.6,3.6,3.6
		C596.4,460.3,594.8,461.9,592.8,461.9z"/>
	<path class="st1" d="M642,461.9c-2,0-3.6-1.6-3.6-3.6c0-2,1.6-3.6,3.6-3.6c2,0,3.6,1.6,3.6,3.6C645.6,460.3,644,461.9,642,461.9z"
		/>
	<path class="st1" d="M691.2,461.9c-2,0-3.6-1.6-3.6-3.6c0-2,1.6-3.6,3.6-3.6c2,0,3.6,1.6,3.6,3.6
		C694.8,460.3,693.2,461.9,691.2,461.9z"/>
	<path class="st1" d="M740.5,461.9c-2,0-3.6-1.6-3.6-3.6c0-2,1.6-3.6,3.6-3.6s3.6,1.6,3.6,3.6C744,460.3,742.4,461.9,740.5,461.9z"
		/>
	<path class="st1" d="M789.7,461.9c-2,0-3.6-1.6-3.6-3.6c0-2,1.6-3.6,3.6-3.6c2,0,3.6,1.6,3.6,3.6
		C793.3,460.3,791.7,461.9,789.7,461.9z"/>
	<path class="st1" d="M838.9,461.9c-2,0-3.6-1.6-3.6-3.6c0-2,1.6-3.6,3.6-3.6s3.6,1.6,3.6,3.6C842.5,460.3,840.9,461.9,838.9,461.9z
		"/>
	<path class="st1" d="M888.1,461.9c-2,0-3.6-1.6-3.6-3.6c0-2,1.6-3.6,3.6-3.6s3.6,1.6,3.6,3.6C891.7,460.3,890.1,461.9,888.1,461.9z
		"/>
	<path class="st1" d="M937.4,461.9c-2,0-3.6-1.6-3.6-3.6c0-2,1.6-3.6,3.6-3.6c2,0,3.6,1.6,3.6,3.6
		C940.9,460.3,939.3,461.9,937.4,461.9z"/>
	<path class="st1" d="M986.6,461.9c-2,0-3.6-1.6-3.6-3.6c0-2,1.6-3.6,3.6-3.6c2,0,3.6,1.6,3.6,3.6
		C990.2,460.3,988.6,461.9,986.6,461.9z"/>
	<path class="st1" d="M276.2,482.5c-2,0-3.6-1.6-3.6-3.6c0-2,1.6-3.6,3.6-3.6c2,0,3.6,1.6,3.6,3.6
		C279.8,480.9,278.2,482.5,276.2,482.5z"/>
	<path class="st1" d="M325.4,482.5c-2,0-3.6-1.6-3.6-3.6c0-2,1.6-3.6,3.6-3.6c2,0,3.6,1.6,3.6,3.6
		C329,480.9,327.4,482.5,325.4,482.5z"/>
	<path class="st1" d="M374.6,482.5c-2,0-3.6-1.6-3.6-3.6c0-2,1.6-3.6,3.6-3.6c2,0,3.6,1.6,3.6,3.6
		C378.2,480.9,376.6,482.5,374.6,482.5z"/>
	<path class="st1" d="M423.9,482.5c-2,0-3.6-1.6-3.6-3.6c0-2,1.6-3.6,3.6-3.6c2,0,3.6,1.6,3.6,3.6
		C427.4,480.9,425.8,482.5,423.9,482.5z"/>
	<path class="st1" d="M473.1,482.5c-2,0-3.6-1.6-3.6-3.6c0-2,1.6-3.6,3.6-3.6c2,0,3.6,1.6,3.6,3.6
		C476.7,480.9,475.1,482.5,473.1,482.5z"/>
	<path class="st1" d="M522.3,482.5c-2,0-3.6-1.6-3.6-3.6c0-2,1.6-3.6,3.6-3.6c2,0,3.6,1.6,3.6,3.6
		C525.9,480.9,524.3,482.5,522.3,482.5z"/>
	<path class="st1" d="M571.5,482.5c-2,0-3.6-1.6-3.6-3.6c0-2,1.6-3.6,3.6-3.6c2,0,3.6,1.6,3.6,3.6
		C575.1,480.9,573.5,482.5,571.5,482.5z"/>
	<path class="st1" d="M620.8,482.5c-2,0-3.6-1.6-3.6-3.6c0-2,1.6-3.6,3.6-3.6c2,0,3.6,1.6,3.6,3.6
		C624.3,480.9,622.7,482.5,620.8,482.5z"/>
	<path class="st1" d="M670,482.5c-2,0-3.6-1.6-3.6-3.6c0-2,1.6-3.6,3.6-3.6c2,0,3.6,1.6,3.6,3.6C673.6,480.9,672,482.5,670,482.5z"
		/>
	<path class="st1" d="M719.2,482.5c-2,0-3.6-1.6-3.6-3.6c0-2,1.6-3.6,3.6-3.6c2,0,3.6,1.6,3.6,3.6
		C722.8,480.9,721.2,482.5,719.2,482.5z"/>
	<path class="st1" d="M768.4,482.5c-2,0-3.6-1.6-3.6-3.6c0-2,1.6-3.6,3.6-3.6c2,0,3.6,1.6,3.6,3.6
		C772,480.9,770.4,482.5,768.4,482.5z"/>
	<path class="st1" d="M817.7,482.5c-2,0-3.6-1.6-3.6-3.6c0-2,1.6-3.6,3.6-3.6c2,0,3.6,1.6,3.6,3.6
		C821.2,480.9,819.6,482.5,817.7,482.5z"/>
	<path class="st1" d="M866.9,482.5c-2,0-3.6-1.6-3.6-3.6c0-2,1.6-3.6,3.6-3.6c2,0,3.6,1.6,3.6,3.6
		C870.5,480.9,868.9,482.5,866.9,482.5z"/>
	<path class="st1" d="M916.1,482.5c-2,0-3.6-1.6-3.6-3.6c0-2,1.6-3.6,3.6-3.6c2,0,3.6,1.6,3.6,3.6
		C919.7,480.9,918.1,482.5,916.1,482.5z"/>
	<path class="st1" d="M965.3,482.5c-2,0-3.6-1.6-3.6-3.6c0-2,1.6-3.6,3.6-3.6c2,0,3.6,1.6,3.6,3.6
		C968.9,480.9,967.3,482.5,965.3,482.5z"/>
	<path class="st1" d="M1014.6,482.5c-2,0-3.6-1.6-3.6-3.6c0-2,1.6-3.6,3.6-3.6c2,0,3.6,1.6,3.6,3.6
		C1018.1,480.9,1016.5,482.5,1014.6,482.5z"/>
	<path class="st1" d="M254.9,503.1c-2,0-3.6-1.6-3.6-3.6c0-2,1.6-3.6,3.6-3.6c2,0,3.6,1.6,3.6,3.6
		C258.5,501.5,256.9,503.1,254.9,503.1z"/>
	<path class="st1" d="M304.2,503.1c-2,0-3.6-1.6-3.6-3.6c0-2,1.6-3.6,3.6-3.6c2,0,3.6,1.6,3.6,3.6
		C307.7,501.5,306.1,503.1,304.2,503.1z"/>
	<path class="st1" d="M353.4,503.1c-2,0-3.6-1.6-3.6-3.6c0-2,1.6-3.6,3.6-3.6c2,0,3.6,1.6,3.6,3.6
		C357,501.5,355.4,503.1,353.4,503.1z"/>
	<path class="st1" d="M402.6,503.1c-2,0-3.6-1.6-3.6-3.6c0-2,1.6-3.6,3.6-3.6c2,0,3.6,1.6,3.6,3.6
		C406.2,501.5,404.6,503.1,402.6,503.1z"/>
	<path class="st1" d="M451.8,503.1c-2,0-3.6-1.6-3.6-3.6c0-2,1.6-3.6,3.6-3.6c2,0,3.6,1.6,3.6,3.6
		C455.4,501.5,453.8,503.1,451.8,503.1z"/>
	<path class="st1" d="M501.1,503.1c-2,0-3.6-1.6-3.6-3.6c0-2,1.6-3.6,3.6-3.6c2,0,3.6,1.6,3.6,3.6
		C504.6,501.5,503,503.1,501.1,503.1z"/>
	<path class="st1" d="M550.3,503.1c-2,0-3.6-1.6-3.6-3.6c0-2,1.6-3.6,3.6-3.6c2,0,3.6,1.6,3.6,3.6
		C553.9,501.5,552.3,503.1,550.3,503.1z"/>
	<path class="st1" d="M599.5,503.1c-2,0-3.6-1.6-3.6-3.6c0-2,1.6-3.6,3.6-3.6c2,0,3.6,1.6,3.6,3.6
		C603.1,501.5,601.5,503.1,599.5,503.1z"/>
	<path class="st1" d="M648.7,503.1c-2,0-3.6-1.6-3.6-3.6c0-2,1.6-3.6,3.6-3.6c2,0,3.6,1.6,3.6,3.6
		C652.3,501.5,650.7,503.1,648.7,503.1z"/>
	<path class="st1" d="M698,503.1c-2,0-3.6-1.6-3.6-3.6c0-2,1.6-3.6,3.6-3.6c2,0,3.6,1.6,3.6,3.6C701.5,501.5,699.9,503.1,698,503.1z
		"/>
	<path class="st1" d="M747.2,503.1c-2,0-3.6-1.6-3.6-3.6c0-2,1.6-3.6,3.6-3.6c2,0,3.6,1.6,3.6,3.6
		C750.8,501.5,749.2,503.1,747.2,503.1z"/>
	<path class="st1" d="M796.4,503.1c-2,0-3.6-1.6-3.6-3.6c0-2,1.6-3.6,3.6-3.6c2,0,3.6,1.6,3.6,3.6
		C800,501.5,798.4,503.1,796.4,503.1z"/>
	<path class="st1" d="M845.6,503.1c-2,0-3.6-1.6-3.6-3.6c0-2,1.6-3.6,3.6-3.6s3.6,1.6,3.6,3.6C849.2,501.5,847.6,503.1,845.6,503.1z
		"/>
	<path class="st1" d="M894.9,503.1c-2,0-3.6-1.6-3.6-3.6c0-2,1.6-3.6,3.6-3.6c2,0,3.6,1.6,3.6,3.6
		C898.4,501.5,896.8,503.1,894.9,503.1z"/>
	<path class="st1" d="M944.1,503.1c-2,0-3.6-1.6-3.6-3.6c0-2,1.6-3.6,3.6-3.6c2,0,3.6,1.6,3.6,3.6
		C947.7,501.5,946.1,503.1,944.1,503.1z"/>
	<path class="st1" d="M993.3,503.1c-2,0-3.6-1.6-3.6-3.6c0-2,1.6-3.6,3.6-3.6c2,0,3.6,1.6,3.6,3.6
		C996.9,501.5,995.3,503.1,993.3,503.1z"/>
	<circle class="st2" cx="551.3" cy="140.1" r="0.5"/>
</g>
<g>
	<g>
		<g>
			<path class="st3" d="M573.2-10.2v-14.6c0-3-2.1-6.8-4.5-6.8c-2.4,0-4.5,3.8-4.5,6.8v14.6H573.2z"/>
			<path class="st3" d="M591.2-10.2v-14.6c0-3-2.1-6.8-4.5-6.8c-2.4,0-4.5,3.8-4.5,6.8v14.6H591.2z"/>
			<path class="st3" d="M609.2-10.2v-14.6c0-3-2.1-6.8-4.5-6.8c-2.4,0-4.5,3.8-4.5,6.8v14.6H609.2z"/>
			<path class="st3" d="M627.2-10.2v-14.6c0-3-2.1-6.8-4.5-6.8c-2.4,0-4.5,3.8-4.5,6.8v14.6H627.2z"/>
			<path class="st3" d="M645.1-10.2v-14.6c0-3-2.1-6.8-4.5-6.8c-2.4,0-4.5,3.8-4.5,6.8v14.6H645.1z"/>
			<path class="st3" d="M663.1-10.2v-14.6c0-3-2.1-6.8-4.5-6.8c-2.4,0-4.5,3.8-4.5,6.8v14.6H663.1z"/>
			<path class="st3" d="M681.1-10.2v-14.6c0-3-2.1-6.8-4.5-6.8c-2.4,0-4.5,3.8-4.5,6.8v14.6H681.1z"/>
		</g>
	</g>
	<rect x="564.2" y="-19.1" class="st3" width="116.8" height="9"/>
	<rect x="619.8" y="-16.8" class="st3" width="5.7" height="24.1"/>
	<path class="st4" d="M618.1,0C618.1,0.1,618.2,0.1,618.1,0c0.1,0.1,0.1,126.8,0.1,154.7c0,3,2.1,6.8,4.5,6.8c2.4,0,4.5-3.8,4.5-6.8
		c0-27.5,0-154.6,0-154.6s0,0,0.1-0.1H618.1z"/>
</g>
<g>
	<path class="st4" d="M756,78.8c0,0,1.4,9,0.1,9.5c-0.1,0-0.3,0.1-0.6,0.1h-22.9c-3.7-0.4-0.5-5.3-3.7-5.1c-1.6,0.1-8.4,4-16.5,5.1
		c-6.7,1-20.7,1.1-27.2-0.7c-5.4-1.5-5.5-8.5-4.3-12.1c2.3-6.6,12.9-9.2,21.3-11c6.9-1.5,19.7-10.1,15.4-34.8
		c-4.3-24.7-3.3-46.7-3.3-46.7H766c0,0-7.7,63.1-9,70.8C755.8,60.5,756.7,73.7,756,78.8z"/>
	<path class="st4" d="M781.6,87c0,0,1.6,10.1,0.1,10.7c-0.1,0-0.4,0.1-0.7,0.1h-25.9c-4.2-0.4-0.6-6-4.1-5.8
		c-1.8,0.1-9.5,4.5-18.6,5.8c-7.6,1.1-23.4,1.2-30.7-0.8c-6.1-1.7-6.2-9.7-4.9-13.6c2.6-7.5,14.6-10.4,24-12.4
		c7.8-1.7,22.3-11.5,17.4-39.4c-4.9-27.9-3.8-52.8-3.8-52.8h58.5c0,0-8.7,71.3-10.2,80C781.4,66.3,782.3,81.3,781.6,87z"/>
	<g>
		<g>
			<path class="st0" d="M704.8,68.8c8.4-1.8,21.4-11.7,17-37.2c-3.5-20-3.5-38.4-3.4-44.3H732c0-0.7,0-1.4,0-2.1h-15.8
				c-0.1,5.9-0.1,24.3,3.4,44.3c4.5,25.5-8.6,35.4-17,37.2c-6.6,1.4-17.8,3.8-19.8,9.6c-0.7,2-0.8,5.2,0.3,7.3
				c0.5,0.9,1.1,1.5,2,1.9c-1-2.1-0.9-5.2-0.2-7.1C687,72.6,698.1,70.2,704.8,68.8z"/>
			<path class="st0" d="M754.5,92.2c0.3,0.9,0.4,1.8,0.4,2.2c0,0.4,0,1.1,0.1,1.3c0,0,0.1,0.1,0.2,0.1h1.8
				C756.8,94.6,756.4,92.7,754.5,92.2z"/>
			<path class="st0" d="M736.4-19.1c0,0.6,0,1.3,0,2.2c0,0.6,0,1.3,0,2.1c0,0.6,0,1.3,0,2.1c0.1,9.6,0.7,26.2,3.8,44
				c5,28.6-9.5,39.7-19,41.8c-7.6,1.6-20.2,4.4-22.5,11c-0.3,0.8-0.5,1.8-0.6,2.9c-0.1,0.7,0,1.3,0,2c0,0,0,0,0,0.1
				c0.1,1.2,0.4,2.4,0.9,3.5c0.5,1,1.2,1.7,2.1,2.2c0,0,0,0,0-0.1c-0.8-1.6-1.1-3.6-0.9-5.5c0,0,0,0,0,0c0.1-0.7,0.2-1.4,0.3-2.1
				c0.1-0.3,0.2-0.6,0.2-0.8c2.3-6.7,15-9.4,22.5-11c9.4-2,24-13.1,19-41.8c-3.4-19.2-3.9-37-3.8-46.1c0-0.8,0-1.4,0-2.1
				c0-0.8,0-1.5,0-2.1c0,0,0-0.1,0-0.1h51.8c0.1-0.8,0.2-1.5,0.3-2.1H736.4z"/>
		</g>
	</g>
</g>
<g>
	<path class="st3" d="M783.2,179.7c0-12.1-10-21.9-22.2-21.9c-1,0-2,0.1-2.9,0.2l-0.2-2.9c0-3.4-9.8-6.2-22.4-6.7v-12.9
		c0-1.1-1.6-2-3.6-2s-3.6,0.9-3.6,2v12.9c-12.7,0.5-22.4,3.3-22.4,6.7l-2.1,32.5L682,168.9c2.9-5,2.5-11.1-1.3-14.6l-17.5,19.2
		c3.8,3.4,9.7,3.4,14.3,0.2l25,32.9l-0.9,14.1c0,3.2,13.6,5.9,30.3,5.9c16.7,0,30.3-2.6,30.3-5.9l-0.4-6.8
		C773,211.7,783.2,191,783.2,179.7z M761.3,208.4l-2.9-44.7c0.8-0.1,1.7-0.2,2.6-0.2c9.1,0,16.6,7.3,16.6,16.3
		C777.5,188.1,769.8,206.1,761.3,208.4z"/>
	<path class="st0" d="M761.5,209.1l-0.2,0.1l0.1,1l0.9-0.2c9-2.4,16.8-21.2,16.8-29.5c0-4.8-2.1-9.2-5.4-12.3
		c2.8,3,4.6,7.1,4.6,11.5C778.3,187.9,770.5,206.8,761.5,209.1z"/>
	<path class="st0" d="M680.7,155.4l-16.4,18c0.3,0.2,0.6,0.4,1,0.6l16.2-17.7C681.2,156,680.9,155.7,680.7,155.4z"/>
	<path class="st0" d="M705.1,190l2.2-34.2c0-2.5,8.7-5.5,21.6-5.9l0.8,0v-13.7c0-0.5,1.1-1.2,2.8-1.2c0.8,0,1.5,0.2,2,0.4
		c0-0.5-1.1-1.2-2.8-1.2c-1.7,0-2.8,0.7-2.8,1.2v13.7l-0.8,0c-12.9,0.5-21.6,3.4-21.6,5.9l-2.2,34.2l-22.5-19.4l0,0.1L705.1,190z"/>
	<path class="st0" d="M761,158.6c-0.9,0-1.8,0.1-2.8,0.2l-0.1,0l0.1,0.9l0.9-0.1c1-0.1,1.9-0.2,2.8-0.2c5.8,0,11,2.3,14.8,5.9
		C772.7,161.2,767.1,158.6,761,158.6z"/>
	<path class="st0" d="M704,207.2l-25.6-33.8l-0.1,0.1l24.9,32.9l-0.9,14.3c0,0.3,0.3,0.7,0.9,1c0-0.1-0.1-0.2-0.1-0.2L704,207.2z"/>
	<path class="st0" d="M736.2,150c10.3,0.4,17.9,2.3,20.6,4.3c-1.5-2.3-9.7-4.7-21.4-5.1v0.8L736.2,150z"/>
</g>
<g>
	<path class="st4" d="M419.3,271.8c-29.3,0-46,9.7-46,21.6h92C465.3,281.4,448.5,271.8,419.3,271.8z"/>
	<path class="st4" d="M415.4,283.4c0,0-0.2-1.1-0.5-3.1c-0.3-2-0.8-4.8-1.4-8.2c-0.3-1.8-0.6-3.7-0.7-5.8c-0.2-2.1-0.3-4.3-0.2-6.7
		c0.1-2.3,0.4-4.8,1.1-7.2c0.7-2.5,1.7-4.8,3.2-7c0.6-0.9,1.4-1.9,2.2-2.9c0.8-0.9,1.6-1.8,2.4-2.6c1.6-1.7,3.2-3.2,4.8-4.7
		c1.5-1.5,3-2.9,4.4-4.3c1.3-1.4,2.5-2.8,3.5-4.1c1-1.3,1.8-2.7,2.4-3.9c0.3-0.6,0.6-1.2,0.8-1.7c0.2-0.6,0.4-1.1,0.5-1.6
		c0.4-0.9,0.4-1.7,0.6-2.2c0.1-0.5,0.2-0.8,0.2-0.8s0,0.3-0.1,0.8c-0.1,0.5,0,1.3-0.3,2.3c-0.1,0.5-0.2,1.1-0.3,1.7
		c-0.2,0.6-0.4,1.2-0.6,1.9c-0.5,1.3-1.1,2.8-2,4.4c-0.9,1.5-1.9,3.1-3.1,4.8c-1.2,1.6-2.5,3.3-3.8,4.9c-1.3,1.7-2.7,3.4-4,5.2
		c-0.7,0.9-1.3,1.8-1.9,2.7c-0.5,0.9-1.1,1.7-1.6,2.8l-0.4,0.8l-0.1,0.1l0,0c0-0.1-0.1,0.2,0.1-0.1l0,0l-0.1,0.2l-0.1,0.4
		c-0.2,0.5-0.4,0.9-0.5,1.4c-0.2,1-0.5,1.9-0.6,2.9c-0.3,2-0.3,3.9-0.1,5.9c0.2,1.9,0.5,3.8,0.9,5.6c0.4,1.8,0.9,3.5,1.4,5.1
		c1,3.3,1.9,6,2.5,7.9c0.6,2,0.9,3.1,0.9,3.1L415.4,283.4z"/>
	<path class="st4" d="M417.3,245.2c0,0,0-0.9-0.1-2.6c0-0.4,0-0.9-0.1-1.4c0-0.4-0.1-0.9-0.2-1.4c-0.1-1-0.2-2.1-0.5-3.4
		c-0.2-1.3-0.5-2.7-0.8-4.1c-0.3-1.5-0.8-3-1.2-4.6c-0.9-3.2-2.1-6.6-3.2-10.1c-0.5-1.8-1.1-3.5-1.5-5.3c-0.5-1.8-0.9-3.6-1.2-5.3
		c-0.3-1.8-0.6-3.5-0.7-5.1c-0.2-1.6-0.2-3.2-0.3-4.6c-0.1-1.4,0.1-2.7,0.1-3.9c0-1.2,0.2-2.1,0.3-3c0.2-1.6,0.3-2.5,0.3-2.5
		s0,0.9-0.1,2.6c0,0.8-0.1,1.8,0,2.9c0.1,1.1,0,2.4,0.2,3.8c0.2,1.4,0.3,2.9,0.7,4.4c0.3,1.5,0.7,3.1,1.1,4.7c0.5,1.6,1,3.2,1.6,4.8
		c0.6,1.6,1.3,3.2,1.9,4.8c1.4,3.2,2.8,6.4,4.1,9.6c0.6,1.6,1.3,3.1,1.8,4.7c0.5,1.5,1,3,1.4,4.4c0.4,1.4,0.7,2.8,1,4
		c0.1,0.6,0.2,1.2,0.4,1.8c0.1,0.5,0.1,0.9,0.2,1.3c0.2,1.6,0.3,2.5,0.3,2.5L417.3,245.2z"/>
	<g>
		<g>
			<path class="st3" d="M438.6,214.3c0,0,0.8-6.9-1.9-11.2c-2.7-4.3-10-5.7-11.1-7c0,0,0.5,10.2,2.7,12.8c1.8,2.2,6.2,6.1,8.5,5.8
				c0,0-5.4-6.6-5.5-10.1C431.3,204.7,436.5,213.8,438.6,214.3z"/>
		</g>
		<path class="st3" d="M442.2,219.7c0,0,26.6-7.3,19.7-30.7c0,0-2.7,2.1-8.9,5.1c-6.2,3.1-14.4,7.9-12.3,24.9
			c0.2,1.8,6.4-16.6,13.4-19.8C454.2,199.2,441.7,217.8,442.2,219.7z"/>
	</g>
	<path class="st3" d="M407.1,186.1c0,0,5.9-15.1-8.5-17.6c0,0,0.1,1.9-0.6,5.7c-0.7,3.9-1.1,9.2,8.2,12.4c1,0.4-6.1-7.4-5.2-11.7
		C401,175,406,186,407.1,186.1z"/>
	<g>
		<path class="st3" d="M410.9,191.6c0,0,5.7-1.6,8.2-5.2c2.5-3.5,1.2-9.8,1.8-11.1c0,0-7.9,3.7-9.2,6.4c-1.1,2.2-2.8,6.9-1.8,8.6
			c0,0,3.4-6.4,6.2-7.7C416.1,182.7,410.6,189.8,410.9,191.6z"/>
	</g>
</g>
<g>
	<g>
		<path class="st4" d="M353.5,362.5c0.9-6.6,4.5-29.2-5.4-30c-6-0.5-5.9,12.4-5.9,12.4s-10.1-27.7-14.6-32.8
			c-3.3-3.7-8.4-3.3-9.7,1.2c-0.7-1.8-1.3-3.1-1.8-3.8c-3.3-4.3-10.9-3-10,5.3c0,0.3,0.1,0.7,0.2,1.1c-2.1-1.6-8.1-2.1-8.7,4.8
			c-0.2,2,0.6,5,1.9,8.3c-0.1-0.1-0.3-0.1-0.4-0.1c-3-0.3-6.7,1.1-5.5,7c1.2,5.9,10.7,26.9,15,32.6c4.3,5.7,4.9,7.6,6.6,12.4
			c1.4,4,6.4,18.4,8.6,23.5l42.1-17.9C362.8,379.9,352.7,368.9,353.5,362.5z"/>
		<path class="st4" d="M351.1,374.7c-2.9-6-13.5-26.3-4.4-30.1c5.5-2.4,9.5,9.9,9.5,9.9s0.8-29.5,3.4-35.8c1.9-4.5,6.9-5.8,9.6-1.9
			c0.1-1.9,0.3-3.4,0.5-4.1c1.7-5.1,9.4-6.3,11.2,1.9c0.1,0.3,0.1,0.7,0.2,1.1c1.5-2.2,7.1-4.6,9.8,1.8c0.8,1.8,1,4.9,0.8,8.5
			c0.1-0.1,0.2-0.2,0.3-0.2c2.7-1.2,6.7-1,7.4,4.9c0.7,6-1.7,28.9-3.9,35.6c-2.3,6.8-2.3,8.7-2.3,13.9c0,4.3-0.3,19.5-0.7,25
			l-45.6-3.7C347.8,394.2,353.9,380.5,351.1,374.7z"/>
		<path class="st5" d="M394.7,325.9c-0.7,0-1.5,0.2-2.3,0.5c0,0,0,0-0.1,0.1l-0.6,0.6l-0.1,1.7l1.5-1.5c0.1-0.1,0.1-0.1,0.1-0.1
			c0.7-0.3,1.5-0.5,2.3-0.5c0.8,0,1.4,0.2,2,0.6C396.8,326.4,395.9,325.9,394.7,325.9z"/>
		<path class="st5" d="M370.8,317.7c0.1-2.4,0.3-3.5,0.5-3.9c0.7-2.1,2.6-3.5,4.6-3.5c1,0,1.9,0.3,2.7,1c-0.9-1.1-2.1-1.8-3.5-1.8
			c-2,0-3.9,1.4-4.6,3.5c-0.2,0.4-0.4,1.5-0.5,3.9l-0.1,2l0.8,1.1L370.8,317.7z"/>
		<path class="st5" d="M382.6,316.9c0.6-1,2.3-2,4-2c0.9,0,1.7,0.3,2.5,0.9c-0.9-1.1-2-1.7-3.3-1.7c-1.7,0-3.3,1-4,2l-0.6,0.9
			l0.2,1.6L382.6,316.9z"/>
		<path class="st5" d="M357.8,355.3c0-0.3,0.8-29.4,3.4-35.5c1-2.3,2.8-3.7,4.8-3.7c0.9,0,1.7,0.3,2.4,0.9c-0.9-1.1-2-1.7-3.2-1.7
			c-2,0-3.8,1.5-4.8,3.7c-2.6,6-3.4,35.2-3.4,35.5l-1.1,0.2c0.1,0.3,0.2,0.6,0.3,0.9L357.8,355.3z"/>
		<path class="st5" d="M352.6,375.2l-0.5-1c-2.8-5.7-9.3-18.9-6.9-25.2c0.5-1.3,1.4-2.3,2.6-2.8c0.4-0.2,0.7-0.2,1.1-0.2
			c0.8,0,1.6,0.4,2.4,1.1c-1-1.1-2.1-1.9-3.2-1.9c-0.4,0-0.7,0.1-1.1,0.2c-1.3,0.5-2.1,1.5-2.6,2.8c-2.4,6.4,4.2,19.6,6.9,25.2
			l0.5,1c2,4.1,0,11.2-1.9,18.1l1.2-0.5C352.8,385.5,354.4,379,352.6,375.2z"/>
	</g>
	<path class="st5" d="M319.5,314.3c0.6-2,2.1-3.1,3.9-3.1c1.3,0,2.6,0.5,3.7,1.5c0,0,0-0.1-0.1-0.1c-1.2-1.4-2.9-2.2-4.4-2.2
		c-1.9,0-3.3,1.2-3.9,3.1l-0.5,1.5l0.6,1.5L319.5,314.3z"/>
	<path class="st5" d="M343.9,345.7c0-0.1,0-7.9,2.7-10.7c0.6-0.6,1.3-0.9,2-0.9c0.1,0,0.2,0,0.3,0c1,0.1,1.8,0.4,2.6,1
		c-0.9-1.1-2-1.7-3.4-1.8c-0.1,0-0.2,0-0.3,0c-0.8,0-1.4,0.3-2,0.9c-2.8,2.8-2.7,10.6-2.7,10.7l-1.1,0.2c0.2,0.5,0.3,0.9,0.3,0.9
		L343.9,345.7z"/>
	<path class="st5" d="M310.1,368.8c-4.3-5.8-13.7-26.6-14.8-32.2c-0.4-2.1-0.2-3.7,0.6-4.7c1-1.2,2.5-1.3,3.3-1.3c0.2,0,0.4,0,0.6,0
		c0,0,0,0,0.1,0l1.9,1l-0.8-2c-1.4-3.6-2-6.2-1.9-7.9c0.4-4.4,3-5.1,4.6-5.1c1.1,0,2.2,0.3,2.9,0.9l1.6,1.3l-0.3-2
		c-0.1-0.4-0.1-0.8-0.2-1.1c-0.2-2.3,0.2-4.2,1.3-5.5c0.8-0.9,1.9-1.4,3.2-1.4c1.1,0,2.2,0.4,3.2,1.1c-1-1.2-2.5-1.9-4-1.9
		c-1.2,0-2.4,0.5-3.2,1.4c-1.1,1.2-1.6,3.1-1.3,5.5c0,0.3,0.1,0.7,0.2,1.1l0.3,2l-1.6-1.3c-0.7-0.5-1.8-0.9-2.9-0.9
		c-1.5,0-4.2,0.7-4.6,5.1c-0.1,1.7,0.5,4.4,1.9,7.9l0.8,2l-1.9-1c-0.1,0-0.1,0-0.1,0c-0.2,0-0.4,0-0.6,0c-0.8,0-2.4,0.2-3.3,1.3
		c-0.8,1-1,2.6-0.6,4.7c1.2,5.6,10.5,26.5,14.8,32.3c4.4,5.9,5.1,7.8,6.7,12.6c1.3,3.7,6,17.1,8.2,22.7l0.4-0.2
		c-2.4-6.1-6.7-18.2-7.8-21.7C315.1,376.7,314.5,374.7,310.1,368.8z"/>
	<path class="st5" d="M350.7,393.3l-1.2,0.5c-0.7,2.6-1.3,5-1.7,7l0.9,0.1c0.4-2.2,1.1-4.7,1.9-7.4
		C350.6,393.3,350.7,393.3,350.7,393.3z"/>
	<path class="st5" d="M350.8,392.9l-1.2,0.5c0,0.1-0.1,0.2-0.1,0.3l1.2-0.5C350.7,393.1,350.7,393,350.8,392.9z"/>
	<path class="st5" d="M351,392l-1.2,0.5c0,0,0,0.1,0,0.1c-0.1,0.3-0.2,0.6-0.2,0.9l1.2-0.5C350.8,392.6,350.9,392.3,351,392z"/>
</g>
<g>
	<g>
		<g>
			<g>
				<g>
					<g>
						<g>
							<path class="st6" d="M949.6,319.8c-3.1-3-10.6-5.4-16.2-5.8c-5.6-0.5-8.7-0.8-11.6-0.3c-1.7,0.3-5.6,2-6.4,3
								c-0.8,1-1.4,2.5-0.5,3.7c0.9,1.2,1.6,2.1,2.3,2.7c0.7,0.6,2.3,1.4,3.2,1.6c0.9,0.2,3.4,0.9,4.1,1.3c0.7,0.4,1.2,1,1.8,1.6
								c0.6,0.6,1.4,1.1,2.1,1.8c0.7,0.8,2,1.8,2.9,2.2c0.6,0.3,1.9,0.5,2.6,0.4c0.6-0.1,1.3-0.4,2-0.9c0.4-0.2,2.9-1.2,5.8-2.5
								c3.9-1.8,8.4-4.4,9.2-6.9c0,0,0-0.1,0-0.2C950.7,321,949.9,320.1,949.6,319.8z"/>
						</g>
					</g>
				</g>
			</g>
			<g>
				<g>
					<g>
						<g>
							<path class="st6" d="M950.7,321.6c0,0.1,0,0.1,0,0.2c-0.7,2.4-5.3,5-9.2,6.9c-1.2,1.8-2.6,4.2-2.6,4.2s-1.4,3.5-1.3,4.9
								c0.1,1.4,0.5,2.7,1,3.2c0.3,0.4,0.7,0.6,0.8,0.8c0.2,0.3,0.4,0.9,0.5,1.1c0.2,0.2,0.7,0.9,1.1,1.1c0.5,0.2,0.9,0.2,1,0.3
								c0.2,0.2,0.9,0.8,1.1,1c0.2,0.2,0.5,0.4,0.9,0.4c0.4,0.1,0.9-0.2,1.4-0.1c0.2,0,0.6,0.1,0.8,0.2c0.2,0.1,0.4,0.3,0.9,0.3
								c0.4,0,0.8,0,1.1-0.1c0.3-0.1,0.9-0.4,1.2-0.4c0.3,0,0.6,0.1,0.8,0.1c0.3,0,0.6-0.1,1.1-0.1c0.5,0,1-0.4,1.4-0.6
								c0.4-0.2,1.5-0.9,1.9-1.4c0.4-0.5,0.9-1.1,1.2-1.7c0.3-0.6,0.3-2.9,0-3.6c-0.2-0.7-0.4-3.5-0.7-4.6c-0.2-1.1-1.3-4-1.3-4.5
								c-0.1-0.5-0.3-2-0.5-2.6c-0.4-1.2-1.6-3.4-2.3-4.4C951.1,322,950.9,321.8,950.7,321.6z"/>
						</g>
					</g>
				</g>
			</g>
		</g>
		<g>
			<g>
				<g>
					<g>
						<g>
							<path class="st6" d="M951.3,318.8c-1-4.2,0.5-11.9,2.8-17c2.3-5.2,3.6-8,5.4-10.3c1.1-1.4,4.4-3.9,5.7-4.1
								c1.3-0.2,2.9,0,3.5,1.4c0.6,1.4,1.1,2.4,1.2,3.3c0.2,0.9,0.1,2.7-0.2,3.6c-0.2,0.9-0.9,3.4-0.8,4.2c0.1,0.8,0.3,1.5,0.5,2.3
								c0.3,0.8,0.2,1.7,0.6,2.8c0.3,1,0.6,2.7,0.5,3.6c-0.1,0.6-0.5,1.9-0.9,2.4c-0.3,0.4-1,0.9-1.7,1.4c-0.4,0.3-2.5,2-5,3.8
								c-3.5,2.5-8,5.2-10.5,4.6c-0.1,0-0.1,0-0.1-0.1C951.9,320.3,951.5,319.3,951.3,318.8z"/>
						</g>
					</g>
				</g>
			</g>
			<g>
				<g>
					<g>
						<g>
							<path class="st6" d="M952.3,320.6c0,0,0.1,0,0.1,0.1c2.5,0.6,6.9-2.1,10.5-4.6c2.2-0.2,5-0.2,5-0.2s3.7,0.5,4.9,1.3
								c1.1,0.8,2.1,1.7,2.3,2.4c0.1,0.5,0.2,0.9,0.3,1.1c0.1,0.3,0.6,0.8,0.7,1c0.1,0.3,0.5,1.1,0.4,1.5c-0.1,0.5-0.3,0.8-0.2,1.1
								c0.1,0.2,0.3,1.1,0.3,1.5c0.1,0.3,0.1,0.6-0.1,1c-0.1,0.4-0.6,0.7-0.8,1.2c-0.1,0.2-0.2,0.5-0.2,0.8c0,0.2,0,0.5-0.2,0.9
								c-0.2,0.4-0.4,0.7-0.7,0.9c-0.2,0.2-0.8,0.6-0.9,0.8c-0.1,0.2-0.2,0.6-0.3,0.8c-0.1,0.2-0.4,0.5-0.7,0.9
								c-0.3,0.4-0.8,0.7-1.2,0.9c-0.3,0.2-1.5,0.8-2.1,0.9c-0.6,0.1-1.4,0.3-2.1,0.2c-0.7-0.1-2.7-1.2-3.2-1.7
								c-0.5-0.5-2.8-2.1-3.7-2.8c-0.9-0.8-2.9-3-3.3-3.3c-0.4-0.3-1.6-1.2-2.1-1.7c-0.8-0.9-2.2-3-2.7-4.1
								C952.5,321.1,952.4,320.9,952.3,320.6z"/>
						</g>
					</g>
				</g>
			</g>
		</g>
	</g>
	<g>
		<g>
			<path class="st4" d="M952.4,320c-0.3-0.6-1.1-1.2-1.5-1.3c-0.4-0.1-0.3-0.2-0.2-0.3c0-0.1,0.1-0.4-0.1-0.7
				c-0.1-0.2-0.5-0.5-0.7-0.6c-0.2-0.1-0.3,0-0.5-0.2c-0.1-0.2-0.3-0.2-0.5-0.1c-0.2,0.1-0.3,0.3-0.2,0.5c0.1,0.2-0.1,0.2-0.1,0.5
				c0,0.2,0,0.7,0.2,0.9c0.2,0.3,0.5,0.4,0.6,0.4c0.1,0,0.2-0.1,0.1,0.3c-0.1,0.4,0.1,1.4,0.4,1.9c0.3,0.5,0.9,1.6,1.3,2
				c0.4,0.3,0.6,0.7,0.9,1.5c0.3,0.8,0.7,1.4,1.5,2.6c0.8,1.2,1.2,1.9,1.5,2.5c0.2,0.6,1.3,2.4,1.8,2.9c0.5,0.5,1.4,1.1,1.8,0.9
				c0.4-0.2,0.3-1.4,0.1-2c-0.2-0.7-1.3-2.5-1.7-2.9c-0.4-0.5-0.8-1.2-1.5-2.5c-0.7-1.3-1-1.9-1.5-2.6c-0.5-0.6-0.7-1.1-0.8-1.5
				C953.4,321.6,952.7,320.6,952.4,320z"/>
		</g>
	</g>
	<g>
		<g>
			<g>
				<path class="st4" d="M949.5,316.8c0.2,0,0.2,0.2,0.1,0c0-0.1,0-0.2-0.1-0.4c-0.1-0.4-0.1-0.9-0.2-1.3c-0.1-1.2-0.2-2.5-0.3-3.7
					c-0.2-1.9-0.3-3.7-0.4-5.6c0-0.3-0.5-0.3-0.4,0c0.1,2.2,0.3,4.3,0.5,6.5c0.1,1.2,0.2,2.5,0.4,3.7c0,0.3,0,1.3,0.4,1.3
					C949.8,317.2,949.8,316.8,949.5,316.8L949.5,316.8z"/>
			</g>
		</g>
		<g>
			<g>
				<path class="st4" d="M948.8,317.2c-0.1,0.2,0.1,0.2-0.1,0.1c-0.1-0.1-0.2-0.2-0.3-0.2c-0.3-0.3-0.7-0.5-1.1-0.8
					c-1-0.7-2-1.4-3.1-2.1c-1.5-1-3.1-2.1-4.7-3.1c-0.2-0.2,0-0.5,0.2-0.4c1.8,1.2,3.6,2.4,5.4,3.6c1,0.7,2,1.4,3,2.1
					c0.2,0.2,1.1,0.6,0.9,1C949,317.7,948.6,317.4,948.8,317.2L948.8,317.2z"/>
			</g>
		</g>
	</g>
</g>
<g>
	<path class="st7" d="M821.9,188.2c-2.6-5.9,0.9-13.1,7.8-16.1c6.8-3,14.5-0.6,17,5.3c2.6,5.9-0.9,13.1-7.8,16.1
		C832.1,196.5,824.5,194.1,821.9,188.2z"/>
	<g>
		<g>
			<path class="st7" d="M820,172.5c1.8,1.3,3.9,2.2,6,2.8c1.2,0.4,2-1.5,0.7-1.8c-2-0.6-3.9-1.3-5.6-2.6
				C820.2,170.2,819,171.8,820,172.5L820,172.5z"/>
		</g>
		<g>
			<path class="st7" d="M834.6,165.1c-0.3,2.1-1,4-1.9,5.8c-0.6,1.1,1.3,1.9,1.8,0.7c1-2,1.8-4.1,2.1-6.3
				C836.7,164.1,834.8,163.9,834.6,165.1L834.6,165.1z"/>
		</g>
	</g>
	<g>
		<path class="st7" d="M817.3,171.4c-0.5-1.2,0-2.7,1.3-3.2c1.2-0.5,2.7,0,3.2,1.3c0.5,1.2,0,2.7-1.3,3.2
			C819.3,173.2,817.9,172.6,817.3,171.4z"/>
		<circle class="st7" cx="835.4" cy="163.6" r="2.4"/>
	</g>
	<g>
		<circle class="st0" cx="827.7" cy="179.5" r="1.3"/>
		<path class="st0" d="M835.2,176.3c-0.3-0.7,0-1.5,0.7-1.8c0.7-0.3,1.5,0,1.8,0.7c0.3,0.7,0,1.5-0.7,1.8
			C836.2,177.2,835.5,176.9,835.2,176.3z"/>
	</g>
	<g>
		<path class="st8" d="M868.3,197.5c-6-13.8-21.3-20.5-34.1-14.9l23.6,49C869.2,225.3,874,210.5,868.3,197.5z"/>
		<path class="st8" d="M821.7,217.7c5.7,13.1,19.7,19.7,32.1,15.6l-19.6-50.7C821.3,188.2,815.7,203.9,821.7,217.7z"/>
		<path class="st7" d="M853.8,233.3c0.7-0.2,1.4-0.5,2-0.8c0.7-0.3,1.3-0.6,2-1l-23.6-49L853.8,233.3z"/>
	</g>
	<path class="st7" d="M851.8,190.1c1,2.2-0.1,4.8-2.3,5.8c-2.2,1-4.8-0.1-5.8-2.3c-1-2.2,0.1-4.8,2.3-5.8
		C848.2,186.8,850.8,187.8,851.8,190.1z"/>
	<path class="st7" d="M863.8,213.7c1,2.2-0.1,4.8-2.3,5.8c-2.2,1-4.8-0.1-5.8-2.3c-1-2.2,0.1-4.8,2.3-5.8
		C860.3,210.5,862.8,211.5,863.8,213.7z"/>
	<path class="st7" d="M865,197.2c1,2.2-0.1,4.8-2.3,5.8c-2.2,1-4.8-0.1-5.8-2.3c-1-2.2,0.1-4.8,2.3-5.8
		C861.4,193.9,864,195,865,197.2z"/>
	<circle class="st7" cx="831.6" cy="198.8" r="4.4"/>
	<path class="st7" d="M836.6,225.5c1,2.2,3.6,3.3,5.8,2.3c2.2-1,3.3-3.6,2.3-5.8c-1-2.2-3.6-3.3-5.8-2.3
		C836.7,220.7,835.6,223.3,836.6,225.5z"/>
	<path class="st7" d="M823.8,215c1,2.2,3.6,3.3,5.8,2.3c2.2-1,3.3-3.6,2.3-5.8c-1-2.2-3.6-3.3-5.8-2.3
		C823.8,210.2,822.8,212.8,823.8,215z"/>
</g>
<g>
	<path class="st4" d="M476.9,390.5c-2,0-48.6,0.2-48.6,15.5c0,15.3,46.6,15.5,48.6,15.5c2,0,48.6-0.2,48.6-15.5
		C525.4,390.7,478.8,390.5,476.9,390.5z M476.9,398.9c26.1,0,38.3,5.2,40,7c-1.7,1.8-13.9,7-40,7c-26.1,0-38.3-5.2-40-7
		C438.6,404.2,450.8,398.9,476.9,398.9z"/>
	<path class="st0" d="M476.9,382.2c-2,0-48.6,0.2-48.6,15.5c0,15.3,46.6,15.5,48.6,15.5c2,0,48.6-0.2,48.6-15.5
		C525.4,382.4,478.8,382.2,476.9,382.2z M476.9,390.7c26.1,0,38.3,5.2,40,7c-1.7,1.8-13.9,7-40,7c-26.1,0-38.3-5.2-40-7
		C438.6,395.9,450.8,390.7,476.9,390.7z"/>
	<g>
		<g>
			<path class="st4" d="M525.4,389.3L525.4,389.3c0,0.3-0.1,0.5-0.1,0.7C525.4,389.8,525.4,389.5,525.4,389.3z"/>
			<path class="st4" d="M525.3,390.1c0,0,0-0.1,0-0.1C525.3,390,525.3,390.1,525.3,390.1z"/>
		</g>
		<g>
			<g>
				<g>
					<path class="st6" d="M448.3,347.1c-0.5,2.9-0.2,5.7,0.7,8.3l2.7-2.9c0,0,0,0,0,0c-0.3-1.5-0.3-3.1,0-4.7
						c1.3-7.1,8.1-11.8,15.2-10.5c2,0.4,3.7,1.2,5.3,2.3l2.3-2.5c-2-1.5-4.3-2.6-7-3.1C458.5,332.2,449.9,338.2,448.3,347.1z"/>
				</g>
				<g>
					<path class="st6" d="M440.9,344c-1.1,5.9,0.4,11.7,3.5,16.3l2.4-2.6c-2.4-3.8-3.4-8.4-2.6-13.1c1.9-10.1,11.5-16.8,21.6-15
						c4,0.7,7.5,2.8,10.1,5.6l2.3-2.5c-3.1-3.2-7.1-5.5-11.8-6.4C454.5,324.2,443.1,332.1,440.9,344z"/>
				</g>
			</g>
		</g>
	</g>
	<g>
		<path class="st0" d="M476.9,406c-5.1,0-50-0.5-50-16.9c0-16.4,44.9-16.9,50-16.9c0.7,0,16.3,0,29.7,2.9
			c-5.6-5.2-14.1-12.7-17.1-15.3l-1.6,1.7l-19.4-12.8l15.8-17.4l14.6,18.1l-1.4,1.5c3.7,3.5,16.4,15.6,21.2,19.9
			c3.2,2.9,5.2,5.6,6.5,7.3c1.7,2.4,2.5,5.2,2.5,8.2c0,2.6-0.8,5.2-2.2,7.2C518.5,405.6,481.1,406,476.9,406z M439.5,389.1
			c4,1.9,15.3,5.6,37.4,5.6c19,0,29.1-2.7,33.5-4.4c1.6-0.6,2.6-1.1,3.3-1.5c-1-0.4-2.4-1-4.5-1.6c-5.7-1.7-16-3.7-32.3-3.7
			C454.8,383.4,443.4,387.1,439.5,389.1z"/>
		<path class="st4" d="M524,378.9c-1.4-2.1-3.4-4.5-6.2-7.1c-5.7-5-22.2-20.8-22.2-20.8l1.5-1.6l-12.8-15.9l-13.6,14.9l17.1,11.2
			l1.7-1.9c0,0,17.1,14.9,22,19.9c0,0,0,0,0,0c0.4,0.4,0.7,0.7,1,1.1c4.2,4.6,5.5,8.2,3.3,10.3c-0.9,0.8-2.5,1.7-4.9,2.6
			c-6.1,2.3-17.2,4.5-34,4.5c-26.1,0-38.3-5.2-40-7c1.7-1.8,13.9-7,40-7c15.7,0,26.3,1.9,32.7,3.8c2.3,0.7,4.1,1.4,5.4,2
			c0.1-1.6-0.3-4.3-3.4-7.9c-0.3-0.4-0.7-0.8-1.1-1.2c-0.5-0.5-1.1-1.1-1.8-1.7c-13.6-3.3-30.6-3.4-31.7-3.4
			c-2,0-48.6,0.2-48.6,15.5c0,15.3,46.6,15.5,48.6,15.5c1.8,0,40.7-0.2,47.5-11.8c1.2-1.7,1.9-4,1.9-6.4
			C526.3,383.5,525.4,380.9,524,378.9z"/>
	</g>
</g>
<g>
	<path class="st6" d="M117.7,84.3c2.1-6.4,21-12.6,26.3-14.2c-5.2-1.6-24.2-7.8-26.3-14.2c-2.4-7.4,13.8-28,13.8-28
		s-24.6,9.1-30.9,4.5c-6.3-4.6-5.3-30.8-5.3-30.8S80.7,23.4,72.8,23.4C65,23.4,50.4,1.6,50.4,1.6s1,26.2-5.3,30.8
		c-6.3,4.6-30.9-4.5-30.9-4.5S30.4,48.6,28,56C25.9,62.4,7,68.6,1.7,70.2C7,71.8,25.9,77.9,28,84.3c2.4,7.4-13.8,28-13.8,28
		s24.6-9.1,30.9-4.5c6.3,4.6,5.3,30.8,5.3,30.8s14.6-21.8,22.4-21.8c7.8,0,22.4,21.8,22.4,21.8s-1-26.2,5.3-30.8
		c6.3-4.6,30.9,4.5,30.9,4.5S115.3,91.8,117.7,84.3z"/>
	<path class="st0" d="M72.8,29.7c-22.4,0-40.6,18.1-40.8,40.4c0.2,22.4,18.4,40.4,40.8,40.4c22.4,0,40.6-18.1,40.8-40.4
		C113.4,47.8,95.3,29.7,72.8,29.7z"/>
	<path class="st6" d="M72.8,33.3c-20.4,0-37.1,16.5-37.3,36.9c0.2,20.4,16.9,36.9,37.3,36.9c20.4,0,37.1-16.5,37.3-36.9
		C109.9,49.8,93.3,33.3,72.8,33.3z"/>
</g>
<g>
	<g>
		<rect x="944.9" y="132.2" class="st3" width="4.2" height="39.4"/>
		<g>
			<path class="st4" d="M916.4,172.6c0-2.8,2.3-5,5-5h51.3c2.8,0,5,2.3,5,5v2.2c0,2.8-2.3,5-5,5h-51.3c-2.8,0-5-2.3-5-5V172.6z"/>
		</g>
		<polygon class="st4" points="926.2,182.1 967.8,182.1 962.2,212.5 931.8,212.5 		"/>
	</g>
	<g>
		<g>
			<path class="st4" d="M964.6,132.7c5.3-1.1,5.8-5.4,5.8-6.3c0-0.9-0.5-5.3-5.9-6.3c-5.3-1.1-14.4,4.6-14.4,4.6l0,1.7l0,1.7
				C950.2,128.1,959.3,133.8,964.6,132.7z"/>
			<path class="st4" d="M961.3,114.5c1.7-5.1-1.9-7.7-2.7-8.1c-0.8-0.4-4.9-2.2-8.4,1.8c-3.6,4-3.1,14.6-3.1,14.6l1.5,0.8l1.5,0.8
				C950.1,124.5,959.6,119.6,961.3,114.5z"/>
			<path class="st4" d="M943.7,108.2c-3.6-4-7.7-2.3-8.5-1.8c-0.8,0.4-4.3,3.1-2.6,8.1c1.8,5.1,11.3,10,11.3,10l1.5-0.8l1.5-0.8
				C946.8,122.8,947.3,112.2,943.7,108.2z"/>
			<path class="st4" d="M929.4,120.1c-5.3,1.1-5.8,5.4-5.8,6.3c0,0.9,0.5,5.3,5.9,6.3c5.3,1.1,14.4-4.6,14.4-4.6l0-1.7l0-1.7
				C943.8,124.8,934.7,119.1,929.4,120.1z"/>
			<path class="st4" d="M932.7,138.4c-1.7,5.1,1.9,7.7,2.7,8.1c0.8,0.4,4.9,2.2,8.4-1.8c3.6-4,3.1-14.6,3.1-14.6l-1.5-0.8l-1.5-0.8
				C943.9,128.4,934.4,133.3,932.7,138.4z"/>
			<path class="st4" d="M950.3,144.6c3.6,4,7.7,2.3,8.5,1.8c0.8-0.4,4.3-3.1,2.6-8.1c-1.8-5.1-11.3-10-11.3-10l-1.5,0.8l-1.5,0.8
				C947.2,130,946.7,140.6,950.3,144.6z"/>
			<path class="st0" d="M947,121.1c3,0,5.4,2.4,5.5,5.4c0,3-2.4,5.4-5.4,5.4c-3,0-5.4-2.4-5.5-5.4C941.6,123.5,944,121.1,947,121.1z
				"/>
		</g>
	</g>
	<g>
		<path class="st3" d="M965.6,152.8c-17.5-0.8-16.9,9.1-17,10.3C949.8,163.6,958.3,168.7,965.6,152.8z"/>
		<path class="st3" d="M928.4,152.8c17.5-0.8,16.9,9.1,17,10.3C944.2,163.6,935.7,168.7,928.4,152.8z"/>
	</g>
</g>
<g>
	<path class="st4" d="M607,354.1c-15.1,13.8-10.9,38.7-10.9,38.7H607h10.9C617.9,392.8,622.1,367.9,607,354.1z"/>
	<g>
		<path class="st0" d="M604.3,392.8v-3.5c0-0.1,0-0.1,0-0.2c0.1-2.6,1.3-5.1,2.7-5.1c0,0,0,0,0,0v8.7H604.3z"/>
	</g>
	<path class="st4" d="M609.1,402.9v-13.7c0-1.4-1-5.2-2.1-5.2c-1.1,0-2.1,3.8-2.1,5.2v13.7H609.1z"/>
	<path class="st3" d="M602.5,401.2v34.2c0,3,2.1,6.8,4.5,6.8c2.4,0,4.5-3.8,4.5-6.8v-34.2H602.5z"/>
</g>
<g>
	<path class="st4" d="M564.4,394.1c0.1,1.8,0.2,3.4,0.2,3.9h12.6c0-0.5,0.1-1.3,0.1-2.3c0.1-1.6,1.6-4.9,1.8-7
		c0.2-2.1-0.5-5.3-2.2-7.8c-1.7-2.6-4.9-3.8-4.9-3.8v-10.1c0,0-4.7,1.9-7.2,5.6c-2.5,3.7-3.5,8.4-3.2,11.4
		C562.1,387,564.3,391.8,564.4,394.1z"/>
	<path class="st3" d="M580.4,401.8c0-3.6-4.4-6.6-9.8-6.6c-5.4,0-9.8,2.9-9.8,6.6c0,1.8,1,3.4,2.7,4.5c0.1,7.7,0.8,20-2.9,26.9
		c-2.8,5.3-3.2,6.7-2.6,7.5c0.5,0.8,5.8-0.2,7.9-5.1c3.2-7.4,3.6-18.6,3.3-27.4c0.5,0,0.9,0.1,1.4,0.1c0.3,0,0.6,0,0.9,0v27.1
		c0,3,1.3,6.8,2.7,6.8c1.5,0,2.7-3.8,2.7-6.8v-28.7C579.1,405.6,580.4,403.8,580.4,401.8z"/>
	<circle class="st0" cx="569.4" cy="399.5" r="1.7"/>
</g>
<g>
	<path class="st4" d="M649.5,360.3c0-1.4-1-5.2-2.1-5.2c-1.1,0-2.1,3.8-2.1,5.2v12.5c-0.1,0.1-0.3,0.3-0.4,0.4l-5.5,6.6v-19.5
		c0-1.4-1-5.2-2.1-5.2c-1.1,0-2.1,3.8-2.1,5.2v19.4l-5.5-6.5c-0.1-0.1-0.2-0.3-0.4-0.4v-12.5c0-1.4-1-5.2-2.1-5.2
		c-1.1,0-2.1,3.8-2.1,5.2c0,0,0,12.8,0.2,13.7c0.2,0.9,0.8,1.6,1.2,2l8.7,10.4v15.8h4.2v-15.8l8.8-10.4c0.3-0.4,0.9-1.1,1.2-2
		C649.6,373.2,649.5,360.3,649.5,360.3z"/>
	<path class="st3" d="M632.8,401.2v34.2c0,3,2.1,6.8,4.5,6.8c2.4,0,4.5-3.8,4.5-6.8v-34.2H632.8z"/>
</g>
<g>
	<g>
		<path class="st4" d="M675.5,385.2c5.3,1.2,13.4-11.8,18-29.2c4.6-17.4,4.2-32.6-1.1-34.3L675.5,385.2z"/>
		<path class="st4" d="M676.7,385.2c-5.3,1.2-13.4-11.8-18-29.2c-4.6-17.4-4.2-32.6,1.1-34.3L676.7,385.2z"/>
	</g>
	<circle class="st4" cx="676.1" cy="385.9" r="5.4"/>
	<g>
		<g>
			<path class="st4" d="M684.3,403.6l-3.5-13.2c-0.4-1.4-2.3-4.8-3.4-4.5c-1.1,0.3-1.1,4.2-0.7,5.6l3.5,13.2L684.3,403.6z"/>
		</g>
		<g>
			<path class="st4" d="M667.8,403.6l3.5-13.2c0.4-1.4,2.3-4.8,3.4-4.5c1.1,0.3,1.1,4.2,0.7,5.6l-3.5,13.2L667.8,403.6z"/>
			<path class="st3" d="M677.5,403.7l8.9,33.1c0.8,2.9,3.8,6,6.1,5.4c2.3-0.6,3.4-4.9,2.6-7.7l-8.9-33.1L677.5,403.7z"/>
			<path class="st3" d="M674.7,403.7l-8.9,33.1c-0.8,2.9-3.8,6-6.1,5.4c-2.3-0.6-3.4-4.9-2.6-7.7l8.9-33.1L674.7,403.7z"/>
		</g>
	</g>
	<circle class="st9" cx="676.1" cy="385.9" r="1.2"/>
</g>
<g>
	<g>
		<g>
			<path class="st3" d="M852.5,374.5c6.5-6,15.5-0.7,18.7-0.7c3.2,0,12.2-5.3,18.7,0.7c6.4,5.9,3.9,19.8,2.3,24.4
				c-1.7,4.6-7.2,12.8-11.5,14.1c-2.3,0.7-4.9-0.8-9.5-0.8c-4.6,0-7.2,1.5-9.5,0.8c-4.3-1.3-9.8-9.5-11.5-14.1
				C848.6,394.3,846.1,380.4,852.5,374.5z"/>
		</g>
	</g>
	<g>
		<g>
			<path class="st4" d="M871.6,368.3c0,0,1.2-10.4-5.1-10.9c0,0-1.1,0.3-1.3,2.2c0,0,3.9,1.6,4.9,8.7H871.6z"/>
		</g>
	</g>
</g>
<g>
	<path class="st4" d="M335.9,240.4c-2.4-4-5.1-8.8-5.1-8.8l-6.6-11.4l-6.6,11.4c0,0-1.3,2.3-5.1,8.8c-1.6,2.7-3.1,5.7-3.1,9.1
		c0,8.2,6.6,14.8,14.8,14.8c8.2,0,14.8-6.6,14.8-14.8C339.1,246.1,337.6,243.1,335.9,240.4z"/>
	<path class="st0" d="M334.1,243.7c-1.1-1.8-2.3-3.9-2.3-3.9l-2.9-5.1l-2.9,5.1c0,0-0.6,1-2.3,3.9c-0.7,1.2-1.4,2.5-1.4,4.1
		c0,3.6,3,6.6,6.6,6.6c3.6,0,6.6-3,6.6-6.6C335.5,246.2,334.8,244.9,334.1,243.7z"/>
	<path class="st4" d="M353.1,220.8c-1.3-2.2-2.8-4.9-2.8-4.9l-3.6-6.3l-3.6,6.3c0,0-0.7,1.3-2.8,4.9c-0.9,1.5-1.7,3.1-1.7,5
		c0,4.5,3.7,8.2,8.2,8.2c4.5,0,8.2-3.7,8.2-8.2C354.8,223.9,354,222.3,353.1,220.8z"/>
</g>
<g>
	<path class="st4" d="M889.9,97.1c-3.6,3.7-8.5,6.1-15.3,7.3c-6.8,1.2-11.1,4.4-13.2,6.8c-2.1-2.3-7.7-6.5-14.5-8.6
		c-6.8-2.1-9.3-2.8-11.9-4.6c-3.3-2.4-5-7.1-5.3-10.2c-0.2-1.9-1.7-0.8-1.8,0.6c-0.1,1.5,2,9.8,6.5,12.5c4.6,2.8,14.9,7.3,17.9,11.7
		c3.1,4.4,10.5,13.3,0.1,34.8h8.9h8.9c-10.4-21.5-4.2-31-1.1-35.4c3.1-4.4,15-5.6,18.8-10.3C892.1,96.4,890.5,96.5,889.9,97.1z"/>
</g>
<path class="st3" d="M903.8,73.5c-0.4-0.1-0.7-0.2-1-0.4c2.8-5.7,3.1-11.6,0.1-15.9c-3.7-5.5-11.4-7.2-19.7-5.2
	c-2.8-10.3-11.4-17.8-21.5-17.8c-7.8,0-14.7,4.4-18.7,11.2c-10.3-2.4-19.7-0.3-24.2,6.5c-3.5,5.2-3.3,12.1-0.2,18.9
	C804.1,72,793,80.3,793,90.3c0,10.9,13.2,19.7,29.4,19.7c13.9,0,25.5-6.4,28.6-15.1c1.8,0.3,3.6,0.5,5.3,0.5
	c3.4,1.8,7.7,2.8,12.4,2.8c1.4,0,2.8-0.1,4.1-0.3c3.8,5.2,10,9.9,17.8,12.6c15.3,5.5,30.7,1.6,34.3-8.6
	C928.5,91.7,919.1,79,903.8,73.5z"/>
<path class="st1" d="M231-97v614h800V-97H231z M1011,477c0,11-9,20-20,20H271c-11,0-20-9-20-20V-57c0-11,9-20,20-20h720
	c11,0,20,9,20,20V477z"/>
</svg>
