<?xml version="1.0" encoding="utf-8"?>
<!-- Generator: Adobe Illustrator 19.0.1, SVG Export Plug-In . SVG Version: 6.00 Build 0)  -->
<svg version="1.1" id="bkg" xmlns="http://www.w3.org/2000/svg" xmlns:xlink="http://www.w3.org/1999/xlink" x="0px" y="0px"
	 viewBox="0 0 85.1 100.7" style="enable-background:new 0 0 85.1 100.7;" xml:space="preserve">
<style type="text/css">
	.st0{fill:#55C16F;}
	.st1{fill:#FFFFFF;}
</style>
<rect y="0" class="st0" width="85.1" height="100.7"/>
<g>
	<path class="st1" d="M66.9,46.7c1.1-3.4,11.4-6.6,14.2-7.4c-2.8-0.8-13.1-4.1-14.2-7.4c-1.3-3.9,7.4-14.7,7.4-14.7
		s-13.3,4.8-16.7,2.3c-3.4-2.4-2.9-16.2-2.9-16.2s-7.9,11.4-12.1,11.4c-4.2,0-12.1-11.4-12.1-11.4s0.5,13.8-2.9,16.2
		C24.3,21.9,11,17.1,11,17.1s8.8,10.8,7.4,14.7c-1.1,3.4-11.4,6.6-14.2,7.4c2.8,0.8,13.1,4.1,14.2,7.4c1.3,3.9-7.4,14.7-7.4,14.7
		s13.3-4.8,16.7-2.3c3.4,2.4,2.9,16.2,2.9,16.2s7.9-11.4,12.1-11.4c4.2,0,12.1,11.4,12.1,11.4s-0.5-13.8,2.9-16.2
		c3.4-2.4,16.7,2.3,16.7,2.3S65.6,50.6,66.9,46.7z"/>
	<path class="st0" d="M42.7,18.1c-12.1,0-21.9,9.5-22.1,21.2c0.1,11.7,10,21.2,22.1,21.2c12.1,0,21.9-9.5,22.1-21.2
		C64.6,27.5,54.8,18.1,42.7,18.1z"/>
	<path class="st1" d="M42.7,19.9c-11,0-20,8.7-20.2,19.4c0.1,10.7,9.1,19.4,20.2,19.4c11,0,20-8.7,20.2-19.4
		C62.7,28.6,53.7,19.9,42.7,19.9z"/>
</g>
<g>
	<path class="st1" d="M16.4,87.1c0,1.2-0.4,2.2-1.2,2.8c-0.8,0.7-1.9,1-3.4,1h-1.1V95H8.2V83.6H12c1.4,0,2.5,0.3,3.3,0.9
		C16.1,85.1,16.4,86,16.4,87.1z M10.7,89h0.8c0.8,0,1.4-0.1,1.7-0.4c0.4-0.3,0.6-0.7,0.6-1.3c0-0.6-0.2-1-0.5-1.3s-0.8-0.4-1.5-0.4
		h-1.1V89z"/>
	<path class="st1" d="M29.4,89.3c0,1.9-0.5,3.3-1.5,4.4s-2.4,1.5-4.2,1.5s-3.2-0.5-4.2-1.5s-1.5-2.5-1.5-4.4s0.5-3.4,1.5-4.4
		s2.4-1.5,4.2-1.5c1.8,0,3.2,0.5,4.2,1.5S29.4,87.4,29.4,89.3z M20.8,89.3c0,1.3,0.3,2.2,0.8,2.9s1.3,1,2.3,1c2,0,3-1.3,3-3.9
		c0-2.6-1-3.9-3-3.9c-1,0-1.8,0.3-2.3,1C21,87,20.8,88,20.8,89.3z"/>
	<path class="st1" d="M30.5,93h0.9c0.8-1.5,1.4-3,1.9-4.5c0.5-1.5,0.8-3.1,1-4.9h6.9V93h1.6v5.3h-2.4V95h-7.4v3.3h-2.4V93z
		 M36.3,85.6c-0.2,1.2-0.5,2.5-0.9,3.8S34.5,91.9,34,93h4.6v-7.4H36.3z"/>
	<path class="st1" d="M54.3,95h-2.5v-4.9h-4.7V95h-2.5V83.6h2.5v4.5h4.7v-4.5h2.5V95z"/>
	<path class="st1" d="M68.1,89.3c0,1.9-0.5,3.3-1.5,4.4s-2.4,1.5-4.2,1.5c-1.8,0-3.2-0.5-4.2-1.5s-1.5-2.5-1.5-4.4s0.5-3.4,1.5-4.4
		s2.4-1.5,4.2-1.5c1.8,0,3.2,0.5,4.2,1.5S68.1,87.4,68.1,89.3z M59.4,89.3c0,1.3,0.3,2.2,0.8,2.9s1.3,1,2.3,1c2,0,3-1.3,3-3.9
		c0-2.6-1-3.9-3-3.9c-1,0-1.8,0.3-2.3,1C59.7,87,59.4,88,59.4,89.3z"/>
	<path class="st1" d="M77.4,95h-6.8V83.6h6.8v2H73v2.5h4v2h-4V93h4.3V95z"/>
</g>
</svg>
